<svg width="20" height="20" viewBox="0 0 20 20" fill="none" xmlns="http://www.w3.org/2000/svg">
<path d="M9.89505 16.666C9.95061 16.666 10.0062 16.6521 10.0617 16.6243C10.1173 16.5966 10.1589 16.5688 10.1867 16.541L17.0201 9.70768C17.1867 9.54102 17.3082 9.35352 17.3846 9.14518C17.461 8.93685 17.4992 8.72852 17.4992 8.52018C17.4992 8.29796 17.461 8.08615 17.3846 7.88477C17.3082 7.68338 17.1867 7.50629 17.0201 7.35352L13.4784 3.81185C13.3256 3.64518 13.1485 3.52365 12.9471 3.44727C12.7457 3.37088 12.5339 3.33268 12.3117 3.33268C12.1034 3.33268 11.8951 3.37088 11.6867 3.44727C11.4784 3.52365 11.2909 3.64518 11.1242 3.81185L10.8951 4.04102L12.4367 5.60352C12.6451 5.79796 12.7978 6.02018 12.8951 6.27018C12.9923 6.52018 13.0409 6.78407 13.0409 7.06185C13.0409 7.64518 12.843 8.13477 12.4471 8.5306C12.0513 8.92643 11.5617 9.12435 10.9784 9.12435C10.7006 9.12435 10.4332 9.07574 10.1763 8.97852C9.91936 8.88129 9.69366 8.73546 9.49922 8.54102L7.93672 6.99935L4.29089 10.6452C4.24922 10.6868 4.21797 10.732 4.19714 10.7806C4.1763 10.8292 4.16589 10.8813 4.16589 10.9368C4.16589 11.048 4.20755 11.1487 4.29089 11.2389C4.37422 11.3292 4.47144 11.3743 4.58255 11.3743C4.63811 11.3743 4.69366 11.3605 4.74922 11.3327C4.80477 11.3049 4.84644 11.2771 4.87422 11.2493L7.70755 8.41602L8.87422 9.58268L6.06172 12.416C6.02005 12.4577 5.9888 12.5028 5.96797 12.5514C5.94714 12.6 5.93672 12.6521 5.93672 12.7077C5.93672 12.8188 5.97839 12.916 6.06172 12.9993C6.14505 13.0827 6.24227 13.1243 6.35339 13.1243C6.40894 13.1243 6.4645 13.1105 6.52005 13.0827C6.57561 13.0549 6.61727 13.0271 6.64505 12.9993L9.47839 10.1868L10.6451 11.3535L7.83255 14.1868C7.79089 14.2146 7.75964 14.2563 7.7388 14.3118C7.71797 14.3674 7.70755 14.423 7.70755 14.4785C7.70755 14.5896 7.74922 14.6868 7.83255 14.7702C7.91589 14.8535 8.01311 14.8952 8.12422 14.8952C8.17977 14.8952 8.23186 14.8848 8.28047 14.8639C8.32908 14.8431 8.37422 14.8118 8.41589 14.7702L11.2492 11.9577L12.4159 13.1243L9.58255 15.9577C9.54089 15.9993 9.50964 16.0445 9.4888 16.0931C9.46797 16.1417 9.45755 16.1938 9.45755 16.2493C9.45755 16.3605 9.50269 16.4577 9.59297 16.541C9.68325 16.6243 9.78394 16.666 9.89505 16.666ZM9.87422 18.3327C9.36033 18.3327 8.90547 18.1625 8.50964 17.8223C8.1138 17.482 7.88116 17.0549 7.81172 16.541C7.3395 16.4716 6.94366 16.2771 6.62422 15.9577C6.30477 15.6382 6.11033 15.2424 6.04089 14.7702C5.56866 14.7007 5.1763 14.5028 4.8638 14.1764C4.5513 13.85 4.36033 13.4577 4.29089 12.9993C3.76311 12.9299 3.33255 12.7007 2.99922 12.3118C2.66589 11.923 2.49922 11.4646 2.49922 10.9368C2.49922 10.6591 2.5513 10.3917 2.65547 10.1348C2.75964 9.87782 2.90894 9.65213 3.10339 9.45768L7.93672 4.64518L10.6659 7.37435C10.6937 7.41602 10.7353 7.44727 10.7909 7.4681C10.8464 7.48893 10.902 7.49935 10.9576 7.49935C11.0826 7.49935 11.1867 7.46115 11.2701 7.38477C11.3534 7.30838 11.3951 7.20768 11.3951 7.08268C11.3951 7.02713 11.3846 6.97157 11.3638 6.91602C11.343 6.86046 11.3117 6.81879 11.2701 6.79102L8.29089 3.81185C8.13811 3.64518 7.96102 3.52365 7.75964 3.44727C7.55825 3.37088 7.34644 3.33268 7.12422 3.33268C6.91589 3.33268 6.70755 3.37088 6.49922 3.44727C6.29089 3.52365 6.10339 3.64518 5.93672 3.81185L2.99922 6.77018C2.87422 6.89518 2.77005 7.04102 2.68672 7.20768C2.60339 7.37435 2.54783 7.54102 2.52005 7.70768C2.49227 7.87435 2.49227 8.04449 2.52005 8.2181C2.54783 8.39171 2.60339 8.5549 2.68672 8.70768L1.47839 9.91601C1.24227 9.59657 1.06866 9.24588 0.957552 8.86393C0.846441 8.48199 0.804774 8.09657 0.832552 7.70768C0.86033 7.31879 0.957552 6.94032 1.12422 6.57227C1.29089 6.20421 1.52005 5.87435 1.81172 5.58268L4.74922 2.64518C5.08255 2.32574 5.45408 2.08268 5.8638 1.91602C6.27352 1.74935 6.69366 1.66602 7.12422 1.66602C7.55477 1.66602 7.97491 1.74935 8.38464 1.91602C8.79436 2.08268 9.15894 2.32574 9.47839 2.64518L9.70755 2.87435L9.93672 2.64518C10.2701 2.32574 10.6416 2.08268 11.0513 1.91602C11.461 1.74935 11.8812 1.66602 12.3117 1.66602C12.7423 1.66602 13.1624 1.74935 13.5721 1.91602C13.9819 2.08268 14.3464 2.32574 14.6659 2.64518L18.1867 6.16602C18.5062 6.48546 18.7492 6.85352 18.9159 7.27018C19.0826 7.68685 19.1659 8.11046 19.1659 8.54102C19.1659 8.97157 19.0826 9.39171 18.9159 9.80143C18.7492 10.2112 18.5062 10.5757 18.1867 10.8952L11.3534 17.7077C11.1589 17.9021 10.9332 18.0549 10.6763 18.166C10.4194 18.2771 10.152 18.3327 9.87422 18.3327Z" fill="#A36E29"/>
</svg>
