<svg width="913" height="894" viewBox="0 0 913 894" fill="none" xmlns="http://www.w3.org/2000/svg">
<rect width="913" height="894" rx="24" fill="#FFFCF2"/>
<path d="M94.7812 737V691.312H104.469V737H94.7812ZM135.062 701.406C138.792 701.406 141.792 702.427 144.062 704.469C146.333 706.49 147.469 709.74 147.469 714.219V737H137.938V716.594C137.938 714.094 137.479 712.208 136.562 710.938C135.667 709.667 134.25 709.031 132.312 709.031C129.396 709.031 127.406 710.021 126.344 712C125.281 713.979 124.75 716.833 124.75 720.562V737H115.219V702.062H122.5L123.781 706.531H124.312C125.062 705.323 125.99 704.344 127.094 703.594C128.219 702.844 129.458 702.292 130.812 701.938C132.188 701.583 133.604 701.406 135.062 701.406ZM168.344 737.625C164.448 737.625 161.271 736.104 158.812 733.062C156.375 730 155.156 725.51 155.156 719.594C155.156 713.615 156.396 709.094 158.875 706.031C161.354 702.948 164.594 701.406 168.594 701.406C170.26 701.406 171.729 701.635 173 702.094C174.271 702.552 175.365 703.167 176.281 703.938C177.219 704.708 178.01 705.573 178.656 706.531H178.969C178.844 705.865 178.688 704.885 178.5 703.594C178.333 702.281 178.25 700.938 178.25 699.562V688.375H187.812V737H180.5L178.656 732.469H178.25C177.646 733.427 176.885 734.302 175.969 735.094C175.073 735.865 174 736.479 172.75 736.938C171.5 737.396 170.031 737.625 168.344 737.625ZM171.688 730.031C174.292 730.031 176.125 729.26 177.188 727.719C178.271 726.156 178.844 723.812 178.906 720.688V719.656C178.906 716.26 178.385 713.667 177.344 711.875C176.302 710.062 174.365 709.156 171.531 709.156C169.427 709.156 167.781 710.062 166.594 711.875C165.406 713.688 164.812 716.302 164.812 719.719C164.812 723.135 165.406 725.708 166.594 727.438C167.802 729.167 169.5 730.031 171.688 730.031ZM207.312 702.062V737H197.781V702.062H207.312ZM202.562 688.375C203.979 688.375 205.198 688.708 206.219 689.375C207.24 690.021 207.75 691.24 207.75 693.031C207.75 694.802 207.24 696.031 206.219 696.719C205.198 697.385 203.979 697.719 202.562 697.719C201.125 697.719 199.896 697.385 198.875 696.719C197.875 696.031 197.375 694.802 197.375 693.031C197.375 691.24 197.875 690.021 198.875 689.375C199.896 688.708 201.125 688.375 202.562 688.375ZM231.656 701.344C236.344 701.344 239.938 702.365 242.438 704.406C244.938 706.448 246.188 709.552 246.188 713.719V737H239.531L237.688 732.25H237.438C236.438 733.5 235.417 734.521 234.375 735.312C233.333 736.104 232.135 736.688 230.781 737.062C229.427 737.438 227.781 737.625 225.844 737.625C223.781 737.625 221.927 737.229 220.281 736.438C218.656 735.646 217.375 734.438 216.438 732.812C215.5 731.167 215.031 729.083 215.031 726.562C215.031 722.854 216.333 720.125 218.938 718.375C221.542 716.604 225.448 715.625 230.656 715.438L236.719 715.25V713.719C236.719 711.885 236.24 710.542 235.281 709.688C234.323 708.833 232.99 708.406 231.281 708.406C229.594 708.406 227.938 708.646 226.312 709.125C224.688 709.604 223.062 710.208 221.438 710.938L218.281 704.5C220.135 703.521 222.208 702.75 224.5 702.188C226.812 701.625 229.198 701.344 231.656 701.344ZM236.719 720.812L233.031 720.938C229.948 721.021 227.802 721.573 226.594 722.594C225.406 723.615 224.812 724.958 224.812 726.625C224.812 728.083 225.24 729.125 226.094 729.75C226.948 730.354 228.062 730.656 229.438 730.656C231.479 730.656 233.198 730.052 234.594 728.844C236.01 727.635 236.719 725.917 236.719 723.688V720.812ZM263.719 691.312L264.156 692C263.781 693.521 263.292 695.146 262.688 696.875C262.104 698.583 261.458 700.302 260.75 702.031C260.062 703.76 259.365 705.406 258.656 706.969H251.812C252.104 705.719 252.396 704.406 252.688 703.031C253 701.656 253.292 700.281 253.562 698.906C253.854 697.531 254.115 696.198 254.344 694.906C254.573 693.615 254.771 692.417 254.938 691.312H263.719ZM294.281 726.625C294.281 729 293.719 731.01 292.594 732.656C291.49 734.281 289.833 735.521 287.625 736.375C285.417 737.208 282.667 737.625 279.375 737.625C276.938 737.625 274.844 737.469 273.094 737.156C271.365 736.844 269.615 736.323 267.844 735.594V727.719C269.74 728.573 271.771 729.281 273.938 729.844C276.125 730.385 278.042 730.656 279.688 730.656C281.542 730.656 282.865 730.385 283.656 729.844C284.469 729.281 284.875 728.552 284.875 727.656C284.875 727.073 284.708 726.552 284.375 726.094C284.062 725.615 283.375 725.083 282.312 724.5C281.25 723.896 279.583 723.115 277.312 722.156C275.125 721.24 273.323 720.312 271.906 719.375C270.51 718.438 269.469 717.333 268.781 716.062C268.115 714.771 267.781 713.135 267.781 711.156C267.781 707.927 269.031 705.5 271.531 703.875C274.052 702.229 277.417 701.406 281.625 701.406C283.792 701.406 285.854 701.625 287.812 702.062C289.792 702.5 291.823 703.198 293.906 704.156L291.031 711.031C289.302 710.281 287.667 709.667 286.125 709.188C284.604 708.708 283.052 708.469 281.469 708.469C280.073 708.469 279.021 708.656 278.312 709.031C277.604 709.406 277.25 709.979 277.25 710.75C277.25 711.312 277.427 711.812 277.781 712.25C278.156 712.688 278.865 713.177 279.906 713.719C280.969 714.24 282.521 714.917 284.562 715.75C286.542 716.562 288.26 717.417 289.719 718.312C291.177 719.188 292.302 720.281 293.094 721.594C293.885 722.885 294.281 724.562 294.281 726.625ZM333.062 730.031C334.104 730.031 335.115 729.927 336.094 729.719C337.094 729.51 338.083 729.25 339.062 728.938V736.031C338.042 736.49 336.771 736.865 335.25 737.156C333.75 737.469 332.104 737.625 330.312 737.625C328.229 737.625 326.354 737.292 324.688 736.625C323.042 735.938 321.74 734.76 320.781 733.094C319.844 731.406 319.375 729.062 319.375 726.062V709.219H314.812V705.188L320.062 702L322.812 694.625H328.906V702.062H338.688V709.219H328.906V726.062C328.906 727.396 329.281 728.396 330.031 729.062C330.802 729.708 331.812 730.031 333.062 730.031ZM377.906 719.469C377.906 722.385 377.51 724.969 376.719 727.219C375.948 729.469 374.812 731.375 373.312 732.938C371.833 734.479 370.042 735.646 367.938 736.438C365.854 737.229 363.5 737.625 360.875 737.625C358.417 737.625 356.156 737.229 354.094 736.438C352.052 735.646 350.271 734.479 348.75 732.938C347.25 731.375 346.083 729.469 345.25 727.219C344.438 724.969 344.031 722.385 344.031 719.469C344.031 715.594 344.719 712.312 346.094 709.625C347.469 706.938 349.427 704.896 351.969 703.5C354.51 702.104 357.542 701.406 361.062 701.406C364.333 701.406 367.229 702.104 369.75 703.5C372.292 704.896 374.281 706.938 375.719 709.625C377.177 712.312 377.906 715.594 377.906 719.469ZM353.75 719.469C353.75 721.76 354 723.688 354.5 725.25C355 726.812 355.781 727.99 356.844 728.781C357.906 729.573 359.292 729.969 361 729.969C362.688 729.969 364.052 729.573 365.094 728.781C366.156 727.99 366.927 726.812 367.406 725.25C367.906 723.688 368.156 721.76 368.156 719.469C368.156 717.156 367.906 715.24 367.406 713.719C366.927 712.177 366.156 711.021 365.094 710.25C364.031 709.479 362.646 709.094 360.938 709.094C358.417 709.094 356.583 709.958 355.438 711.688C354.312 713.417 353.75 716.01 353.75 719.469ZM405.219 701.406C409.156 701.406 412.333 702.938 414.75 706C417.188 709.062 418.406 713.552 418.406 719.469C418.406 723.427 417.833 726.76 416.688 729.469C415.542 732.156 413.958 734.188 411.938 735.562C409.917 736.938 407.594 737.625 404.969 737.625C403.281 737.625 401.833 737.417 400.625 737C399.417 736.562 398.385 736.01 397.531 735.344C396.677 734.656 395.938 733.927 395.312 733.156H394.812C394.979 733.99 395.104 734.844 395.188 735.719C395.271 736.594 395.312 737.448 395.312 738.281V752.375H385.781V702.062H393.531L394.875 706.594H395.312C395.938 705.656 396.698 704.792 397.594 704C398.49 703.208 399.562 702.583 400.812 702.125C402.083 701.646 403.552 701.406 405.219 701.406ZM402.156 709.031C400.49 709.031 399.167 709.375 398.188 710.062C397.208 710.75 396.49 711.781 396.031 713.156C395.594 714.531 395.354 716.271 395.312 718.375V719.406C395.312 721.656 395.521 723.562 395.938 725.125C396.375 726.688 397.094 727.875 398.094 728.688C399.115 729.5 400.51 729.906 402.281 729.906C403.74 729.906 404.938 729.5 405.875 728.688C406.812 727.875 407.51 726.688 407.969 725.125C408.448 723.542 408.688 721.615 408.688 719.344C408.688 715.927 408.156 713.354 407.094 711.625C406.031 709.896 404.385 709.031 402.156 709.031ZM452.438 737H442.906V688.375H452.438V737ZM476.781 701.344C481.469 701.344 485.062 702.365 487.562 704.406C490.062 706.448 491.312 709.552 491.312 713.719V737H484.656L482.812 732.25H482.562C481.562 733.5 480.542 734.521 479.5 735.312C478.458 736.104 477.26 736.688 475.906 737.062C474.552 737.438 472.906 737.625 470.969 737.625C468.906 737.625 467.052 737.229 465.406 736.438C463.781 735.646 462.5 734.438 461.562 732.812C460.625 731.167 460.156 729.083 460.156 726.562C460.156 722.854 461.458 720.125 464.062 718.375C466.667 716.604 470.573 715.625 475.781 715.438L481.844 715.25V713.719C481.844 711.885 481.365 710.542 480.406 709.688C479.448 708.833 478.115 708.406 476.406 708.406C474.719 708.406 473.062 708.646 471.438 709.125C469.812 709.604 468.188 710.208 466.562 710.938L463.406 704.5C465.26 703.521 467.333 702.75 469.625 702.188C471.938 701.625 474.323 701.344 476.781 701.344ZM481.844 720.812L478.156 720.938C475.073 721.021 472.927 721.573 471.719 722.594C470.531 723.615 469.938 724.958 469.938 726.625C469.938 728.083 470.365 729.125 471.219 729.75C472.073 730.354 473.188 730.656 474.562 730.656C476.604 730.656 478.323 730.052 479.719 728.844C481.135 727.635 481.844 725.917 481.844 723.688V720.812ZM510.688 688.375V699.688C510.688 701 510.646 702.302 510.562 703.594C510.5 704.885 510.417 705.885 510.312 706.594H510.688C511.604 705.156 512.854 703.938 514.438 702.938C516.021 701.917 518.073 701.406 520.594 701.406C524.51 701.406 527.688 702.938 530.125 706C532.562 709.062 533.781 713.552 533.781 719.469C533.781 723.448 533.219 726.792 532.094 729.5C530.969 732.188 529.396 734.219 527.375 735.594C525.354 736.948 523.01 737.625 520.344 737.625C517.781 737.625 515.76 737.167 514.281 736.25C512.802 735.333 511.604 734.302 510.688 733.156H510.031L508.438 737H501.156V688.375H510.688ZM517.531 709.031C515.865 709.031 514.542 709.375 513.562 710.062C512.583 710.75 511.865 711.781 511.406 713.156C510.969 714.531 510.729 716.271 510.688 718.375V719.406C510.688 722.802 511.188 725.406 512.188 727.219C513.188 729.01 515.01 729.906 517.656 729.906C519.615 729.906 521.167 729 522.312 727.188C523.479 725.375 524.062 722.76 524.062 719.344C524.062 715.927 523.479 713.354 522.312 711.625C521.146 709.896 519.552 709.031 517.531 709.031ZM578.438 698.719C576.583 698.719 574.938 699.083 573.5 699.812C572.083 700.521 570.885 701.552 569.906 702.906C568.948 704.26 568.219 705.896 567.719 707.812C567.219 709.729 566.969 711.885 566.969 714.281C566.969 717.51 567.365 720.271 568.156 722.562C568.969 724.833 570.219 726.573 571.906 727.781C573.594 728.969 575.771 729.562 578.438 729.562C580.292 729.562 582.146 729.354 584 728.938C585.875 728.521 587.906 727.927 590.094 727.156V735.281C588.073 736.115 586.083 736.708 584.125 737.062C582.167 737.438 579.969 737.625 577.531 737.625C572.823 737.625 568.948 736.656 565.906 734.719C562.885 732.76 560.646 730.031 559.188 726.531C557.729 723.01 557 718.906 557 714.219C557 710.76 557.469 707.594 558.406 704.719C559.344 701.844 560.719 699.354 562.531 697.25C564.344 695.146 566.583 693.521 569.25 692.375C571.917 691.229 574.979 690.656 578.438 690.656C580.708 690.656 582.979 690.948 585.25 691.531C587.542 692.094 589.729 692.875 591.812 693.875L588.688 701.75C586.979 700.938 585.26 700.229 583.531 699.625C581.802 699.021 580.104 698.719 578.438 698.719ZM613.5 701.406C616.729 701.406 619.51 702.031 621.844 703.281C624.177 704.51 625.979 706.302 627.25 708.656C628.521 711.01 629.156 713.885 629.156 717.281V721.906H606.625C606.729 724.594 607.531 726.708 609.031 728.25C610.552 729.771 612.656 730.531 615.344 730.531C617.573 730.531 619.615 730.302 621.469 729.844C623.323 729.385 625.229 728.698 627.188 727.781V735.156C625.458 736.01 623.646 736.635 621.75 737.031C619.875 737.427 617.594 737.625 614.906 737.625C611.406 737.625 608.302 736.979 605.594 735.688C602.906 734.396 600.792 732.427 599.25 729.781C597.729 727.135 596.969 723.802 596.969 719.781C596.969 715.698 597.656 712.302 599.031 709.594C600.427 706.865 602.365 704.823 604.844 703.469C607.323 702.094 610.208 701.406 613.5 701.406ZM613.562 708.188C611.708 708.188 610.167 708.781 608.938 709.969C607.729 711.156 607.031 713.021 606.844 715.562H620.219C620.198 714.146 619.938 712.885 619.438 711.781C618.958 710.677 618.229 709.802 617.25 709.156C616.292 708.51 615.062 708.188 613.562 708.188ZM656.406 701.406C656.885 701.406 657.438 701.438 658.062 701.5C658.708 701.542 659.229 701.604 659.625 701.688L658.906 710.625C658.594 710.521 658.146 710.448 657.562 710.406C657 710.344 656.51 710.312 656.094 710.312C654.865 710.312 653.667 710.469 652.5 710.781C651.354 711.094 650.323 711.604 649.406 712.312C648.49 713 647.76 713.917 647.219 715.062C646.698 716.188 646.438 717.573 646.438 719.219V737H636.906V702.062H644.125L645.531 707.938H646C646.688 706.75 647.542 705.667 648.562 704.688C649.604 703.688 650.781 702.896 652.094 702.312C653.427 701.708 654.865 701.406 656.406 701.406ZM680.688 730.031C681.729 730.031 682.74 729.927 683.719 729.719C684.719 729.51 685.708 729.25 686.688 728.938V736.031C685.667 736.49 684.396 736.865 682.875 737.156C681.375 737.469 679.729 737.625 677.938 737.625C675.854 737.625 673.979 737.292 672.312 736.625C670.667 735.938 669.365 734.76 668.406 733.094C667.469 731.406 667 729.062 667 726.062V709.219H662.438V705.188L667.688 702L670.438 694.625H676.531V702.062H686.312V709.219H676.531V726.062C676.531 727.396 676.906 728.396 677.656 729.062C678.427 729.708 679.438 730.031 680.688 730.031ZM703.312 702.062V737H693.781V702.062H703.312ZM698.562 688.375C699.979 688.375 701.198 688.708 702.219 689.375C703.24 690.021 703.75 691.24 703.75 693.031C703.75 694.802 703.24 696.031 702.219 696.719C701.198 697.385 699.979 697.719 698.562 697.719C697.125 697.719 695.896 697.385 694.875 696.719C693.875 696.031 693.375 694.802 693.375 693.031C693.375 691.24 693.875 690.021 694.875 689.375C695.896 688.708 697.125 688.375 698.562 688.375ZM732.656 709.219H724.406V737H714.875V709.219H709.625V704.625L714.875 702.062V699.5C714.875 696.521 715.375 694.208 716.375 692.562C717.396 690.896 718.823 689.729 720.656 689.062C722.51 688.375 724.698 688.031 727.219 688.031C729.073 688.031 730.76 688.188 732.281 688.5C733.802 688.792 735.042 689.125 736 689.5L733.562 696.5C732.833 696.271 732.042 696.062 731.188 695.875C730.333 695.688 729.354 695.594 728.25 695.594C726.917 695.594 725.938 696 725.312 696.812C724.708 697.604 724.406 698.625 724.406 699.875V702.062H732.656V709.219ZM747.656 702.062V737H738.125V702.062H747.656ZM742.906 688.375C744.323 688.375 745.542 688.708 746.562 689.375C747.583 690.021 748.094 691.24 748.094 693.031C748.094 694.802 747.583 696.031 746.562 696.719C745.542 697.385 744.323 697.719 742.906 697.719C741.469 697.719 740.24 697.385 739.219 696.719C738.219 696.031 737.719 694.802 737.719 693.031C737.719 691.24 738.219 690.021 739.219 689.375C740.24 688.708 741.469 688.375 742.906 688.375ZM772.062 701.406C775.292 701.406 778.073 702.031 780.406 703.281C782.74 704.51 784.542 706.302 785.812 708.656C787.083 711.01 787.719 713.885 787.719 717.281V721.906H765.188C765.292 724.594 766.094 726.708 767.594 728.25C769.115 729.771 771.219 730.531 773.906 730.531C776.135 730.531 778.177 730.302 780.031 729.844C781.885 729.385 783.792 728.698 785.75 727.781V735.156C784.021 736.01 782.208 736.635 780.312 737.031C778.438 737.427 776.156 737.625 773.469 737.625C769.969 737.625 766.865 736.979 764.156 735.688C761.469 734.396 759.354 732.427 757.812 729.781C756.292 727.135 755.531 723.802 755.531 719.781C755.531 715.698 756.219 712.302 757.594 709.594C758.99 706.865 760.927 704.823 763.406 703.469C765.885 702.094 768.771 701.406 772.062 701.406ZM772.125 708.188C770.271 708.188 768.729 708.781 767.5 709.969C766.292 711.156 765.594 713.021 765.406 715.562H778.781C778.76 714.146 778.5 712.885 778 711.781C777.521 710.677 776.792 709.802 775.812 709.156C774.854 708.51 773.625 708.188 772.125 708.188ZM806.531 737.625C802.635 737.625 799.458 736.104 797 733.062C794.562 730 793.344 725.51 793.344 719.594C793.344 713.615 794.583 709.094 797.062 706.031C799.542 702.948 802.781 701.406 806.781 701.406C808.448 701.406 809.917 701.635 811.188 702.094C812.458 702.552 813.552 703.167 814.469 703.938C815.406 704.708 816.198 705.573 816.844 706.531H817.156C817.031 705.865 816.875 704.885 816.688 703.594C816.521 702.281 816.438 700.938 816.438 699.562V688.375H826V737H818.688L816.844 732.469H816.438C815.833 733.427 815.073 734.302 814.156 735.094C813.26 735.865 812.188 736.479 810.938 736.938C809.688 737.396 808.219 737.625 806.531 737.625ZM809.875 730.031C812.479 730.031 814.312 729.26 815.375 727.719C816.458 726.156 817.031 723.812 817.094 720.688V719.656C817.094 716.26 816.573 713.667 815.531 711.875C814.49 710.062 812.552 709.156 809.719 709.156C807.615 709.156 805.969 710.062 804.781 711.875C803.594 713.688 803 716.302 803 719.719C803 723.135 803.594 725.708 804.781 727.438C805.99 729.167 807.688 730.031 809.875 730.031ZM138.688 800.719C138.688 805.865 137.698 810.167 135.719 813.625C133.76 817.062 130.917 819.656 127.188 821.406C123.458 823.135 118.969 824 113.719 824H100.781V778.312H115.125C119.917 778.312 124.073 779.167 127.594 780.875C131.115 782.562 133.844 785.073 135.781 788.406C137.719 791.719 138.688 795.823 138.688 800.719ZM128.625 800.969C128.625 797.594 128.125 794.823 127.125 792.656C126.146 790.469 124.688 788.854 122.75 787.812C120.833 786.771 118.458 786.25 115.625 786.25H110.469V816H114.625C119.354 816 122.865 814.74 125.156 812.219C127.469 809.698 128.625 805.948 128.625 800.969ZM156.938 789.062V824H147.406V789.062H156.938ZM152.188 775.375C153.604 775.375 154.823 775.708 155.844 776.375C156.865 777.021 157.375 778.24 157.375 780.031C157.375 781.802 156.865 783.031 155.844 783.719C154.823 784.385 153.604 784.719 152.188 784.719C150.75 784.719 149.521 784.385 148.5 783.719C147.5 783.031 147 781.802 147 780.031C147 778.24 147.5 777.021 148.5 776.375C149.521 775.708 150.75 775.375 152.188 775.375ZM181.281 788.344C185.969 788.344 189.562 789.365 192.062 791.406C194.562 793.448 195.812 796.552 195.812 800.719V824H189.156L187.312 819.25H187.062C186.062 820.5 185.042 821.521 184 822.312C182.958 823.104 181.76 823.688 180.406 824.062C179.052 824.438 177.406 824.625 175.469 824.625C173.406 824.625 171.552 824.229 169.906 823.438C168.281 822.646 167 821.438 166.062 819.812C165.125 818.167 164.656 816.083 164.656 813.562C164.656 809.854 165.958 807.125 168.562 805.375C171.167 803.604 175.073 802.625 180.281 802.438L186.344 802.25V800.719C186.344 798.885 185.865 797.542 184.906 796.688C183.948 795.833 182.615 795.406 180.906 795.406C179.219 795.406 177.562 795.646 175.938 796.125C174.312 796.604 172.688 797.208 171.062 797.938L167.906 791.5C169.76 790.521 171.833 789.75 174.125 789.188C176.438 788.625 178.823 788.344 181.281 788.344ZM186.344 807.812L182.656 807.938C179.573 808.021 177.427 808.573 176.219 809.594C175.031 810.615 174.438 811.958 174.438 813.625C174.438 815.083 174.865 816.125 175.719 816.75C176.573 817.354 177.688 817.656 179.062 817.656C181.104 817.656 182.823 817.052 184.219 815.844C185.635 814.635 186.344 812.917 186.344 810.688V807.812ZM246.688 788.406C250.646 788.406 253.635 789.427 255.656 791.469C257.698 793.49 258.719 796.74 258.719 801.219V824H249.156V803.594C249.156 801.094 248.729 799.208 247.875 797.938C247.021 796.667 245.698 796.031 243.906 796.031C241.385 796.031 239.594 796.938 238.531 798.75C237.469 800.542 236.938 803.115 236.938 806.469V824H227.406V803.594C227.406 801.927 227.219 800.531 226.844 799.406C226.469 798.281 225.896 797.438 225.125 796.875C224.354 796.312 223.365 796.031 222.156 796.031C220.385 796.031 218.99 796.479 217.969 797.375C216.969 798.25 216.25 799.552 215.812 801.281C215.396 802.99 215.188 805.083 215.188 807.562V824H205.656V789.062H212.938L214.219 793.531H214.75C215.458 792.323 216.344 791.344 217.406 790.594C218.49 789.844 219.677 789.292 220.969 788.938C222.26 788.583 223.573 788.406 224.906 788.406C227.469 788.406 229.635 788.823 231.406 789.656C233.198 790.49 234.573 791.781 235.531 793.531H236.375C237.417 791.74 238.885 790.438 240.781 789.625C242.698 788.812 244.667 788.406 246.688 788.406ZM300.281 806.469C300.281 809.385 299.885 811.969 299.094 814.219C298.323 816.469 297.188 818.375 295.688 819.938C294.208 821.479 292.417 822.646 290.312 823.438C288.229 824.229 285.875 824.625 283.25 824.625C280.792 824.625 278.531 824.229 276.469 823.438C274.427 822.646 272.646 821.479 271.125 819.938C269.625 818.375 268.458 816.469 267.625 814.219C266.812 811.969 266.406 809.385 266.406 806.469C266.406 802.594 267.094 799.312 268.469 796.625C269.844 793.938 271.802 791.896 274.344 790.5C276.885 789.104 279.917 788.406 283.438 788.406C286.708 788.406 289.604 789.104 292.125 790.5C294.667 791.896 296.656 793.938 298.094 796.625C299.552 799.312 300.281 802.594 300.281 806.469ZM276.125 806.469C276.125 808.76 276.375 810.688 276.875 812.25C277.375 813.812 278.156 814.99 279.219 815.781C280.281 816.573 281.667 816.969 283.375 816.969C285.062 816.969 286.427 816.573 287.469 815.781C288.531 814.99 289.302 813.812 289.781 812.25C290.281 810.688 290.531 808.76 290.531 806.469C290.531 804.156 290.281 802.24 289.781 800.719C289.302 799.177 288.531 798.021 287.469 797.25C286.406 796.479 285.021 796.094 283.312 796.094C280.792 796.094 278.958 796.958 277.812 798.688C276.688 800.417 276.125 803.01 276.125 806.469ZM328 788.406C331.729 788.406 334.729 789.427 337 791.469C339.271 793.49 340.406 796.74 340.406 801.219V824H330.875V803.594C330.875 801.094 330.417 799.208 329.5 797.938C328.604 796.667 327.188 796.031 325.25 796.031C322.333 796.031 320.344 797.021 319.281 799C318.219 800.979 317.688 803.833 317.688 807.562V824H308.156V789.062H315.438L316.719 793.531H317.25C318 792.323 318.927 791.344 320.031 790.594C321.156 789.844 322.396 789.292 323.75 788.938C325.125 788.583 326.542 788.406 328 788.406ZM361.281 824.625C357.385 824.625 354.208 823.104 351.75 820.062C349.312 817 348.094 812.51 348.094 806.594C348.094 800.615 349.333 796.094 351.812 793.031C354.292 789.948 357.531 788.406 361.531 788.406C363.198 788.406 364.667 788.635 365.938 789.094C367.208 789.552 368.302 790.167 369.219 790.938C370.156 791.708 370.948 792.573 371.594 793.531H371.906C371.781 792.865 371.625 791.885 371.438 790.594C371.271 789.281 371.188 787.938 371.188 786.562V775.375H380.75V824H373.438L371.594 819.469H371.188C370.583 820.427 369.823 821.302 368.906 822.094C368.01 822.865 366.938 823.479 365.688 823.938C364.438 824.396 362.969 824.625 361.281 824.625ZM364.625 817.031C367.229 817.031 369.062 816.26 370.125 814.719C371.208 813.156 371.781 810.812 371.844 807.688V806.656C371.844 803.26 371.323 800.667 370.281 798.875C369.24 797.062 367.302 796.156 364.469 796.156C362.365 796.156 360.719 797.062 359.531 798.875C358.344 800.688 357.75 803.302 357.75 806.719C357.75 810.135 358.344 812.708 359.531 814.438C360.74 816.167 362.438 817.031 364.625 817.031ZM415.094 813.625C415.094 816 414.531 818.01 413.406 819.656C412.302 821.281 410.646 822.521 408.438 823.375C406.229 824.208 403.479 824.625 400.188 824.625C397.75 824.625 395.656 824.469 393.906 824.156C392.177 823.844 390.427 823.323 388.656 822.594V814.719C390.552 815.573 392.583 816.281 394.75 816.844C396.938 817.385 398.854 817.656 400.5 817.656C402.354 817.656 403.677 817.385 404.469 816.844C405.281 816.281 405.688 815.552 405.688 814.656C405.688 814.073 405.521 813.552 405.188 813.094C404.875 812.615 404.188 812.083 403.125 811.5C402.062 810.896 400.396 810.115 398.125 809.156C395.938 808.24 394.135 807.312 392.719 806.375C391.323 805.438 390.281 804.333 389.594 803.062C388.927 801.771 388.594 800.135 388.594 798.156C388.594 794.927 389.844 792.5 392.344 790.875C394.865 789.229 398.229 788.406 402.438 788.406C404.604 788.406 406.667 788.625 408.625 789.062C410.604 789.5 412.635 790.198 414.719 791.156L411.844 798.031C410.115 797.281 408.479 796.667 406.938 796.188C405.417 795.708 403.865 795.469 402.281 795.469C400.885 795.469 399.833 795.656 399.125 796.031C398.417 796.406 398.062 796.979 398.062 797.75C398.062 798.312 398.24 798.812 398.594 799.25C398.969 799.688 399.677 800.177 400.719 800.719C401.781 801.24 403.333 801.917 405.375 802.75C407.354 803.562 409.073 804.417 410.531 805.312C411.99 806.188 413.115 807.281 413.906 808.594C414.698 809.885 415.094 811.562 415.094 813.625ZM454 777.656C456.458 777.656 458.646 778.042 460.562 778.812C462.479 779.583 463.99 780.708 465.094 782.188C466.219 783.667 466.781 785.469 466.781 787.594C466.781 790.531 465.906 793 464.156 795C462.427 797 460.26 798.75 457.656 800.25L466.531 808.906C467.406 807.469 468.146 805.948 468.75 804.344C469.375 802.74 469.917 801.125 470.375 799.5H480.312C479.667 801.896 478.719 804.458 477.469 807.188C476.24 809.896 474.667 812.448 472.75 814.844L482.156 824H470.375L466.781 820.469C465.552 821.323 464.229 822.062 462.812 822.688C461.417 823.312 459.917 823.792 458.312 824.125C456.729 824.458 455.052 824.625 453.281 824.625C449.823 824.625 446.854 824.083 444.375 823C441.896 821.917 440 820.406 438.688 818.469C437.375 816.51 436.719 814.24 436.719 811.656C436.719 809.49 437.052 807.635 437.719 806.094C438.385 804.531 439.344 803.167 440.594 802C441.844 800.812 443.344 799.719 445.094 798.719C443.99 797.427 443.104 796.219 442.438 795.094C441.792 793.969 441.323 792.854 441.031 791.75C440.76 790.625 440.625 789.448 440.625 788.219C440.625 786.052 441.188 784.188 442.312 782.625C443.458 781.042 445.031 779.823 447.031 778.969C449.052 778.094 451.375 777.656 454 777.656ZM450.656 804.406C449.865 805.01 449.167 805.635 448.562 806.281C447.979 806.927 447.531 807.615 447.219 808.344C446.906 809.073 446.75 809.875 446.75 810.75C446.75 812.583 447.438 814.021 448.812 815.062C450.188 816.104 451.896 816.625 453.938 816.625C455.312 816.625 456.594 816.458 457.781 816.125C458.969 815.792 460.052 815.323 461.031 814.719L450.656 804.406ZM453.938 785.031C452.875 785.031 451.854 785.302 450.875 785.844C449.917 786.385 449.438 787.396 449.438 788.875C449.438 789.917 449.708 790.938 450.25 791.938C450.792 792.917 451.51 793.917 452.406 794.938C454.198 793.958 455.573 792.979 456.531 792C457.49 791 457.969 789.865 457.969 788.594C457.969 787.323 457.531 786.417 456.656 785.875C455.802 785.312 454.896 785.031 453.938 785.031ZM521.875 798.344H540V822.031C537.604 822.823 535.115 823.458 532.531 823.938C529.948 824.396 527.021 824.625 523.75 824.625C519.208 824.625 515.354 823.729 512.188 821.938C509.021 820.146 506.615 817.5 504.969 814C503.323 810.5 502.5 806.198 502.5 801.094C502.5 796.302 503.417 792.156 505.25 788.656C507.104 785.156 509.802 782.448 513.344 780.531C516.906 778.615 521.25 777.656 526.375 777.656C528.792 777.656 531.177 777.917 533.531 778.438C535.885 778.958 538.021 779.635 539.938 780.469L536.719 788.219C535.323 787.51 533.729 786.917 531.938 786.438C530.146 785.958 528.271 785.719 526.312 785.719C523.5 785.719 521.052 786.365 518.969 787.656C516.906 788.948 515.302 790.76 514.156 793.094C513.031 795.406 512.469 798.135 512.469 801.281C512.469 804.26 512.875 806.906 513.688 809.219C514.5 811.51 515.781 813.312 517.531 814.625C519.281 815.917 521.562 816.562 524.375 816.562C525.75 816.562 526.906 816.5 527.844 816.375C528.802 816.229 529.698 816.083 530.531 815.938V806.406H521.875V798.344ZM564.562 788.406C567.792 788.406 570.573 789.031 572.906 790.281C575.24 791.51 577.042 793.302 578.312 795.656C579.583 798.01 580.219 800.885 580.219 804.281V808.906H557.688C557.792 811.594 558.594 813.708 560.094 815.25C561.615 816.771 563.719 817.531 566.406 817.531C568.635 817.531 570.677 817.302 572.531 816.844C574.385 816.385 576.292 815.698 578.25 814.781V822.156C576.521 823.01 574.708 823.635 572.812 824.031C570.938 824.427 568.656 824.625 565.969 824.625C562.469 824.625 559.365 823.979 556.656 822.688C553.969 821.396 551.854 819.427 550.312 816.781C548.792 814.135 548.031 810.802 548.031 806.781C548.031 802.698 548.719 799.302 550.094 796.594C551.49 793.865 553.427 791.823 555.906 790.469C558.385 789.094 561.271 788.406 564.562 788.406ZM564.625 795.188C562.771 795.188 561.229 795.781 560 796.969C558.792 798.156 558.094 800.021 557.906 802.562H571.281C571.26 801.146 571 799.885 570.5 798.781C570.021 797.677 569.292 796.802 568.312 796.156C567.354 795.51 566.125 795.188 564.625 795.188ZM629 788.406C632.958 788.406 635.948 789.427 637.969 791.469C640.01 793.49 641.031 796.74 641.031 801.219V824H631.469V803.594C631.469 801.094 631.042 799.208 630.188 797.938C629.333 796.667 628.01 796.031 626.219 796.031C623.698 796.031 621.906 796.938 620.844 798.75C619.781 800.542 619.25 803.115 619.25 806.469V824H609.719V803.594C609.719 801.927 609.531 800.531 609.156 799.406C608.781 798.281 608.208 797.438 607.438 796.875C606.667 796.312 605.677 796.031 604.469 796.031C602.698 796.031 601.302 796.479 600.281 797.375C599.281 798.25 598.562 799.552 598.125 801.281C597.708 802.99 597.5 805.083 597.5 807.562V824H587.969V789.062H595.25L596.531 793.531H597.062C597.771 792.323 598.656 791.344 599.719 790.594C600.802 789.844 601.99 789.292 603.281 788.938C604.573 788.583 605.885 788.406 607.219 788.406C609.781 788.406 611.948 788.823 613.719 789.656C615.51 790.49 616.885 791.781 617.844 793.531H618.688C619.729 791.74 621.198 790.438 623.094 789.625C625.01 788.812 626.979 788.406 629 788.406ZM675.219 813.625C675.219 816 674.656 818.01 673.531 819.656C672.427 821.281 670.771 822.521 668.562 823.375C666.354 824.208 663.604 824.625 660.312 824.625C657.875 824.625 655.781 824.469 654.031 824.156C652.302 823.844 650.552 823.323 648.781 822.594V814.719C650.677 815.573 652.708 816.281 654.875 816.844C657.062 817.385 658.979 817.656 660.625 817.656C662.479 817.656 663.802 817.385 664.594 816.844C665.406 816.281 665.812 815.552 665.812 814.656C665.812 814.073 665.646 813.552 665.312 813.094C665 812.615 664.312 812.083 663.25 811.5C662.188 810.896 660.521 810.115 658.25 809.156C656.062 808.24 654.26 807.312 652.844 806.375C651.448 805.438 650.406 804.333 649.719 803.062C649.052 801.771 648.719 800.135 648.719 798.156C648.719 794.927 649.969 792.5 652.469 790.875C654.99 789.229 658.354 788.406 662.562 788.406C664.729 788.406 666.792 788.625 668.75 789.062C670.729 789.5 672.76 790.198 674.844 791.156L671.969 798.031C670.24 797.281 668.604 796.667 667.062 796.188C665.542 795.708 663.99 795.469 662.406 795.469C661.01 795.469 659.958 795.656 659.25 796.031C658.542 796.406 658.188 796.979 658.188 797.75C658.188 798.312 658.365 798.812 658.719 799.25C659.094 799.688 659.802 800.177 660.844 800.719C661.906 801.24 663.458 801.917 665.5 802.75C667.479 803.562 669.198 804.417 670.656 805.312C672.115 806.188 673.24 807.281 674.031 808.594C674.823 809.885 675.219 811.562 675.219 813.625ZM697.375 817.031C698.417 817.031 699.427 816.927 700.406 816.719C701.406 816.51 702.396 816.25 703.375 815.938V823.031C702.354 823.49 701.083 823.865 699.562 824.156C698.062 824.469 696.417 824.625 694.625 824.625C692.542 824.625 690.667 824.292 689 823.625C687.354 822.938 686.052 821.76 685.094 820.094C684.156 818.406 683.688 816.062 683.688 813.062V796.219H679.125V792.188L684.375 789L687.125 781.625H693.219V789.062H703V796.219H693.219V813.062C693.219 814.396 693.594 815.396 694.344 816.062C695.115 816.708 696.125 817.031 697.375 817.031ZM742.219 806.469C742.219 809.385 741.823 811.969 741.031 814.219C740.26 816.469 739.125 818.375 737.625 819.938C736.146 821.479 734.354 822.646 732.25 823.438C730.167 824.229 727.812 824.625 725.188 824.625C722.729 824.625 720.469 824.229 718.406 823.438C716.365 822.646 714.583 821.479 713.062 819.938C711.562 818.375 710.396 816.469 709.562 814.219C708.75 811.969 708.344 809.385 708.344 806.469C708.344 802.594 709.031 799.312 710.406 796.625C711.781 793.938 713.74 791.896 716.281 790.5C718.823 789.104 721.854 788.406 725.375 788.406C728.646 788.406 731.542 789.104 734.062 790.5C736.604 791.896 738.594 793.938 740.031 796.625C741.49 799.312 742.219 802.594 742.219 806.469ZM718.062 806.469C718.062 808.76 718.312 810.688 718.812 812.25C719.312 813.812 720.094 814.99 721.156 815.781C722.219 816.573 723.604 816.969 725.312 816.969C727 816.969 728.365 816.573 729.406 815.781C730.469 814.99 731.24 813.812 731.719 812.25C732.219 810.688 732.469 808.76 732.469 806.469C732.469 804.156 732.219 802.24 731.719 800.719C731.24 799.177 730.469 798.021 729.406 797.25C728.344 796.479 726.958 796.094 725.25 796.094C722.729 796.094 720.896 796.958 719.75 798.688C718.625 800.417 718.062 803.01 718.062 806.469ZM769.938 788.406C773.667 788.406 776.667 789.427 778.938 791.469C781.208 793.49 782.344 796.74 782.344 801.219V824H772.812V803.594C772.812 801.094 772.354 799.208 771.438 797.938C770.542 796.667 769.125 796.031 767.188 796.031C764.271 796.031 762.281 797.021 761.219 799C760.156 800.979 759.625 803.833 759.625 807.562V824H750.094V789.062H757.375L758.656 793.531H759.188C759.938 792.323 760.865 791.344 761.969 790.594C763.094 789.844 764.333 789.292 765.688 788.938C767.062 788.583 768.479 788.406 769.938 788.406ZM806.562 788.406C809.792 788.406 812.573 789.031 814.906 790.281C817.24 791.51 819.042 793.302 820.312 795.656C821.583 798.01 822.219 800.885 822.219 804.281V808.906H799.688C799.792 811.594 800.594 813.708 802.094 815.25C803.615 816.771 805.719 817.531 808.406 817.531C810.635 817.531 812.677 817.302 814.531 816.844C816.385 816.385 818.292 815.698 820.25 814.781V822.156C818.521 823.01 816.708 823.635 814.812 824.031C812.938 824.427 810.656 824.625 807.969 824.625C804.469 824.625 801.365 823.979 798.656 822.688C795.969 821.396 793.854 819.427 792.312 816.781C790.792 814.135 790.031 810.802 790.031 806.781C790.031 802.698 790.719 799.302 792.094 796.594C793.49 793.865 795.427 791.823 797.906 790.469C800.385 789.094 803.271 788.406 806.562 788.406ZM806.625 795.188C804.771 795.188 803.229 795.781 802 796.969C800.792 798.156 800.094 800.021 799.906 802.562H813.281C813.26 801.146 813 799.885 812.5 798.781C812.021 797.677 811.292 796.802 810.312 796.156C809.354 795.51 808.125 795.188 806.625 795.188Z" fill="#9E651E"/>
<mask id="mask0_1771_44" style="mask-type:luminance" maskUnits="userSpaceOnUse" x="259" y="143" width="404" height="482">
<path d="M259 143H662.508V624.135H259V143Z" fill="white"/>
</mask>
<g mask="url(#mask0_1771_44)">
<path fill-rule="evenodd" clip-rule="evenodd" d="M486.288 152.282L511.849 171.414C518.838 176.646 526.197 179.327 534.914 179.812L566.79 181.583C585.88 182.646 601.379 195.653 605.742 214.267L613.022 245.352C615.014 253.852 618.929 260.633 625.294 266.61L648.577 288.46C662.513 301.541 666.031 321.472 657.405 338.533L643.002 367.025C639.064 374.818 637.701 382.528 638.741 391.2L642.526 422.899C644.796 441.883 634.678 459.406 617.104 466.936L587.757 479.504C579.728 482.943 573.733 487.972 568.953 495.28L551.476 522.001C541.016 537.999 522 544.923 503.7 539.391L473.137 530.155C464.78 527.627 456.95 527.627 448.593 530.155L418.03 539.391C399.731 544.923 380.714 537.999 370.25 522.001L352.777 495.28C347.998 487.972 341.998 482.943 333.969 479.504L304.622 466.931C287.053 459.406 276.93 441.883 279.199 422.899L282.99 391.2C284.025 382.528 282.666 374.818 278.728 367.025L264.325 338.533C255.7 321.472 259.213 301.541 273.153 288.46L296.431 266.61C302.801 260.633 306.716 253.852 308.704 245.352L315.988 214.267C320.347 195.653 335.85 182.646 354.936 181.583L386.816 179.808C395.534 179.322 402.892 176.646 409.881 171.414L435.443 152.282C450.747 140.828 470.983 140.828 486.288 152.282ZM444.562 353.431L416.824 325.692C409.632 318.505 397.974 318.505 390.782 325.692C383.594 332.885 383.594 344.542 390.782 351.734L431.583 392.531C438.771 399.718 450.433 399.718 457.62 392.531C482.211 367.935 506.524 343.072 530.999 318.366C538.136 311.164 538.113 299.539 530.916 292.384C523.724 285.229 512.066 285.252 504.92 292.467L444.562 353.431ZM460.865 204.278C422.703 204.278 388.152 219.749 363.14 244.756C338.129 269.767 322.663 304.319 322.663 342.48C322.663 380.642 338.129 415.194 363.14 440.205C388.152 465.212 422.703 480.683 460.865 480.683C499.027 480.683 533.579 465.212 558.59 440.205C583.597 415.194 599.067 380.642 599.067 342.48C599.067 304.319 583.597 269.767 558.59 244.756C533.579 219.749 499.027 204.278 460.865 204.278ZM547.566 255.78C525.379 233.588 494.724 219.865 460.865 219.865C427.002 219.865 396.352 233.588 374.16 255.78C351.973 277.967 338.249 308.622 338.249 342.48C338.249 376.343 351.973 406.994 374.16 429.186C396.352 451.373 427.002 465.096 460.865 465.096C494.724 465.096 525.379 451.373 547.566 429.186C569.757 406.994 583.481 376.343 583.481 342.48C583.481 308.622 569.757 277.967 547.566 255.78ZM512.797 556.743L543.087 621.806C543.558 622.818 544.487 623.438 545.606 623.489C546.72 623.54 547.704 623.003 548.264 622.037L570.857 583.159L615.153 590.901C616.253 591.091 617.293 590.684 617.973 589.797C618.652 588.914 618.777 587.8 618.305 586.788L580.638 505.888L564.525 530.53C552.891 548.316 533.19 557.949 512.797 556.743ZM410.103 556.659C389.293 558.31 369.062 548.658 357.205 530.53L341.748 506.896L304.557 586.788C304.086 587.8 304.206 588.914 304.886 589.797C305.565 590.684 306.61 591.091 307.71 590.901L352.005 583.159L374.599 622.037C375.158 623.003 376.143 623.54 377.257 623.489C378.376 623.438 379.305 622.818 379.776 621.802L410.103 556.659Z" fill="#9E651E"/>
</g>
</svg>
