<svg xmlns="http://www.w3.org/2000/svg" xmlns:xlink="http://www.w3.org/1999/xlink" width="1080" zoomAndPan="magnify" viewBox="0 0 810 809.999993" height="1080" preserveAspectRatio="xMidYMid meet" version="1.0"><metadata><ContainsAiGeneratedContent>Yes</ContainsAiGeneratedContent></metadata><defs><g/><clipPath id="e89dea6035"><path d="M 61.015625 66.820312 L 755.867188 66.820312 L 755.867188 743.179688 L 61.015625 743.179688 Z M 61.015625 66.820312 " clip-rule="nonzero"/></clipPath><clipPath id="de106736ee"><path d="M 85.90625 66.820312 L 731.289062 66.820312 C 737.890625 66.820312 744.21875 69.441406 748.886719 74.109375 C 753.554688 78.777344 756.179688 85.109375 756.179688 91.710938 L 756.179688 718.289062 C 756.179688 724.890625 753.554688 731.222656 748.886719 735.890625 C 744.21875 740.558594 737.890625 743.179688 731.289062 743.179688 L 85.90625 743.179688 C 79.304688 743.179688 72.972656 740.558594 68.304688 735.890625 C 63.636719 731.222656 61.015625 724.890625 61.015625 718.289062 L 61.015625 91.710938 C 61.015625 85.109375 63.636719 78.777344 68.304688 74.109375 C 72.972656 69.441406 79.304688 66.820312 85.90625 66.820312 Z M 85.90625 66.820312 " clip-rule="nonzero"/></clipPath><radialGradient gradientTransform="matrix(1, 0, 0, 1, 61.005855, 66.820629)" gradientUnits="userSpaceOnUse" r="484.951896" cx="347.579743" id="fd361f1be2" cy="338.179415" fx="347.579743" fy="338.179415"><stop stop-opacity="1" stop-color="rgb(100%, 99.957275%, 99.833679%)" offset="0"/><stop stop-opacity="1" stop-color="rgb(100%, 99.87793%, 99.5224%)" offset="0.03125"/><stop stop-opacity="1" stop-color="rgb(100%, 99.803162%, 99.232483%)" offset="0.0585938"/><stop stop-opacity="1" stop-color="rgb(100%, 99.729919%, 98.944092%)" offset="0.0859375"/><stop stop-opacity="1" stop-color="rgb(100%, 99.656677%, 98.654175%)" offset="0.113281"/><stop stop-opacity="1" stop-color="rgb(100%, 99.588013%, 98.384094%)" offset="0.140625"/><stop stop-opacity="1" stop-color="rgb(100%, 99.523926%, 98.135376%)" offset="0.164062"/><stop stop-opacity="1" stop-color="rgb(100%, 99.461365%, 97.886658%)" offset="0.1875"/><stop stop-opacity="1" stop-color="rgb(100%, 99.397278%, 97.637939%)" offset="0.210938"/><stop stop-opacity="1" stop-color="rgb(100%, 99.334717%, 97.390747%)" offset="0.234375"/><stop stop-opacity="1" stop-color="rgb(100%, 99.276733%, 97.163391%)" offset="0.257812"/><stop stop-opacity="1" stop-color="rgb(100%, 99.223328%, 96.955872%)" offset="0.277344"/><stop stop-opacity="1" stop-color="rgb(100%, 99.171448%, 96.748352%)" offset="0.296875"/><stop stop-opacity="1" stop-color="rgb(100%, 99.118042%, 96.540833%)" offset="0.316406"/><stop stop-opacity="1" stop-color="rgb(100%, 99.066162%, 96.334839%)" offset="0.335938"/><stop stop-opacity="1" stop-color="rgb(100%, 99.012756%, 96.127319%)" offset="0.355469"/><stop stop-opacity="1" stop-color="rgb(100%, 98.959351%, 95.9198%)" offset="0.375"/><stop stop-opacity="1" stop-color="rgb(100%, 98.886108%, 95.631409%)" offset="0.394531"/><stop stop-opacity="1" stop-color="rgb(100%, 98.791504%, 95.257568%)" offset="0.429688"/><stop stop-opacity="1" stop-color="rgb(100%, 98.701477%, 94.90509%)" offset="0.464844"/><stop stop-opacity="1" stop-color="rgb(100%, 98.617554%, 94.573975%)" offset="0.496094"/><stop stop-opacity="1" stop-color="rgb(100%, 98.538208%, 94.264221%)" offset="0.527344"/><stop stop-opacity="1" stop-color="rgb(100%, 98.464966%, 93.974304%)" offset="0.554688"/><stop stop-opacity="1" stop-color="rgb(100%, 98.396301%, 93.704224%)" offset="0.582031"/><stop stop-opacity="1" stop-color="rgb(100%, 98.332214%, 93.457031%)" offset="0.605469"/><stop stop-opacity="1" stop-color="rgb(100%, 98.274231%, 93.229675%)" offset="0.628906"/><stop stop-opacity="1" stop-color="rgb(100%, 98.222351%, 93.022156%)" offset="0.648438"/><stop stop-opacity="1" stop-color="rgb(100%, 98.168945%, 92.814636%)" offset="0.667969"/><stop stop-opacity="1" stop-color="rgb(100%, 98.11554%, 92.608643%)" offset="0.6875"/><stop stop-opacity="1" stop-color="rgb(100%, 98.042297%, 92.318726%)" offset="0.707031"/><stop stop-opacity="1" stop-color="rgb(100%, 97.952271%, 91.966248%)" offset="0.742188"/><stop stop-opacity="1" stop-color="rgb(100%, 97.874451%, 91.656494%)" offset="0.773438"/><stop stop-opacity="1" stop-color="rgb(100%, 97.805786%, 91.386414%)" offset="0.800781"/><stop stop-opacity="1" stop-color="rgb(100%, 97.747803%, 91.159058%)" offset="0.824219"/><stop stop-opacity="1" stop-color="rgb(100%, 97.694397%, 90.951538%)" offset="0.84375"/><stop stop-opacity="1" stop-color="rgb(100%, 97.625732%, 90.681458%)" offset="0.863281"/><stop stop-opacity="1" stop-color="rgb(100%, 97.55249%, 90.393066%)" offset="0.894531"/><stop stop-opacity="1" stop-color="rgb(100%, 97.494507%, 90.16571%)" offset="0.917969"/><stop stop-opacity="1" stop-color="rgb(100%, 97.425842%, 89.89563%)" offset="0.9375"/><stop stop-opacity="1" stop-color="rgb(100%, 97.340393%, 89.564514%)" offset="0.96875"/><stop stop-opacity="1" stop-color="rgb(100%, 97.299194%, 89.399719%)" offset="1"/></radialGradient><clipPath id="cd1c2f5981"><path d="M 61.019531 66.820312 L 756.265625 66.820312 L 756.265625 743.320312 L 61.019531 743.320312 Z M 61.019531 66.820312 " clip-rule="nonzero"/></clipPath><clipPath id="9558101e65"><path d="M 85.910156 66.820312 L 731.277344 66.820312 C 737.878906 66.820312 744.210938 69.441406 748.878906 74.109375 C 753.546875 78.777344 756.167969 85.109375 756.167969 91.710938 L 756.167969 718.277344 C 756.167969 724.878906 753.546875 731.210938 748.878906 735.878906 C 744.210938 740.546875 737.878906 743.167969 731.277344 743.167969 L 85.910156 743.167969 C 79.308594 743.167969 72.976562 740.546875 68.308594 735.878906 C 63.640625 731.210938 61.019531 724.878906 61.019531 718.277344 L 61.019531 91.710938 C 61.019531 85.109375 63.640625 78.777344 68.308594 74.109375 C 72.976562 69.441406 79.308594 66.820312 85.910156 66.820312 Z M 85.910156 66.820312 " clip-rule="nonzero"/></clipPath><clipPath id="7151637bbe"><path d="M 256 261 L 566 261 L 566 500.910156 L 256 500.910156 Z M 256 261 " clip-rule="nonzero"/></clipPath></defs><g clip-path="url(#e89dea6035)"><g clip-path="url(#de106736ee)"><path fill="url(#fd361f1be2)" d="M 61.015625 66.820312 L 61.015625 743.179688 L 755.867188 743.179688 L 755.867188 66.820312 Z M 61.015625 66.820312 " fill-rule="nonzero"/></g></g><g clip-path="url(#cd1c2f5981)"><g clip-path="url(#9558101e65)"><path stroke-linecap="butt" transform="matrix(0.75, 0, 0, 0.75, 61.018784, 66.820622)" fill="none" stroke-linejoin="miter" d="M 33.188496 -0.000412984 L 893.678068 -0.000412984 C 902.480151 -0.000412984 910.922859 3.494379 917.146818 9.718337 C 923.370776 15.942295 926.865567 24.385003 926.865567 33.187087 L 926.865567 868.60895 C 926.865567 877.411033 923.370776 885.853742 917.146818 892.0777 C 910.922859 898.301658 902.480151 901.79645 893.678068 901.79645 L 33.188496 901.79645 C 24.386413 901.79645 15.943705 898.301658 9.719747 892.0777 C 3.495788 885.853742 0.000996826 877.411033 0.000996826 868.60895 L 0.000996826 33.187087 C 0.000996826 24.385003 3.495788 15.942295 9.719747 9.718337 C 15.943705 3.494379 24.386413 -0.000412984 33.188496 -0.000412984 Z M 33.188496 -0.000412984 " stroke="#e4b974" stroke-width="8" stroke-opacity="1" stroke-miterlimit="4"/></g></g><g fill="#9e651e" fill-opacity="1"><g transform="translate(188.930545, 638.122675)"><g><path d="M 18.671875 0 L 11.859375 0 L 11.859375 -18.671875 C 11.859375 -19.179688 11.863281 -19.816406 11.875 -20.578125 C 11.882812 -21.335938 11.90625 -22.117188 11.9375 -22.921875 C 11.96875 -23.722656 12 -24.445312 12.03125 -25.09375 C 11.863281 -24.90625 11.535156 -24.578125 11.046875 -24.109375 C 10.554688 -23.648438 10.097656 -23.234375 9.671875 -22.859375 L 5.953125 -19.890625 L 2.671875 -23.984375 L 13.0625 -32.265625 L 18.671875 -32.265625 Z M 18.671875 0 "/></g></g></g><g fill="#9e651e" fill-opacity="1"><g transform="translate(214.777114, 638.122675)"><g><path d="M 13.546875 -20.609375 C 15.523438 -20.609375 17.28125 -20.234375 18.8125 -19.484375 C 20.351562 -18.734375 21.5625 -17.628906 22.4375 -16.171875 C 23.320312 -14.722656 23.765625 -12.929688 23.765625 -10.796875 C 23.765625 -8.472656 23.28125 -6.46875 22.3125 -4.78125 C 21.351562 -3.09375 19.921875 -1.800781 18.015625 -0.90625 C 16.109375 -0.0078125 13.738281 0.4375 10.90625 0.4375 C 9.207031 0.4375 7.613281 0.289062 6.125 0 C 4.632812 -0.28125 3.328125 -0.710938 2.203125 -1.296875 L 2.203125 -7.203125 C 3.328125 -6.609375 4.671875 -6.109375 6.234375 -5.703125 C 7.804688 -5.296875 9.28125 -5.09375 10.65625 -5.09375 C 12.007812 -5.09375 13.148438 -5.273438 14.078125 -5.640625 C 15.003906 -6.003906 15.707031 -6.5625 16.1875 -7.3125 C 16.664062 -8.070312 16.90625 -9.039062 16.90625 -10.21875 C 16.90625 -11.789062 16.375 -12.992188 15.3125 -13.828125 C 14.257812 -14.671875 12.632812 -15.09375 10.4375 -15.09375 C 9.601562 -15.09375 8.734375 -15.007812 7.828125 -14.84375 C 6.921875 -14.6875 6.164062 -14.53125 5.5625 -14.375 L 2.84375 -15.828125 L 4.0625 -32.265625 L 21.5625 -32.265625 L 21.5625 -26.484375 L 10.046875 -26.484375 L 9.453125 -20.15625 C 9.953125 -20.257812 10.492188 -20.359375 11.078125 -20.453125 C 11.671875 -20.554688 12.492188 -20.609375 13.546875 -20.609375 Z M 13.546875 -20.609375 "/></g></g></g><g fill="#9e651e" fill-opacity="1"><g transform="translate(240.623684, 638.122675)"><g/></g></g><g fill="#9e651e" fill-opacity="1"><g transform="translate(252.366102, 638.122675)"><g><path d="M 30.828125 -16.4375 C 30.828125 -12.800781 30.128906 -9.765625 28.734375 -7.328125 C 27.347656 -4.898438 25.335938 -3.070312 22.703125 -1.84375 C 20.078125 -0.613281 16.910156 0 13.203125 0 L 4.0625 0 L 4.0625 -32.265625 L 14.1875 -32.265625 C 17.570312 -32.265625 20.507812 -31.664062 23 -30.46875 C 25.488281 -29.269531 27.414062 -27.492188 28.78125 -25.140625 C 30.144531 -22.796875 30.828125 -19.894531 30.828125 -16.4375 Z M 23.734375 -16.265625 C 23.734375 -18.648438 23.378906 -20.609375 22.671875 -22.140625 C 21.972656 -23.679688 20.941406 -24.816406 19.578125 -25.546875 C 18.222656 -26.285156 16.546875 -26.65625 14.546875 -26.65625 L 10.90625 -26.65625 L 10.90625 -5.65625 L 13.84375 -5.65625 C 17.175781 -5.65625 19.65625 -6.539062 21.28125 -8.3125 C 22.914062 -10.09375 23.734375 -12.742188 23.734375 -16.265625 Z M 23.734375 -16.265625 "/></g></g></g><g fill="#9e651e" fill-opacity="1"><g transform="translate(285.827581, 638.122675)"><g><path d="M 13.640625 -25.1875 C 16.953125 -25.1875 19.488281 -24.460938 21.25 -23.015625 C 23.019531 -21.578125 23.90625 -19.382812 23.90625 -16.4375 L 23.90625 0 L 19.203125 0 L 17.90625 -3.359375 L 17.71875 -3.359375 C 17.019531 -2.472656 16.300781 -1.75 15.5625 -1.1875 C 14.820312 -0.632812 13.972656 -0.226562 13.015625 0.03125 C 12.066406 0.300781 10.90625 0.4375 9.53125 0.4375 C 8.070312 0.4375 6.765625 0.160156 5.609375 -0.390625 C 4.460938 -0.953125 3.554688 -1.8125 2.890625 -2.96875 C 2.222656 -4.125 1.890625 -5.59375 1.890625 -7.375 C 1.890625 -9.988281 2.8125 -11.914062 4.65625 -13.15625 C 6.5 -14.40625 9.257812 -15.097656 12.9375 -15.234375 L 17.21875 -15.359375 L 17.21875 -16.4375 C 17.21875 -17.738281 16.878906 -18.691406 16.203125 -19.296875 C 15.523438 -19.898438 14.582031 -20.203125 13.375 -20.203125 C 12.1875 -20.203125 11.015625 -20.03125 9.859375 -19.6875 C 8.710938 -19.351562 7.566406 -18.925781 6.421875 -18.40625 L 4.1875 -22.953125 C 5.5 -23.640625 6.96875 -24.179688 8.59375 -24.578125 C 10.21875 -24.984375 11.898438 -25.1875 13.640625 -25.1875 Z M 17.21875 -11.4375 L 14.609375 -11.34375 C 12.429688 -11.28125 10.921875 -10.890625 10.078125 -10.171875 C 9.234375 -9.453125 8.8125 -8.503906 8.8125 -7.328125 C 8.8125 -6.296875 9.109375 -5.5625 9.703125 -5.125 C 10.304688 -4.695312 11.097656 -4.484375 12.078125 -4.484375 C 13.515625 -4.484375 14.726562 -4.910156 15.71875 -5.765625 C 16.71875 -6.617188 17.21875 -7.832031 17.21875 -9.40625 Z M 17.21875 -11.4375 "/></g></g></g><g fill="#9e651e" fill-opacity="1"><g transform="translate(313.130916, 638.122675)"><g><path d="M 0 -24.671875 L 7.375 -24.671875 L 12.03125 -10.796875 C 12.175781 -10.347656 12.300781 -9.894531 12.40625 -9.4375 C 12.507812 -8.988281 12.597656 -8.519531 12.671875 -8.03125 C 12.742188 -7.550781 12.800781 -7.046875 12.84375 -6.515625 L 12.984375 -6.515625 C 13.066406 -7.304688 13.1875 -8.046875 13.34375 -8.734375 C 13.5 -9.429688 13.691406 -10.117188 13.921875 -10.796875 L 18.5 -24.671875 L 25.71875 -24.671875 L 15.28125 3.15625 C 14.644531 4.863281 13.816406 6.285156 12.796875 7.421875 C 11.785156 8.566406 10.617188 9.425781 9.296875 10 C 7.984375 10.570312 6.539062 10.859375 4.96875 10.859375 C 4.195312 10.859375 3.53125 10.816406 2.96875 10.734375 C 2.414062 10.648438 1.941406 10.566406 1.546875 10.484375 L 1.546875 5.140625 C 1.859375 5.210938 2.25 5.273438 2.71875 5.328125 C 3.1875 5.390625 3.675781 5.421875 4.1875 5.421875 C 5.132812 5.421875 5.945312 5.222656 6.625 4.828125 C 7.300781 4.429688 7.863281 3.898438 8.3125 3.234375 C 8.769531 2.566406 9.132812 1.832031 9.40625 1.03125 L 9.796875 -0.171875 Z M 0 -24.671875 "/></g></g></g><g fill="#9e651e" fill-opacity="1"><g transform="translate(338.845052, 638.122675)"><g><path d="M 20.75 -7.328125 C 20.75 -5.648438 20.351562 -4.234375 19.5625 -3.078125 C 18.78125 -1.921875 17.609375 -1.046875 16.046875 -0.453125 C 14.484375 0.140625 12.539062 0.4375 10.21875 0.4375 C 8.5 0.4375 7.023438 0.328125 5.796875 0.109375 C 4.566406 -0.109375 3.328125 -0.476562 2.078125 -1 L 2.078125 -6.5625 C 3.410156 -5.957031 4.847656 -5.457031 6.390625 -5.0625 C 7.929688 -4.675781 9.28125 -4.484375 10.4375 -4.484375 C 11.75 -4.484375 12.6875 -4.675781 13.25 -5.0625 C 13.820312 -5.457031 14.109375 -5.96875 14.109375 -6.59375 C 14.109375 -7.007812 13.992188 -7.378906 13.765625 -7.703125 C 13.535156 -8.035156 13.046875 -8.410156 12.296875 -8.828125 C 11.546875 -9.253906 10.367188 -9.804688 8.765625 -10.484375 C 7.210938 -11.128906 5.941406 -11.78125 4.953125 -12.4375 C 3.960938 -13.101562 3.226562 -13.890625 2.75 -14.796875 C 2.269531 -15.703125 2.03125 -16.851562 2.03125 -18.25 C 2.03125 -20.53125 2.914062 -22.25 4.6875 -23.40625 C 6.457031 -24.5625 8.832031 -25.140625 11.8125 -25.140625 C 13.34375 -25.140625 14.800781 -24.984375 16.1875 -24.671875 C 17.582031 -24.367188 19.015625 -23.878906 20.484375 -23.203125 L 18.453125 -18.34375 C 17.234375 -18.875 16.082031 -19.304688 15 -19.640625 C 13.914062 -19.984375 12.816406 -20.15625 11.703125 -20.15625 C 10.710938 -20.15625 9.96875 -20.019531 9.46875 -19.75 C 8.96875 -19.488281 8.71875 -19.085938 8.71875 -18.546875 C 8.71875 -18.140625 8.84375 -17.78125 9.09375 -17.46875 C 9.351562 -17.164062 9.851562 -16.828125 10.59375 -16.453125 C 11.34375 -16.078125 12.441406 -15.597656 13.890625 -15.015625 C 15.285156 -14.429688 16.492188 -13.828125 17.515625 -13.203125 C 18.546875 -12.578125 19.34375 -11.804688 19.90625 -10.890625 C 20.46875 -9.972656 20.75 -8.785156 20.75 -7.328125 Z M 20.75 -7.328125 "/></g></g></g><g fill="#9e651e" fill-opacity="1"><g transform="translate(361.314557, 638.122675)"><g/></g></g><g fill="#9e651e" fill-opacity="1"><g transform="translate(373.056976, 638.122675)"><g><path d="M 13.46875 -32.265625 C 16.394531 -32.265625 18.8125 -31.910156 20.71875 -31.203125 C 22.625 -30.503906 24.039062 -29.441406 24.96875 -28.015625 C 25.894531 -26.585938 26.359375 -24.785156 26.359375 -22.609375 C 26.359375 -21.128906 26.078125 -19.835938 25.515625 -18.734375 C 24.953125 -17.628906 24.210938 -16.691406 23.296875 -15.921875 C 22.390625 -15.160156 21.40625 -14.539062 20.34375 -14.0625 L 29.84375 0 L 22.25 0 L 14.546875 -12.375 L 10.90625 -12.375 L 10.90625 0 L 4.0625 0 L 4.0625 -32.265625 Z M 12.984375 -26.65625 L 10.90625 -26.65625 L 10.90625 -17.9375 L 13.109375 -17.9375 C 15.378906 -17.9375 17 -18.316406 17.96875 -19.078125 C 18.945312 -19.835938 19.4375 -20.953125 19.4375 -22.421875 C 19.4375 -23.953125 18.910156 -25.039062 17.859375 -25.6875 C 16.804688 -26.332031 15.179688 -26.65625 12.984375 -26.65625 Z M 12.984375 -26.65625 "/></g></g></g><g fill="#9e651e" fill-opacity="1"><g transform="translate(402.898611, 638.122675)"><g><path d="M 13.703125 -25.140625 C 15.984375 -25.140625 17.945312 -24.703125 19.59375 -23.828125 C 21.25 -22.953125 22.523438 -21.679688 23.421875 -20.015625 C 24.316406 -18.359375 24.765625 -16.328125 24.765625 -13.921875 L 24.765625 -10.65625 L 8.84375 -10.65625 C 8.925781 -8.757812 9.5 -7.269531 10.5625 -6.1875 C 11.625 -5.101562 13.109375 -4.5625 15.015625 -4.5625 C 16.585938 -4.5625 18.023438 -4.722656 19.328125 -5.046875 C 20.640625 -5.378906 21.988281 -5.867188 23.375 -6.515625 L 23.375 -1.296875 C 22.15625 -0.691406 20.878906 -0.253906 19.546875 0.015625 C 18.210938 0.296875 16.597656 0.4375 14.703125 0.4375 C 12.222656 0.4375 10.03125 -0.015625 8.125 -0.921875 C 6.226562 -1.835938 4.738281 -3.226562 3.65625 -5.09375 C 2.570312 -6.96875 2.03125 -9.320312 2.03125 -12.15625 C 2.03125 -15.039062 2.519531 -17.441406 3.5 -19.359375 C 4.476562 -21.285156 5.84375 -22.726562 7.59375 -23.6875 C 9.34375 -24.65625 11.378906 -25.140625 13.703125 -25.140625 Z M 13.75 -20.34375 C 12.4375 -20.34375 11.347656 -19.921875 10.484375 -19.078125 C 9.628906 -18.242188 9.132812 -16.929688 9 -15.140625 L 18.453125 -15.140625 C 18.441406 -16.140625 18.257812 -17.03125 17.90625 -17.8125 C 17.5625 -18.59375 17.046875 -19.207031 16.359375 -19.65625 C 15.679688 -20.113281 14.8125 -20.34375 13.75 -20.34375 Z M 13.75 -20.34375 "/></g></g></g><g fill="#9e651e" fill-opacity="1"><g transform="translate(429.605981, 638.122675)"><g><path d="M 13.921875 -4.921875 C 14.660156 -4.921875 15.378906 -4.992188 16.078125 -5.140625 C 16.773438 -5.285156 17.472656 -5.46875 18.171875 -5.6875 L 18.171875 -0.6875 C 17.441406 -0.363281 16.546875 -0.0976562 15.484375 0.109375 C 14.421875 0.328125 13.253906 0.4375 11.984375 0.4375 C 10.515625 0.4375 9.191406 0.195312 8.015625 -0.28125 C 6.847656 -0.757812 5.929688 -1.585938 5.265625 -2.765625 C 4.597656 -3.953125 4.265625 -5.601562 4.265625 -7.71875 L 4.265625 -19.625 L 1.03125 -19.625 L 1.03125 -22.46875 L 4.75 -24.71875 L 6.6875 -29.921875 L 10.984375 -29.921875 L 10.984375 -24.671875 L 17.90625 -24.671875 L 17.90625 -19.625 L 10.984375 -19.625 L 10.984375 -7.71875 C 10.984375 -6.78125 11.253906 -6.078125 11.796875 -5.609375 C 12.335938 -5.148438 13.046875 -4.921875 13.921875 -4.921875 Z M 13.921875 -4.921875 "/></g></g></g><g fill="#9e651e" fill-opacity="1"><g transform="translate(449.228186, 638.122675)"><g><path d="M 26.171875 -24.671875 L 26.171875 0 L 21.015625 0 L 20.109375 -3.15625 L 19.75 -3.15625 C 19.21875 -2.3125 18.554688 -1.625 17.765625 -1.09375 C 16.972656 -0.570312 16.097656 -0.1875 15.140625 0.0625 C 14.179688 0.3125 13.1875 0.4375 12.15625 0.4375 C 10.394531 0.4375 8.859375 0.125 7.546875 -0.5 C 6.234375 -1.125 5.210938 -2.097656 4.484375 -3.421875 C 3.765625 -4.742188 3.40625 -6.46875 3.40625 -8.59375 L 3.40625 -24.671875 L 10.125 -24.671875 L 10.125 -10.265625 C 10.125 -8.492188 10.441406 -7.160156 11.078125 -6.265625 C 11.710938 -5.367188 12.722656 -4.921875 14.109375 -4.921875 C 15.472656 -4.921875 16.546875 -5.234375 17.328125 -5.859375 C 18.109375 -6.484375 18.65625 -7.398438 18.96875 -8.609375 C 19.28125 -9.828125 19.4375 -11.3125 19.4375 -13.0625 L 19.4375 -24.671875 Z M 26.171875 -24.671875 "/></g></g></g><g fill="#9e651e" fill-opacity="1"><g transform="translate(478.937378, 638.122675)"><g><path d="M 17.296875 -25.140625 C 17.640625 -25.140625 18.035156 -25.117188 18.484375 -25.078125 C 18.929688 -25.046875 19.296875 -25 19.578125 -24.9375 L 19.0625 -18.625 C 18.84375 -18.695312 18.53125 -18.75 18.125 -18.78125 C 17.726562 -18.820312 17.378906 -18.84375 17.078125 -18.84375 C 16.210938 -18.84375 15.367188 -18.734375 14.546875 -18.515625 C 13.734375 -18.296875 13.003906 -17.9375 12.359375 -17.4375 C 11.710938 -16.945312 11.203125 -16.300781 10.828125 -15.5 C 10.453125 -14.695312 10.265625 -13.71875 10.265625 -12.5625 L 10.265625 0 L 3.53125 0 L 3.53125 -24.671875 L 8.625 -24.671875 L 9.625 -20.53125 L 9.953125 -20.53125 C 10.441406 -21.363281 11.050781 -22.128906 11.78125 -22.828125 C 12.507812 -23.523438 13.335938 -24.082031 14.265625 -24.5 C 15.203125 -24.925781 16.210938 -25.140625 17.296875 -25.140625 Z M 17.296875 -25.140625 "/></g></g></g><g fill="#9e651e" fill-opacity="1"><g transform="translate(499.464548, 638.122675)"><g><path d="M 17.546875 -25.140625 C 20.179688 -25.140625 22.300781 -24.421875 23.90625 -22.984375 C 25.507812 -21.546875 26.3125 -19.25 26.3125 -16.09375 L 26.3125 0 L 19.578125 0 L 19.578125 -14.40625 C 19.578125 -16.175781 19.253906 -17.507812 18.609375 -18.40625 C 17.972656 -19.300781 16.972656 -19.75 15.609375 -19.75 C 13.546875 -19.75 12.140625 -19.050781 11.390625 -17.65625 C 10.640625 -16.257812 10.265625 -14.242188 10.265625 -11.609375 L 10.265625 0 L 3.53125 0 L 3.53125 -24.671875 L 8.671875 -24.671875 L 9.578125 -21.515625 L 9.953125 -21.515625 C 10.484375 -22.367188 11.140625 -23.0625 11.921875 -23.59375 C 12.710938 -24.125 13.585938 -24.515625 14.546875 -24.765625 C 15.515625 -25.015625 16.515625 -25.140625 17.546875 -25.140625 Z M 17.546875 -25.140625 "/></g></g></g><g fill="#9e651e" fill-opacity="1"><g transform="translate(529.17376, 638.122675)"><g><path d="M 13.640625 -25.1875 C 16.953125 -25.1875 19.488281 -24.460938 21.25 -23.015625 C 23.019531 -21.578125 23.90625 -19.382812 23.90625 -16.4375 L 23.90625 0 L 19.203125 0 L 17.90625 -3.359375 L 17.71875 -3.359375 C 17.019531 -2.472656 16.300781 -1.75 15.5625 -1.1875 C 14.820312 -0.632812 13.972656 -0.226562 13.015625 0.03125 C 12.066406 0.300781 10.90625 0.4375 9.53125 0.4375 C 8.070312 0.4375 6.765625 0.160156 5.609375 -0.390625 C 4.460938 -0.953125 3.554688 -1.8125 2.890625 -2.96875 C 2.222656 -4.125 1.890625 -5.59375 1.890625 -7.375 C 1.890625 -9.988281 2.8125 -11.914062 4.65625 -13.15625 C 6.5 -14.40625 9.257812 -15.097656 12.9375 -15.234375 L 17.21875 -15.359375 L 17.21875 -16.4375 C 17.21875 -17.738281 16.878906 -18.691406 16.203125 -19.296875 C 15.523438 -19.898438 14.582031 -20.203125 13.375 -20.203125 C 12.1875 -20.203125 11.015625 -20.03125 9.859375 -19.6875 C 8.710938 -19.351562 7.566406 -18.925781 6.421875 -18.40625 L 4.1875 -22.953125 C 5.5 -23.640625 6.96875 -24.179688 8.59375 -24.578125 C 10.21875 -24.984375 11.898438 -25.1875 13.640625 -25.1875 Z M 17.21875 -11.4375 L 14.609375 -11.34375 C 12.429688 -11.28125 10.921875 -10.890625 10.078125 -10.171875 C 9.234375 -9.453125 8.8125 -8.503906 8.8125 -7.328125 C 8.8125 -6.296875 9.109375 -5.5625 9.703125 -5.125 C 10.304688 -4.695312 11.097656 -4.484375 12.078125 -4.484375 C 13.515625 -4.484375 14.726562 -4.910156 15.71875 -5.765625 C 16.71875 -6.617188 17.21875 -7.832031 17.21875 -9.40625 Z M 17.21875 -11.4375 "/></g></g></g><g fill="#9e651e" fill-opacity="1"><g transform="translate(556.477096, 638.122675)"><g><path d="M 10.265625 -34.34375 L 10.265625 -26.359375 C 10.265625 -25.429688 10.238281 -24.507812 10.1875 -23.59375 C 10.132812 -22.675781 10.070312 -21.96875 10 -21.46875 L 10.265625 -21.46875 C 10.910156 -22.488281 11.789062 -23.351562 12.90625 -24.0625 C 14.03125 -24.78125 15.484375 -25.140625 17.265625 -25.140625 C 20.023438 -25.140625 22.265625 -24.054688 23.984375 -21.890625 C 25.710938 -19.734375 26.578125 -16.5625 26.578125 -12.375 C 26.578125 -9.570312 26.175781 -7.21875 25.375 -5.3125 C 24.582031 -3.40625 23.472656 -1.96875 22.046875 -1 C 20.617188 -0.0390625 18.960938 0.4375 17.078125 0.4375 C 15.273438 0.4375 13.847656 0.113281 12.796875 -0.53125 C 11.753906 -1.175781 10.910156 -1.90625 10.265625 -2.71875 L 9.796875 -2.71875 L 8.671875 0 L 3.53125 0 L 3.53125 -34.34375 Z M 15.09375 -19.75 C 13.914062 -19.75 12.976562 -19.503906 12.28125 -19.015625 C 11.59375 -18.535156 11.09375 -17.8125 10.78125 -16.84375 C 10.46875 -15.875 10.296875 -14.644531 10.265625 -13.15625 L 10.265625 -12.421875 C 10.265625 -10.023438 10.613281 -8.191406 11.3125 -6.921875 C 12.019531 -5.648438 13.3125 -5.015625 15.1875 -5.015625 C 16.570312 -5.015625 17.671875 -5.648438 18.484375 -6.921875 C 19.296875 -8.203125 19.703125 -10.050781 19.703125 -12.46875 C 19.703125 -14.882812 19.289062 -16.703125 18.46875 -17.921875 C 17.644531 -19.140625 16.519531 -19.75 15.09375 -19.75 Z M 15.09375 -19.75 "/></g></g></g><g fill="#9e651e" fill-opacity="1"><g transform="translate(585.082687, 638.122675)"><g><path d="M 10.265625 0 L 3.53125 0 L 3.53125 -34.34375 L 10.265625 -34.34375 Z M 10.265625 0 "/></g></g></g><g fill="#9e651e" fill-opacity="1"><g transform="translate(598.877806, 638.122675)"><g><path d="M 13.703125 -25.140625 C 15.984375 -25.140625 17.945312 -24.703125 19.59375 -23.828125 C 21.25 -22.953125 22.523438 -21.679688 23.421875 -20.015625 C 24.316406 -18.359375 24.765625 -16.328125 24.765625 -13.921875 L 24.765625 -10.65625 L 8.84375 -10.65625 C 8.925781 -8.757812 9.5 -7.269531 10.5625 -6.1875 C 11.625 -5.101562 13.109375 -4.5625 15.015625 -4.5625 C 16.585938 -4.5625 18.023438 -4.722656 19.328125 -5.046875 C 20.640625 -5.378906 21.988281 -5.867188 23.375 -6.515625 L 23.375 -1.296875 C 22.15625 -0.691406 20.878906 -0.253906 19.546875 0.015625 C 18.210938 0.296875 16.597656 0.4375 14.703125 0.4375 C 12.222656 0.4375 10.03125 -0.015625 8.125 -0.921875 C 6.226562 -1.835938 4.738281 -3.226562 3.65625 -5.09375 C 2.570312 -6.96875 2.03125 -9.320312 2.03125 -12.15625 C 2.03125 -15.039062 2.519531 -17.441406 3.5 -19.359375 C 4.476562 -21.285156 5.84375 -22.726562 7.59375 -23.6875 C 9.34375 -24.65625 11.378906 -25.140625 13.703125 -25.140625 Z M 13.75 -20.34375 C 12.4375 -20.34375 11.347656 -19.921875 10.484375 -19.078125 C 9.628906 -18.242188 9.132812 -16.929688 9 -15.140625 L 18.453125 -15.140625 C 18.441406 -16.140625 18.257812 -17.03125 17.90625 -17.8125 C 17.5625 -18.59375 17.046875 -19.207031 16.359375 -19.65625 C 15.679688 -20.113281 14.8125 -20.34375 13.75 -20.34375 Z M 13.75 -20.34375 "/></g></g></g><path fill="#9e651e" d="M 427.492188 241.867188 L 397.445312 227.40625 C 396.578125 226.984375 395.554688 226.984375 394.679688 227.40625 L 309.292969 268.429688 C 308.191406 268.960938 307.484375 270.074219 307.484375 271.304688 C 307.484375 272.527344 308.1875 273.644531 309.289062 274.175781 L 339.335938 288.648438 C 339.777344 288.859375 340.25 288.964844 340.726562 288.964844 C 341.195312 288.964844 341.671875 288.855469 342.109375 288.648438 L 427.492188 247.621094 C 428.601562 247.089844 429.300781 245.96875 429.300781 244.746094 C 429.296875 243.511719 428.601562 242.398438 427.492188 241.867188 Z M 427.492188 241.867188 " fill-opacity="1" fill-rule="nonzero"/><path fill="#9e651e" d="M 294.640625 286.117188 C 293.710938 286.699219 293.148438 287.722656 293.148438 288.816406 L 293.148438 383.578125 C 293.148438 384.804688 293.847656 385.921875 294.957031 386.453125 L 383.671875 429.171875 C 384.109375 429.382812 384.585938 429.476562 385.058594 429.476562 C 385.652344 429.476562 386.238281 429.316406 386.757812 428.996094 C 387.6875 428.417969 388.25 427.390625 388.25 426.296875 L 388.25 331.535156 C 388.25 330.308594 387.550781 329.1875 386.445312 328.65625 L 297.722656 285.945312 C 296.738281 285.46875 295.574219 285.527344 294.640625 286.117188 Z M 315.835938 331.089844 C 317.117188 328.417969 319.863281 326.6875 322.828125 326.6875 C 324 326.6875 325.128906 326.953125 326.210938 327.476562 L 358.902344 343.195312 C 360.769531 344.09375 362.175781 345.667969 362.855469 347.632812 C 363.542969 349.589844 363.425781 351.699219 362.523438 353.578125 C 360.75 357.28125 355.988281 359.0625 352.15625 357.191406 L 319.464844 341.46875 C 317.597656 340.578125 316.195312 339.007812 315.507812 337.050781 C 314.8125 335.089844 314.929688 332.976562 315.835938 331.089844 Z M 315.835938 331.089844 " fill-opacity="1" fill-rule="nonzero"/><path fill="#9e651e" d="M 403.8125 331.539062 L 403.8125 426.300781 C 403.8125 427.394531 404.371094 428.421875 405.304688 429 C 405.820312 429.320312 406.410156 429.480469 407.003906 429.480469 C 407.472656 429.480469 407.949219 429.386719 408.386719 429.175781 L 497.109375 386.457031 C 498.21875 385.925781 498.917969 384.808594 498.917969 383.582031 L 498.917969 288.875 C 498.917969 287.773438 498.359375 286.753906 497.425781 286.167969 C 496.5 285.585938 495.328125 285.519531 494.34375 285.992188 L 405.617188 328.65625 C 404.507812 329.191406 403.8125 330.3125 403.8125 331.539062 Z M 403.8125 331.539062 " fill-opacity="1" fill-rule="nonzero"/><path fill="#9e651e" d="M 482.789062 268.503906 L 452.796875 254.058594 C 451.925781 253.636719 450.90625 253.636719 450.03125 254.058594 L 364.628906 295.078125 C 363.527344 295.605469 362.820312 296.722656 362.820312 297.953125 C 362.820312 299.175781 363.523438 300.296875 364.628906 300.824219 L 394.648438 315.273438 C 395.085938 315.480469 395.554688 315.589844 396.035156 315.589844 C 396.507812 315.589844 396.980469 315.480469 397.417969 315.273438 L 482.789062 274.253906 C 483.894531 273.722656 484.601562 272.609375 484.601562 271.375 C 484.597656 270.15625 483.894531 269.042969 482.789062 268.503906 Z M 482.789062 268.503906 " fill-opacity="1" fill-rule="nonzero"/><path fill="#9e651e" d="M 246.160156 399.5 C 247.152344 399.5 248.160156 399.3125 249.136719 398.925781 C 253.222656 397.273438 255.203125 392.628906 253.558594 388.539062 C 228.15625 325.453125 246.714844 254.371094 299.734375 211.671875 C 354.824219 167.285156 431.492188 167.308594 486.203125 206.980469 L 471.128906 219.113281 C 468.609375 221.140625 467.570312 224.480469 468.476562 227.578125 C 469.382812 230.667969 472.070312 232.921875 475.277344 233.265625 L 521.367188 238.21875 C 521.65625 238.25 521.941406 238.269531 522.234375 238.269531 C 526.253906 238.269531 529.714844 235.238281 530.152344 231.144531 L 535.125 185.074219 C 535.472656 181.867188 533.847656 178.765625 531.019531 177.222656 C 528.183594 175.667969 524.707031 175.972656 522.1875 178.007812 L 499.046875 196.640625 C 438.445312 150.277344 351.710938 149.300781 289.722656 199.238281 C 231.195312 246.382812 210.714844 324.851562 238.753906 394.496094 C 240.007812 397.609375 243 399.5 246.160156 399.5 Z M 246.160156 399.5 " fill-opacity="1" fill-rule="nonzero"/><g clip-path="url(#7151637bbe)"><path fill="#9e651e" d="M 552.695312 266.335938 C 551.007812 262.273438 546.34375 260.34375 542.261719 262.03125 C 538.191406 263.71875 536.261719 268.386719 537.949219 272.453125 C 563.886719 334.957031 545.144531 408.300781 492.378906 450.816406 C 437.289062 495.195312 360.617188 495.167969 305.902344 455.492188 L 320.964844 443.359375 C 323.480469 441.339844 324.519531 437.996094 323.613281 434.90625 C 322.703125 431.808594 320.019531 429.5625 316.8125 429.214844 L 270.734375 424.242188 C 268.59375 424.003906 266.523438 424.632812 264.871094 425.960938 C 263.222656 427.289062 262.171875 429.214844 261.945312 431.324219 L 256.984375 477.402344 C 256.632812 480.605469 258.257812 483.710938 261.085938 485.25 C 262.289062 485.902344 263.601562 486.234375 264.914062 486.234375 C 266.699219 486.234375 268.472656 485.632812 269.921875 484.464844 L 293.0625 465.832031 C 323.101562 488.8125 359.542969 500.671875 396.234375 500.660156 C 433.558594 500.660156 471.125 488.425781 502.390625 463.246094 C 560.644531 416.316406 581.328125 335.34375 552.695312 266.335938 Z M 552.695312 266.335938 " fill-opacity="1" fill-rule="nonzero"/></g></svg>