<svg width="913" height="894" viewBox="0 0 913 894" fill="none" xmlns="http://www.w3.org/2000/svg">
<rect width="913" height="894" rx="24" fill="#FFFCF2"/>
<path d="M152.156 737V691.312H161.844V729H180.375V737H152.156ZM197.125 702.062V737H187.594V702.062H197.125ZM192.375 688.375C193.792 688.375 195.01 688.708 196.031 689.375C197.052 690.021 197.562 691.24 197.562 693.031C197.562 694.802 197.052 696.031 196.031 696.719C195.01 697.385 193.792 697.719 192.375 697.719C190.938 697.719 189.708 697.385 188.688 696.719C187.688 696.031 187.188 694.802 187.188 693.031C187.188 691.24 187.688 690.021 188.688 689.375C189.708 688.708 190.938 688.375 192.375 688.375ZM226.469 709.219H218.219V737H208.688V709.219H203.438V704.625L208.688 702.062V699.5C208.688 696.521 209.188 694.208 210.188 692.562C211.208 690.896 212.635 689.729 214.469 689.062C216.323 688.375 218.51 688.031 221.031 688.031C222.885 688.031 224.573 688.188 226.094 688.5C227.615 688.792 228.854 689.125 229.812 689.5L227.375 696.5C226.646 696.271 225.854 696.062 225 695.875C224.146 695.688 223.167 695.594 222.062 695.594C220.729 695.594 219.75 696 219.125 696.812C218.521 697.604 218.219 698.625 218.219 699.875V702.062H226.469V709.219ZM246.375 701.406C249.604 701.406 252.385 702.031 254.719 703.281C257.052 704.51 258.854 706.302 260.125 708.656C261.396 711.01 262.031 713.885 262.031 717.281V721.906H239.5C239.604 724.594 240.406 726.708 241.906 728.25C243.427 729.771 245.531 730.531 248.219 730.531C250.448 730.531 252.49 730.302 254.344 729.844C256.198 729.385 258.104 728.698 260.062 727.781V735.156C258.333 736.01 256.521 736.635 254.625 737.031C252.75 737.427 250.469 737.625 247.781 737.625C244.281 737.625 241.177 736.979 238.469 735.688C235.781 734.396 233.667 732.427 232.125 729.781C230.604 727.135 229.844 723.802 229.844 719.781C229.844 715.698 230.531 712.302 231.906 709.594C233.302 706.865 235.24 704.823 237.719 703.469C240.198 702.094 243.083 701.406 246.375 701.406ZM246.438 708.188C244.583 708.188 243.042 708.781 241.812 709.969C240.604 711.156 239.906 713.021 239.719 715.562H253.094C253.073 714.146 252.812 712.885 252.312 711.781C251.833 710.677 251.104 709.802 250.125 709.156C249.167 708.51 247.938 708.188 246.438 708.188ZM304.781 737H295.094V699.375H282.688V691.312H317.188V699.375H304.781V737ZM333 702.062V737H323.469V702.062H333ZM328.25 688.375C329.667 688.375 330.885 688.708 331.906 689.375C332.927 690.021 333.438 691.24 333.438 693.031C333.438 694.802 332.927 696.031 331.906 696.719C330.885 697.385 329.667 697.719 328.25 697.719C326.812 697.719 325.583 697.385 324.562 696.719C323.562 696.031 323.062 694.802 323.062 693.031C323.062 691.24 323.562 690.021 324.562 689.375C325.583 688.708 326.812 688.375 328.25 688.375ZM384.062 701.406C388.021 701.406 391.01 702.427 393.031 704.469C395.073 706.49 396.094 709.74 396.094 714.219V737H386.531V716.594C386.531 714.094 386.104 712.208 385.25 710.938C384.396 709.667 383.073 709.031 381.281 709.031C378.76 709.031 376.969 709.938 375.906 711.75C374.844 713.542 374.312 716.115 374.312 719.469V737H364.781V716.594C364.781 714.927 364.594 713.531 364.219 712.406C363.844 711.281 363.271 710.438 362.5 709.875C361.729 709.312 360.74 709.031 359.531 709.031C357.76 709.031 356.365 709.479 355.344 710.375C354.344 711.25 353.625 712.552 353.188 714.281C352.771 715.99 352.562 718.083 352.562 720.562V737H343.031V702.062H350.312L351.594 706.531H352.125C352.833 705.323 353.719 704.344 354.781 703.594C355.865 702.844 357.052 702.292 358.344 701.938C359.635 701.583 360.948 701.406 362.281 701.406C364.844 701.406 367.01 701.823 368.781 702.656C370.573 703.49 371.948 704.781 372.906 706.531H373.75C374.792 704.74 376.26 703.438 378.156 702.625C380.073 701.812 382.042 701.406 384.062 701.406ZM420.312 701.406C423.542 701.406 426.323 702.031 428.656 703.281C430.99 704.51 432.792 706.302 434.062 708.656C435.333 711.01 435.969 713.885 435.969 717.281V721.906H413.438C413.542 724.594 414.344 726.708 415.844 728.25C417.365 729.771 419.469 730.531 422.156 730.531C424.385 730.531 426.427 730.302 428.281 729.844C430.135 729.385 432.042 728.698 434 727.781V735.156C432.271 736.01 430.458 736.635 428.562 737.031C426.688 737.427 424.406 737.625 421.719 737.625C418.219 737.625 415.115 736.979 412.406 735.688C409.719 734.396 407.604 732.427 406.062 729.781C404.542 727.135 403.781 723.802 403.781 719.781C403.781 715.698 404.469 712.302 405.844 709.594C407.24 706.865 409.177 704.823 411.656 703.469C414.135 702.094 417.021 701.406 420.312 701.406ZM420.375 708.188C418.521 708.188 416.979 708.781 415.75 709.969C414.542 711.156 413.844 713.021 413.656 715.562H427.031C427.01 714.146 426.75 712.885 426.25 711.781C425.771 710.677 425.042 709.802 424.062 709.156C423.104 708.51 421.875 708.188 420.375 708.188ZM487.406 737H461.094V691.312H487.406V699.25H470.781V709.281H486.25V717.219H470.781V729H487.406V737ZM503.375 719.156L492.125 702.062H502.938L509.719 713.188L516.562 702.062H527.375L516 719.156L527.906 737H517.062L509.719 725.031L502.344 737H491.531L503.375 719.156ZM547.406 737.625C543.948 737.625 541 737 538.562 735.75C536.125 734.479 534.271 732.521 533 729.875C531.729 727.229 531.094 723.844 531.094 719.719C531.094 715.448 531.812 711.969 533.25 709.281C534.708 706.573 536.719 704.583 539.281 703.312C541.865 702.042 544.854 701.406 548.25 701.406C550.667 701.406 552.75 701.646 554.5 702.125C556.271 702.583 557.812 703.135 559.125 703.781L556.312 711.156C554.812 710.552 553.417 710.062 552.125 709.688C550.833 709.292 549.542 709.094 548.25 709.094C546.583 709.094 545.198 709.49 544.094 710.281C542.99 711.052 542.167 712.219 541.625 713.781C541.083 715.344 540.812 717.302 540.812 719.656C540.812 721.969 541.104 723.885 541.688 725.406C542.271 726.927 543.115 728.062 544.219 728.812C545.323 729.542 546.667 729.906 548.25 729.906C550.229 729.906 551.99 729.646 553.531 729.125C555.073 728.583 556.573 727.833 558.031 726.875V735.031C556.573 735.948 555.042 736.604 553.438 737C551.854 737.417 549.844 737.625 547.406 737.625ZM575.688 688.375V698.281C575.688 700.01 575.625 701.656 575.5 703.219C575.396 704.781 575.312 705.885 575.25 706.531H575.75C576.5 705.323 577.385 704.344 578.406 703.594C579.448 702.844 580.594 702.292 581.844 701.938C583.094 701.583 584.438 701.406 585.875 701.406C588.396 701.406 590.594 701.854 592.469 702.75C594.344 703.625 595.802 705.01 596.844 706.906C597.885 708.781 598.406 711.219 598.406 714.219V737H588.875V716.594C588.875 714.094 588.417 712.208 587.5 710.938C586.583 709.667 585.167 709.031 583.25 709.031C581.333 709.031 579.823 709.479 578.719 710.375C577.615 711.25 576.833 712.552 576.375 714.281C575.917 715.99 575.688 718.083 575.688 720.562V737H566.156V688.375H575.688ZM622.531 701.344C627.219 701.344 630.812 702.365 633.312 704.406C635.812 706.448 637.062 709.552 637.062 713.719V737H630.406L628.562 732.25H628.312C627.312 733.5 626.292 734.521 625.25 735.312C624.208 736.104 623.01 736.688 621.656 737.062C620.302 737.438 618.656 737.625 616.719 737.625C614.656 737.625 612.802 737.229 611.156 736.438C609.531 735.646 608.25 734.438 607.312 732.812C606.375 731.167 605.906 729.083 605.906 726.562C605.906 722.854 607.208 720.125 609.812 718.375C612.417 716.604 616.323 715.625 621.531 715.438L627.594 715.25V713.719C627.594 711.885 627.115 710.542 626.156 709.688C625.198 708.833 623.865 708.406 622.156 708.406C620.469 708.406 618.812 708.646 617.188 709.125C615.562 709.604 613.938 710.208 612.312 710.938L609.156 704.5C611.01 703.521 613.083 702.75 615.375 702.188C617.688 701.625 620.073 701.344 622.531 701.344ZM627.594 720.812L623.906 720.938C620.823 721.021 618.677 721.573 617.469 722.594C616.281 723.615 615.688 724.958 615.688 726.625C615.688 728.083 616.115 729.125 616.969 729.75C617.823 730.354 618.938 730.656 620.312 730.656C622.354 730.656 624.073 730.052 625.469 728.844C626.885 727.635 627.594 725.917 627.594 723.688V720.812ZM666.75 701.406C670.479 701.406 673.479 702.427 675.75 704.469C678.021 706.49 679.156 709.74 679.156 714.219V737H669.625V716.594C669.625 714.094 669.167 712.208 668.25 710.938C667.354 709.667 665.938 709.031 664 709.031C661.083 709.031 659.094 710.021 658.031 712C656.969 713.979 656.438 716.833 656.438 720.562V737H646.906V702.062H654.188L655.469 706.531H656C656.75 705.323 657.677 704.344 658.781 703.594C659.906 702.844 661.146 702.292 662.5 701.938C663.875 701.583 665.292 701.406 666.75 701.406ZM699.188 752.375C694.312 752.375 690.583 751.521 688 749.812C685.438 748.125 684.156 745.75 684.156 742.688C684.156 740.583 684.812 738.823 686.125 737.406C687.438 735.99 689.365 734.979 691.906 734.375C690.927 733.958 690.073 733.281 689.344 732.344C688.615 731.385 688.25 730.375 688.25 729.312C688.25 727.979 688.635 726.875 689.406 726C690.177 725.104 691.292 724.229 692.75 723.375C690.917 722.583 689.458 721.312 688.375 719.562C687.312 717.812 686.781 715.75 686.781 713.375C686.781 710.833 687.333 708.677 688.438 706.906C689.562 705.115 691.188 703.75 693.312 702.812C695.458 701.875 698.062 701.406 701.125 701.406C701.771 701.406 702.521 701.448 703.375 701.531C704.229 701.615 705.01 701.708 705.719 701.812C706.448 701.917 706.938 702 707.188 702.062H719.375V706.906L713.906 708.312C714.406 709.083 714.781 709.906 715.031 710.781C715.281 711.656 715.406 712.583 715.406 713.562C715.406 717.312 714.094 720.24 711.469 722.344C708.865 724.427 705.24 725.469 700.594 725.469C699.49 725.406 698.448 725.323 697.469 725.219C696.99 725.594 696.625 725.99 696.375 726.406C696.125 726.823 696 727.26 696 727.719C696 728.177 696.188 728.562 696.562 728.875C696.958 729.167 697.542 729.396 698.312 729.562C699.104 729.708 700.083 729.781 701.25 729.781H707.188C711.021 729.781 713.938 730.604 715.938 732.25C717.958 733.896 718.969 736.312 718.969 739.5C718.969 743.583 717.26 746.75 713.844 749C710.448 751.25 705.562 752.375 699.188 752.375ZM699.594 746.156C701.865 746.156 703.812 745.938 705.438 745.5C707.083 745.083 708.344 744.479 709.219 743.688C710.094 742.917 710.531 741.99 710.531 740.906C710.531 740.031 710.271 739.333 709.75 738.812C709.25 738.312 708.479 737.958 707.438 737.75C706.417 737.542 705.104 737.438 703.5 737.438H698.562C697.396 737.438 696.344 737.625 695.406 738C694.49 738.375 693.76 738.896 693.219 739.562C692.677 740.25 692.406 741.042 692.406 741.938C692.406 743.25 693.031 744.281 694.281 745.031C695.552 745.781 697.323 746.156 699.594 746.156ZM701.125 719.656C702.917 719.656 704.229 719.104 705.062 718C705.896 716.896 706.312 715.396 706.312 713.5C706.312 711.396 705.875 709.823 705 708.781C704.146 707.719 702.854 707.188 701.125 707.188C699.375 707.188 698.062 707.719 697.188 708.781C696.312 709.823 695.875 711.396 695.875 713.5C695.875 715.396 696.302 716.896 697.156 718C698.031 719.104 699.354 719.656 701.125 719.656ZM739.562 701.406C742.792 701.406 745.573 702.031 747.906 703.281C750.24 704.51 752.042 706.302 753.312 708.656C754.583 711.01 755.219 713.885 755.219 717.281V721.906H732.688C732.792 724.594 733.594 726.708 735.094 728.25C736.615 729.771 738.719 730.531 741.406 730.531C743.635 730.531 745.677 730.302 747.531 729.844C749.385 729.385 751.292 728.698 753.25 727.781V735.156C751.521 736.01 749.708 736.635 747.812 737.031C745.938 737.427 743.656 737.625 740.969 737.625C737.469 737.625 734.365 736.979 731.656 735.688C728.969 734.396 726.854 732.427 725.312 729.781C723.792 727.135 723.031 723.802 723.031 719.781C723.031 715.698 723.719 712.302 725.094 709.594C726.49 706.865 728.427 704.823 730.906 703.469C733.385 702.094 736.271 701.406 739.562 701.406ZM739.625 708.188C737.771 708.188 736.229 708.781 735 709.969C733.792 711.156 733.094 713.021 732.906 715.562H746.281C746.26 714.146 746 712.885 745.5 711.781C745.021 710.677 744.292 709.802 743.312 709.156C742.354 708.51 741.125 708.188 739.625 708.188ZM274.219 788.344C278.906 788.344 282.5 789.365 285 791.406C287.5 793.448 288.75 796.552 288.75 800.719V824H282.094L280.25 819.25H280C279 820.5 277.979 821.521 276.938 822.312C275.896 823.104 274.698 823.688 273.344 824.062C271.99 824.438 270.344 824.625 268.406 824.625C266.344 824.625 264.49 824.229 262.844 823.438C261.219 822.646 259.938 821.438 259 819.812C258.062 818.167 257.594 816.083 257.594 813.562C257.594 809.854 258.896 807.125 261.5 805.375C264.104 803.604 268.01 802.625 273.219 802.438L279.281 802.25V800.719C279.281 798.885 278.802 797.542 277.844 796.688C276.885 795.833 275.552 795.406 273.844 795.406C272.156 795.406 270.5 795.646 268.875 796.125C267.25 796.604 265.625 797.208 264 797.938L260.844 791.5C262.698 790.521 264.771 789.75 267.062 789.188C269.375 788.625 271.76 788.344 274.219 788.344ZM279.281 807.812L275.594 807.938C272.51 808.021 270.365 808.573 269.156 809.594C267.969 810.615 267.375 811.958 267.375 813.625C267.375 815.083 267.802 816.125 268.656 816.75C269.51 817.354 270.625 817.656 272 817.656C274.042 817.656 275.76 817.052 277.156 815.844C278.573 814.635 279.281 812.917 279.281 810.688V807.812ZM318.438 788.406C322.167 788.406 325.167 789.427 327.438 791.469C329.708 793.49 330.844 796.74 330.844 801.219V824H321.312V803.594C321.312 801.094 320.854 799.208 319.938 797.938C319.042 796.667 317.625 796.031 315.688 796.031C312.771 796.031 310.781 797.021 309.719 799C308.656 800.979 308.125 803.833 308.125 807.562V824H298.594V789.062H305.875L307.156 793.531H307.688C308.438 792.323 309.365 791.344 310.469 790.594C311.594 789.844 312.833 789.292 314.188 788.938C315.562 788.583 316.979 788.406 318.438 788.406ZM351.719 824.625C347.823 824.625 344.646 823.104 342.188 820.062C339.75 817 338.531 812.51 338.531 806.594C338.531 800.615 339.771 796.094 342.25 793.031C344.729 789.948 347.969 788.406 351.969 788.406C353.635 788.406 355.104 788.635 356.375 789.094C357.646 789.552 358.74 790.167 359.656 790.938C360.594 791.708 361.385 792.573 362.031 793.531H362.344C362.219 792.865 362.062 791.885 361.875 790.594C361.708 789.281 361.625 787.938 361.625 786.562V775.375H371.188V824H363.875L362.031 819.469H361.625C361.021 820.427 360.26 821.302 359.344 822.094C358.448 822.865 357.375 823.479 356.125 823.938C354.875 824.396 353.406 824.625 351.719 824.625ZM355.062 817.031C357.667 817.031 359.5 816.26 360.562 814.719C361.646 813.156 362.219 810.812 362.281 807.688V806.656C362.281 803.26 361.76 800.667 360.719 798.875C359.677 797.062 357.74 796.156 354.906 796.156C352.802 796.156 351.156 797.062 349.969 798.875C348.781 800.688 348.188 803.302 348.188 806.719C348.188 810.135 348.781 812.708 349.969 814.438C351.177 816.167 352.875 817.031 355.062 817.031ZM398.531 778.312H412.75C418.833 778.312 423.438 779.167 426.562 780.875C429.688 782.583 431.25 785.583 431.25 789.875C431.25 791.604 430.969 793.167 430.406 794.562C429.865 795.958 429.073 797.104 428.031 798C426.99 798.896 425.719 799.479 424.219 799.75V800.062C425.74 800.375 427.115 800.917 428.344 801.688C429.573 802.438 430.552 803.542 431.281 805C432.031 806.438 432.406 808.354 432.406 810.75C432.406 813.521 431.729 815.896 430.375 817.875C429.021 819.854 427.083 821.375 424.562 822.438C422.062 823.479 419.083 824 415.625 824H398.531V778.312ZM408.219 796.406H413.844C416.656 796.406 418.604 795.969 419.688 795.094C420.771 794.198 421.312 792.885 421.312 791.156C421.312 789.406 420.667 788.156 419.375 787.406C418.104 786.635 416.083 786.25 413.312 786.25H408.219V796.406ZM408.219 804.094V816H414.531C417.448 816 419.479 815.438 420.625 814.312C421.771 813.188 422.344 811.677 422.344 809.781C422.344 808.656 422.094 807.667 421.594 806.812C421.094 805.958 420.25 805.292 419.062 804.812C417.896 804.333 416.281 804.094 414.219 804.094H408.219ZM472.844 789.062V824H465.531L464.25 819.531H463.75C463 820.719 462.062 821.688 460.938 822.438C459.812 823.188 458.573 823.74 457.219 824.094C455.865 824.448 454.458 824.625 453 824.625C450.5 824.625 448.323 824.188 446.469 823.312C444.615 822.417 443.167 821.031 442.125 819.156C441.104 817.281 440.594 814.844 440.594 811.844V789.062H450.125V809.469C450.125 811.969 450.573 813.854 451.469 815.125C452.365 816.396 453.792 817.031 455.75 817.031C457.688 817.031 459.208 816.594 460.312 815.719C461.417 814.823 462.188 813.521 462.625 811.812C463.083 810.083 463.312 807.979 463.312 805.5V789.062H472.844ZM477.844 789.062H488.281L494.875 808.719C495.083 809.344 495.26 809.979 495.406 810.625C495.552 811.271 495.677 811.938 495.781 812.625C495.885 813.312 495.969 814.031 496.031 814.781H496.219C496.344 813.656 496.51 812.604 496.719 811.625C496.948 810.646 497.229 809.677 497.562 808.719L504.031 789.062H514.25L499.469 828.469C498.573 830.885 497.406 832.896 495.969 834.5C494.531 836.125 492.875 837.344 491 838.156C489.146 838.969 487.104 839.375 484.875 839.375C483.792 839.375 482.854 839.312 482.062 839.188C481.271 839.083 480.594 838.969 480.031 838.844V831.281C480.469 831.385 481.021 831.479 481.688 831.562C482.354 831.646 483.052 831.688 483.781 831.688C485.115 831.688 486.26 831.406 487.219 830.844C488.177 830.281 488.979 829.521 489.625 828.562C490.271 827.625 490.781 826.594 491.156 825.469L491.719 823.75L477.844 789.062ZM528.812 775.375V786.688C528.812 788 528.771 789.302 528.688 790.594C528.625 791.885 528.542 792.885 528.438 793.594H528.812C529.729 792.156 530.979 790.938 532.562 789.938C534.146 788.917 536.198 788.406 538.719 788.406C542.635 788.406 545.812 789.938 548.25 793C550.688 796.062 551.906 800.552 551.906 806.469C551.906 810.448 551.344 813.792 550.219 816.5C549.094 819.188 547.521 821.219 545.5 822.594C543.479 823.948 541.135 824.625 538.469 824.625C535.906 824.625 533.885 824.167 532.406 823.25C530.927 822.333 529.729 821.302 528.812 820.156H528.156L526.562 824H519.281V775.375H528.812ZM535.656 796.031C533.99 796.031 532.667 796.375 531.688 797.062C530.708 797.75 529.99 798.781 529.531 800.156C529.094 801.531 528.854 803.271 528.812 805.375V806.406C528.812 809.802 529.312 812.406 530.312 814.219C531.312 816.01 533.135 816.906 535.781 816.906C537.74 816.906 539.292 816 540.438 814.188C541.604 812.375 542.188 809.76 542.188 806.344C542.188 802.927 541.604 800.354 540.438 798.625C539.271 796.896 537.677 796.031 535.656 796.031ZM574.094 788.344C578.781 788.344 582.375 789.365 584.875 791.406C587.375 793.448 588.625 796.552 588.625 800.719V824H581.969L580.125 819.25H579.875C578.875 820.5 577.854 821.521 576.812 822.312C575.771 823.104 574.573 823.688 573.219 824.062C571.865 824.438 570.219 824.625 568.281 824.625C566.219 824.625 564.365 824.229 562.719 823.438C561.094 822.646 559.812 821.438 558.875 819.812C557.938 818.167 557.469 816.083 557.469 813.562C557.469 809.854 558.771 807.125 561.375 805.375C563.979 803.604 567.885 802.625 573.094 802.438L579.156 802.25V800.719C579.156 798.885 578.677 797.542 577.719 796.688C576.76 795.833 575.427 795.406 573.719 795.406C572.031 795.406 570.375 795.646 568.75 796.125C567.125 796.604 565.5 797.208 563.875 797.938L560.719 791.5C562.573 790.521 564.646 789.75 566.938 789.188C569.25 788.625 571.635 788.344 574.094 788.344ZM579.156 807.812L575.469 807.938C572.385 808.021 570.24 808.573 569.031 809.594C567.844 810.615 567.25 811.958 567.25 813.625C567.25 815.083 567.677 816.125 568.531 816.75C569.385 817.354 570.5 817.656 571.875 817.656C573.917 817.656 575.635 817.052 577.031 815.844C578.448 814.635 579.156 812.917 579.156 810.688V807.812ZM612.656 824.625C609.198 824.625 606.25 824 603.812 822.75C601.375 821.479 599.521 819.521 598.25 816.875C596.979 814.229 596.344 810.844 596.344 806.719C596.344 802.448 597.062 798.969 598.5 796.281C599.958 793.573 601.969 791.583 604.531 790.312C607.115 789.042 610.104 788.406 613.5 788.406C615.917 788.406 618 788.646 619.75 789.125C621.521 789.583 623.062 790.135 624.375 790.781L621.562 798.156C620.062 797.552 618.667 797.062 617.375 796.688C616.083 796.292 614.792 796.094 613.5 796.094C611.833 796.094 610.448 796.49 609.344 797.281C608.24 798.052 607.417 799.219 606.875 800.781C606.333 802.344 606.062 804.302 606.062 806.656C606.062 808.969 606.354 810.885 606.938 812.406C607.521 813.927 608.365 815.062 609.469 815.812C610.573 816.542 611.917 816.906 613.5 816.906C615.479 816.906 617.24 816.646 618.781 816.125C620.323 815.583 621.823 814.833 623.281 813.875V822.031C621.823 822.948 620.292 823.604 618.688 824C617.104 824.417 615.094 824.625 612.656 824.625ZM640.938 775.375V797.125C640.938 798.438 640.885 799.75 640.781 801.062C640.677 802.375 640.562 803.688 640.438 805H640.562C641.208 804.083 641.865 803.177 642.531 802.281C643.219 801.385 643.948 800.521 644.719 799.688L654.5 789.062H665.25L651.375 804.219L666.094 824H655.094L645.031 809.844L640.938 813.125V824H631.406V775.375H640.938Z" fill="#9E651E"/>
<mask id="mask0_1771_32" style="mask-type:luminance" maskUnits="userSpaceOnUse" x="209" y="130" width="504" height="465">
<path d="M209 130H712.146V594.448H209V130Z" fill="white"/>
</mask>
<g mask="url(#mask0_1771_32)">
<path d="M544.01 209.891C544.01 205.708 547.422 202.307 551.594 202.307C555.797 202.307 559.177 205.719 559.177 209.891V228.135C559.177 232.307 555.797 235.719 551.594 235.719C547.411 235.719 544.01 232.307 544.01 228.135V209.891ZM449.177 250.885C446.198 247.943 446.198 243.12 449.177 240.172C452.125 237.224 456.917 237.224 459.896 240.172L470.521 250.802C473.469 253.781 473.469 258.568 470.521 261.516C467.578 264.495 462.755 264.495 459.807 261.516L449.177 250.885ZM643.339 240.172C646.286 237.224 651.073 237.224 654.052 240.172C657 243.12 657 247.943 654.052 250.885L643.427 261.516C640.448 264.495 635.656 264.495 632.708 261.516C629.729 258.568 629.729 253.781 632.708 250.802L643.339 240.172ZM495.464 220.974C494.359 216.922 496.786 212.771 500.802 211.698C504.854 210.63 509.005 213.021 510.078 217.042L514.349 232.922C515.422 236.943 512.995 241.125 508.974 242.198C504.922 243.271 500.771 240.875 499.698 236.823L495.464 220.974ZM593.12 217.042C594.229 213.021 598.375 210.63 602.396 211.698C606.448 212.771 608.844 216.922 607.771 220.974L603.531 236.823C602.427 240.875 598.281 243.271 594.26 242.198C590.208 241.125 587.812 236.943 588.885 232.922L593.12 217.042ZM375.193 151.875C375.443 147.693 379.026 144.542 383.208 144.776C387.391 145.057 390.547 148.646 390.307 152.828L389.474 165.818C455.443 121.745 540.411 119.5 608.354 158.755C654.323 185.318 690.198 229.427 705.005 284.703C725.917 362.708 699.63 444.859 639.005 496.422C635.839 499.12 631.083 498.75 628.375 495.589C625.677 492.391 626.068 487.635 629.234 484.927C685.307 437.203 709.75 361.005 690.38 288.589C662.896 186.021 557.469 125.156 454.854 152.646C435.323 157.896 416.99 166.036 400.25 176.812L408.792 179.698C412.755 181.016 414.87 185.286 413.547 189.25C412.224 193.219 407.922 195.365 403.99 194.01L379.016 185.625C375.672 184.667 373.307 181.474 373.526 177.854L375.193 151.875ZM530.839 318.365L551.594 393.693L572.385 318.365H530.839ZM535.234 391.146L515.151 318.365H475.495L535.234 391.146ZM588.052 318.365L568 391.146L627.724 318.365H588.052ZM613.026 277.385L596.255 303.182H629.786L613.026 277.385ZM619.688 259.911L647.24 302.328C649.969 306.5 653.839 310.833 649.146 316.057L557.531 427.724C554.552 431.438 548.875 431.589 545.766 427.844L454.068 316.057C451.182 312.672 451.302 309.542 453.599 305.979L483.266 259.427C484.703 257.182 487.13 255.958 489.625 255.958V255.927H613.026C615.906 255.927 618.432 257.516 619.688 259.911ZM582.307 296.891L599.083 271.094H565.547L582.307 296.891ZM506.979 303.182L490.208 277.385L473.438 303.182H506.979ZM504.151 271.094L520.891 296.891L537.661 271.094H504.151ZM551.594 277.385L534.823 303.182H568.354L551.594 277.385ZM405.724 420.375C407.568 410.953 412.385 402.599 419.203 396.359C418.953 379.651 418.281 357.724 416.688 343.323C412.484 343.474 408.271 343.26 404.151 342.708C402.526 357.818 400.068 366.76 395.214 379.953C395.151 380.141 395.062 380.323 395 380.505C391.312 389.38 386.828 396.964 381.76 403.203C381.76 411.807 381.854 418.318 382.193 423.411C382.292 424.516 382.344 425.5 382.443 426.391C385.604 422.672 390.177 420.365 395.245 420.365H405.724V420.375ZM434.161 387.333C459.526 378.276 486.99 394.094 492.115 420.375H502.594C511.682 420.375 518.844 427.688 519.698 436.745L532.938 574.917C533.922 585.208 526.094 594.505 515.797 594.505H217.005C212.823 594.505 209.422 591.125 209.422 586.917V511.276C209.422 486.885 220.047 464.807 237.057 449.49C236.323 417.516 236.042 355.047 241.51 328.677C248.88 293.172 266.724 267.682 288.682 252.88C316.505 234.115 351.391 232.276 380.167 249.719C407.839 266.458 424.172 296.74 430.688 333.953C432.776 345.969 433.76 370.042 434.161 387.333ZM476.547 420.375C471.141 402.63 450.469 394.516 434.411 403.854C434.479 409.292 434.51 414.818 434.479 420.375H476.547ZM404.922 488.339C404.823 484.167 408.151 480.693 412.323 480.604C416.469 480.505 419.938 483.833 420.026 487.969C420.641 513.182 451.13 525.5 469.104 507.958C474.328 502.859 477.609 495.828 477.792 487.969C477.891 483.823 481.359 480.505 485.526 480.604C489.677 480.703 492.995 484.167 492.896 488.339C492.344 512.229 472.776 531.339 448.922 531.339C425.042 531.339 405.505 512.24 404.922 488.339ZM365 579.37C364.812 577.927 364.781 576.453 364.901 574.917L377.25 446.172C354.219 466.38 323.417 466.073 302.224 443.224H292.672C255.24 443.224 224.589 473.875 224.589 511.286V579.37H270.719V524.667C270.719 520.495 274.13 517.083 278.302 517.083C282.474 517.083 285.885 520.495 285.885 524.667V579.37H365ZM502.583 435.557H395.245C393.99 435.557 393.286 437.062 393.188 438.198L379.984 576.333C379.828 577.687 380.719 579.38 382.01 579.38H515.786C517.229 579.38 518 577.604 517.88 576.333L504.641 438.198C504.552 436.995 503.818 435.557 502.583 435.557ZM389.286 339.271C372.365 333.531 357.719 322.078 348.073 306.682C331.12 321.766 310.516 331.958 288.432 336.312C289.323 352.219 293.719 375.198 302.776 386.281C302.995 386.531 303.177 386.802 303.328 387.083C316.073 407.474 337.448 417.396 357.87 404.625C378.693 391.599 387.026 362.589 389.286 339.271ZM273.417 338.349C267.37 338.818 261.25 338.839 255.12 338.417C251.833 361.354 251.552 411.354 251.99 438.75C264.026 431.938 277.901 428.068 292.682 428.068H299.495C299.714 426.932 299.896 425.557 300.047 423.953C300.448 419.984 300.599 414.828 300.667 408.135C297.135 404.516 293.818 400.333 290.807 395.578C285.521 389 281.099 379.089 278.031 367.474C275.693 358.62 274.068 348.646 273.417 338.349ZM282.474 278.125C270.839 290.682 262.672 306.995 258.302 323.453C273.016 324.193 287.568 321.979 301.208 317.161C317.359 311.417 332.161 301.99 344.328 289.339C347.979 285.339 354.589 286.057 356.917 291.214C367.146 313.875 389.656 328.187 414.13 328.255C408.052 300.703 394.781 276.229 372.365 262.62C344.578 245.797 311.901 251.568 288.734 271.958L282.474 278.125ZM366.786 416.911C350.938 427.255 332.115 428.276 315.495 419.422C315.281 424.245 314.88 429.219 313.74 433.401C329.958 450.323 351.76 449.281 368.344 433.833C367.208 428.911 366.906 422.719 366.786 416.911Z" fill="#9E651E"/>
</g>
</svg>
