<svg xmlns="http://www.w3.org/2000/svg" xmlns:xlink="http://www.w3.org/1999/xlink" width="1080" zoomAndPan="magnify" viewBox="0 0 810 809.999993" height="1080" preserveAspectRatio="xMidYMid meet" version="1.0"><metadata><ContainsAiGeneratedContent>Yes</ContainsAiGeneratedContent></metadata><defs><g/><clipPath id="63a34924c9"><path d="M 61.015625 66.820312 L 755.867188 66.820312 L 755.867188 743.179688 L 61.015625 743.179688 Z M 61.015625 66.820312 " clip-rule="nonzero"/></clipPath><clipPath id="11ae31e2b9"><path d="M 85.90625 66.820312 L 731.289062 66.820312 C 737.890625 66.820312 744.21875 69.441406 748.886719 74.109375 C 753.554688 78.777344 756.179688 85.109375 756.179688 91.710938 L 756.179688 718.289062 C 756.179688 724.890625 753.554688 731.222656 748.886719 735.890625 C 744.21875 740.558594 737.890625 743.179688 731.289062 743.179688 L 85.90625 743.179688 C 79.304688 743.179688 72.972656 740.558594 68.304688 735.890625 C 63.636719 731.222656 61.015625 724.890625 61.015625 718.289062 L 61.015625 91.710938 C 61.015625 85.109375 63.636719 78.777344 68.304688 74.109375 C 72.972656 69.441406 79.304688 66.820312 85.90625 66.820312 Z M 85.90625 66.820312 " clip-rule="nonzero"/></clipPath><radialGradient gradientTransform="matrix(1, 0, 0, 1, 61.005855, 66.820569)" gradientUnits="userSpaceOnUse" r="484.951896" cx="347.579743" id="84f0cdf037" cy="338.179415" fx="347.579743" fy="338.179415"><stop stop-opacity="1" stop-color="rgb(100%, 99.957275%, 99.833679%)" offset="0"/><stop stop-opacity="1" stop-color="rgb(100%, 99.87793%, 99.5224%)" offset="0.03125"/><stop stop-opacity="1" stop-color="rgb(100%, 99.803162%, 99.232483%)" offset="0.0585938"/><stop stop-opacity="1" stop-color="rgb(100%, 99.729919%, 98.944092%)" offset="0.0859375"/><stop stop-opacity="1" stop-color="rgb(100%, 99.656677%, 98.654175%)" offset="0.113281"/><stop stop-opacity="1" stop-color="rgb(100%, 99.588013%, 98.384094%)" offset="0.140625"/><stop stop-opacity="1" stop-color="rgb(100%, 99.523926%, 98.135376%)" offset="0.164062"/><stop stop-opacity="1" stop-color="rgb(100%, 99.461365%, 97.886658%)" offset="0.1875"/><stop stop-opacity="1" stop-color="rgb(100%, 99.397278%, 97.637939%)" offset="0.210938"/><stop stop-opacity="1" stop-color="rgb(100%, 99.334717%, 97.390747%)" offset="0.234375"/><stop stop-opacity="1" stop-color="rgb(100%, 99.276733%, 97.163391%)" offset="0.257812"/><stop stop-opacity="1" stop-color="rgb(100%, 99.223328%, 96.955872%)" offset="0.277344"/><stop stop-opacity="1" stop-color="rgb(100%, 99.171448%, 96.748352%)" offset="0.296875"/><stop stop-opacity="1" stop-color="rgb(100%, 99.118042%, 96.540833%)" offset="0.316406"/><stop stop-opacity="1" stop-color="rgb(100%, 99.066162%, 96.334839%)" offset="0.335938"/><stop stop-opacity="1" stop-color="rgb(100%, 99.012756%, 96.127319%)" offset="0.355469"/><stop stop-opacity="1" stop-color="rgb(100%, 98.959351%, 95.9198%)" offset="0.375"/><stop stop-opacity="1" stop-color="rgb(100%, 98.886108%, 95.631409%)" offset="0.394531"/><stop stop-opacity="1" stop-color="rgb(100%, 98.791504%, 95.257568%)" offset="0.429688"/><stop stop-opacity="1" stop-color="rgb(100%, 98.701477%, 94.90509%)" offset="0.464844"/><stop stop-opacity="1" stop-color="rgb(100%, 98.617554%, 94.573975%)" offset="0.496094"/><stop stop-opacity="1" stop-color="rgb(100%, 98.538208%, 94.264221%)" offset="0.527344"/><stop stop-opacity="1" stop-color="rgb(100%, 98.464966%, 93.974304%)" offset="0.554688"/><stop stop-opacity="1" stop-color="rgb(100%, 98.396301%, 93.704224%)" offset="0.582031"/><stop stop-opacity="1" stop-color="rgb(100%, 98.332214%, 93.457031%)" offset="0.605469"/><stop stop-opacity="1" stop-color="rgb(100%, 98.274231%, 93.229675%)" offset="0.628906"/><stop stop-opacity="1" stop-color="rgb(100%, 98.222351%, 93.022156%)" offset="0.648438"/><stop stop-opacity="1" stop-color="rgb(100%, 98.168945%, 92.814636%)" offset="0.667969"/><stop stop-opacity="1" stop-color="rgb(100%, 98.11554%, 92.608643%)" offset="0.6875"/><stop stop-opacity="1" stop-color="rgb(100%, 98.042297%, 92.318726%)" offset="0.707031"/><stop stop-opacity="1" stop-color="rgb(100%, 97.952271%, 91.966248%)" offset="0.742188"/><stop stop-opacity="1" stop-color="rgb(100%, 97.874451%, 91.656494%)" offset="0.773438"/><stop stop-opacity="1" stop-color="rgb(100%, 97.805786%, 91.386414%)" offset="0.800781"/><stop stop-opacity="1" stop-color="rgb(100%, 97.747803%, 91.159058%)" offset="0.824219"/><stop stop-opacity="1" stop-color="rgb(100%, 97.694397%, 90.951538%)" offset="0.84375"/><stop stop-opacity="1" stop-color="rgb(100%, 97.625732%, 90.681458%)" offset="0.863281"/><stop stop-opacity="1" stop-color="rgb(100%, 97.55249%, 90.393066%)" offset="0.894531"/><stop stop-opacity="1" stop-color="rgb(100%, 97.494507%, 90.16571%)" offset="0.917969"/><stop stop-opacity="1" stop-color="rgb(100%, 97.425842%, 89.89563%)" offset="0.9375"/><stop stop-opacity="1" stop-color="rgb(100%, 97.340393%, 89.564514%)" offset="0.96875"/><stop stop-opacity="1" stop-color="rgb(100%, 97.299194%, 89.399719%)" offset="1"/></radialGradient><clipPath id="4a0c979bdb"><path d="M 61.019531 66.820312 L 756.265625 66.820312 L 756.265625 743.320312 L 61.019531 743.320312 Z M 61.019531 66.820312 " clip-rule="nonzero"/></clipPath><clipPath id="3147d106d9"><path d="M 85.910156 66.820312 L 731.277344 66.820312 C 737.878906 66.820312 744.210938 69.441406 748.878906 74.109375 C 753.546875 78.777344 756.167969 85.109375 756.167969 91.710938 L 756.167969 718.277344 C 756.167969 724.878906 753.546875 731.210938 748.878906 735.878906 C 744.210938 740.546875 737.878906 743.167969 731.277344 743.167969 L 85.910156 743.167969 C 79.308594 743.167969 72.976562 740.546875 68.308594 735.878906 C 63.640625 731.210938 61.019531 724.878906 61.019531 718.277344 L 61.019531 91.710938 C 61.019531 85.109375 63.640625 78.777344 68.308594 74.109375 C 72.976562 69.441406 79.308594 66.820312 85.910156 66.820312 Z M 85.910156 66.820312 " clip-rule="nonzero"/></clipPath><clipPath id="4412888b28"><path d="M 214.640625 158 L 592 158 L 592 506.335938 L 214.640625 506.335938 Z M 214.640625 158 " clip-rule="nonzero"/></clipPath></defs><g clip-path="url(#63a34924c9)"><g clip-path="url(#11ae31e2b9)"><path fill="url(#84f0cdf037)" d="M 61.015625 66.820312 L 61.015625 743.179688 L 755.867188 743.179688 L 755.867188 66.820312 Z M 61.015625 66.820312 " fill-rule="nonzero"/></g></g><g clip-path="url(#4a0c979bdb)"><g clip-path="url(#3147d106d9)"><path stroke-linecap="butt" transform="matrix(0.75, 0, 0, 0.75, 61.018784, 66.820565)" fill="none" stroke-linejoin="miter" d="M 33.188496 -0.000336184 L 893.678068 -0.000336184 C 902.480151 -0.000336184 910.922859 3.494455 917.146818 9.718414 C 923.370776 15.942372 926.865567 24.38508 926.865567 33.187163 L 926.865567 868.609027 C 926.865567 877.41111 923.370776 885.853818 917.146818 892.077777 C 910.922859 898.301735 902.480151 901.796526 893.678068 901.796526 L 33.188496 901.796526 C 24.386413 901.796526 15.943705 898.301735 9.719747 892.077777 C 3.495788 885.853818 0.000996826 877.41111 0.000996826 868.609027 L 0.000996826 33.187163 C 0.000996826 24.38508 3.495788 15.942372 9.719747 9.718414 C 15.943705 3.494455 24.386413 -0.000336184 33.188496 -0.000336184 Z M 33.188496 -0.000336184 " stroke="#e4b974" stroke-width="8" stroke-opacity="1" stroke-miterlimit="4"/></g></g><g fill="#9e651e" fill-opacity="1"><g transform="translate(198.292626, 625.124053)"><g><path d="M 4.0625 0 L 4.0625 -32.265625 L 10.90625 -32.265625 L 10.90625 -5.65625 L 23.984375 -5.65625 L 23.984375 0 Z M 4.0625 0 "/></g></g></g><g fill="#9e651e" fill-opacity="1"><g transform="translate(223.827541, 625.124053)"><g><path d="M 10.265625 -24.671875 L 10.265625 0 L 3.53125 0 L 3.53125 -24.671875 Z M 6.90625 -34.34375 C 7.90625 -34.34375 8.765625 -34.109375 9.484375 -33.640625 C 10.210938 -33.179688 10.578125 -32.320312 10.578125 -31.0625 C 10.578125 -29.800781 10.210938 -28.929688 9.484375 -28.453125 C 8.765625 -27.984375 7.90625 -27.75 6.90625 -27.75 C 5.894531 -27.75 5.03125 -27.984375 4.3125 -28.453125 C 3.601562 -28.929688 3.25 -29.800781 3.25 -31.0625 C 3.25 -32.320312 3.601562 -33.179688 4.3125 -33.640625 C 5.03125 -34.109375 5.894531 -34.34375 6.90625 -34.34375 Z M 6.90625 -34.34375 "/></g></g></g><g fill="#9e651e" fill-opacity="1"><g transform="translate(237.621253, 625.124053)"><g><path d="M 17.171875 -19.625 L 11.34375 -19.625 L 11.34375 0 L 4.609375 0 L 4.609375 -19.625 L 0.90625 -19.625 L 0.90625 -22.859375 L 4.609375 -24.671875 L 4.609375 -26.484375 C 4.609375 -28.585938 4.960938 -30.222656 5.671875 -31.390625 C 6.390625 -32.566406 7.398438 -33.394531 8.703125 -33.875 C 10.003906 -34.351562 11.546875 -34.59375 13.328125 -34.59375 C 14.640625 -34.59375 15.832031 -34.484375 16.90625 -34.265625 C 17.976562 -34.054688 18.851562 -33.816406 19.53125 -33.546875 L 17.8125 -28.609375 C 17.300781 -28.765625 16.742188 -28.910156 16.140625 -29.046875 C 15.535156 -29.179688 14.84375 -29.25 14.0625 -29.25 C 13.113281 -29.25 12.421875 -28.960938 11.984375 -28.390625 C 11.554688 -27.828125 11.34375 -27.101562 11.34375 -26.21875 L 11.34375 -24.671875 L 17.171875 -24.671875 Z M 17.171875 -19.625 "/></g></g></g><g fill="#9e651e" fill-opacity="1"><g transform="translate(255.122713, 625.124053)"><g><path d="M 13.703125 -25.140625 C 15.984375 -25.140625 17.945312 -24.703125 19.59375 -23.828125 C 21.25 -22.953125 22.523438 -21.679688 23.421875 -20.015625 C 24.316406 -18.359375 24.765625 -16.328125 24.765625 -13.921875 L 24.765625 -10.65625 L 8.84375 -10.65625 C 8.925781 -8.757812 9.5 -7.269531 10.5625 -6.1875 C 11.625 -5.101562 13.109375 -4.5625 15.015625 -4.5625 C 16.585938 -4.5625 18.023438 -4.722656 19.328125 -5.046875 C 20.640625 -5.378906 21.988281 -5.867188 23.375 -6.515625 L 23.375 -1.296875 C 22.15625 -0.691406 20.878906 -0.253906 19.546875 0.015625 C 18.210938 0.296875 16.597656 0.4375 14.703125 0.4375 C 12.222656 0.4375 10.03125 -0.015625 8.125 -0.921875 C 6.226562 -1.835938 4.738281 -3.226562 3.65625 -5.09375 C 2.570312 -6.96875 2.03125 -9.320312 2.03125 -12.15625 C 2.03125 -15.039062 2.519531 -17.441406 3.5 -19.359375 C 4.476562 -21.285156 5.84375 -22.726562 7.59375 -23.6875 C 9.34375 -24.65625 11.378906 -25.140625 13.703125 -25.140625 Z M 13.75 -20.34375 C 12.4375 -20.34375 11.347656 -19.921875 10.484375 -19.078125 C 9.628906 -18.242188 9.132812 -16.929688 9 -15.140625 L 18.453125 -15.140625 C 18.441406 -16.140625 18.257812 -17.03125 17.90625 -17.8125 C 17.5625 -18.59375 17.046875 -19.207031 16.359375 -19.65625 C 15.679688 -20.113281 14.8125 -20.34375 13.75 -20.34375 Z M 13.75 -20.34375 "/></g></g></g><g fill="#9e651e" fill-opacity="1"><g transform="translate(281.827328, 625.124053)"><g><path d="M 13.921875 -4.921875 C 14.660156 -4.921875 15.378906 -4.992188 16.078125 -5.140625 C 16.773438 -5.285156 17.472656 -5.46875 18.171875 -5.6875 L 18.171875 -0.6875 C 17.441406 -0.363281 16.546875 -0.0976562 15.484375 0.109375 C 14.421875 0.328125 13.253906 0.4375 11.984375 0.4375 C 10.515625 0.4375 9.191406 0.195312 8.015625 -0.28125 C 6.847656 -0.757812 5.929688 -1.585938 5.265625 -2.765625 C 4.597656 -3.953125 4.265625 -5.601562 4.265625 -7.71875 L 4.265625 -19.625 L 1.03125 -19.625 L 1.03125 -22.46875 L 4.75 -24.71875 L 6.6875 -29.921875 L 10.984375 -29.921875 L 10.984375 -24.671875 L 17.90625 -24.671875 L 17.90625 -19.625 L 10.984375 -19.625 L 10.984375 -7.71875 C 10.984375 -6.78125 11.253906 -6.078125 11.796875 -5.609375 C 12.335938 -5.148438 13.046875 -4.921875 13.921875 -4.921875 Z M 13.921875 -4.921875 "/></g></g></g><g fill="#9e651e" fill-opacity="1"><g transform="translate(301.447502, 625.124053)"><g><path d="M 10.265625 -24.671875 L 10.265625 0 L 3.53125 0 L 3.53125 -24.671875 Z M 6.90625 -34.34375 C 7.90625 -34.34375 8.765625 -34.109375 9.484375 -33.640625 C 10.210938 -33.179688 10.578125 -32.320312 10.578125 -31.0625 C 10.578125 -29.800781 10.210938 -28.929688 9.484375 -28.453125 C 8.765625 -27.984375 7.90625 -27.75 6.90625 -27.75 C 5.894531 -27.75 5.03125 -27.984375 4.3125 -28.453125 C 3.601562 -28.929688 3.25 -29.800781 3.25 -31.0625 C 3.25 -32.320312 3.601562 -33.179688 4.3125 -33.640625 C 5.03125 -34.109375 5.894531 -34.34375 6.90625 -34.34375 Z M 6.90625 -34.34375 "/></g></g></g><g fill="#9e651e" fill-opacity="1"><g transform="translate(315.241214, 625.124053)"><g><path d="M 32.515625 -25.140625 C 35.304688 -25.140625 37.421875 -24.421875 38.859375 -22.984375 C 40.296875 -21.546875 41.015625 -19.25 41.015625 -16.09375 L 41.015625 0 L 34.25 0 L 34.25 -14.40625 C 34.25 -16.175781 33.945312 -17.507812 33.34375 -18.40625 C 32.75 -19.300781 31.816406 -19.75 30.546875 -19.75 C 28.765625 -19.75 27.5 -19.113281 26.75 -17.84375 C 26 -16.570312 25.625 -14.75 25.625 -12.375 L 25.625 0 L 18.890625 0 L 18.890625 -14.40625 C 18.890625 -15.582031 18.753906 -16.566406 18.484375 -17.359375 C 18.222656 -18.160156 17.820312 -18.757812 17.28125 -19.15625 C 16.738281 -19.550781 16.039062 -19.75 15.1875 -19.75 C 13.9375 -19.75 12.953125 -19.4375 12.234375 -18.8125 C 11.523438 -18.1875 11.019531 -17.265625 10.71875 -16.046875 C 10.414062 -14.835938 10.265625 -13.359375 10.265625 -11.609375 L 10.265625 0 L 3.53125 0 L 3.53125 -24.671875 L 8.671875 -24.671875 L 9.578125 -21.515625 L 9.953125 -21.515625 C 10.453125 -22.367188 11.082031 -23.0625 11.84375 -23.59375 C 12.601562 -24.125 13.4375 -24.515625 14.34375 -24.765625 C 15.257812 -25.015625 16.1875 -25.140625 17.125 -25.140625 C 18.9375 -25.140625 20.46875 -24.84375 21.71875 -24.25 C 22.976562 -23.664062 23.945312 -22.753906 24.625 -21.515625 L 25.234375 -21.515625 C 25.960938 -22.785156 27 -23.707031 28.34375 -24.28125 C 29.695312 -24.851562 31.085938 -25.140625 32.515625 -25.140625 Z M 32.515625 -25.140625 "/></g></g></g><g fill="#9e651e" fill-opacity="1"><g transform="translate(359.623849, 625.124053)"><g><path d="M 13.703125 -25.140625 C 15.984375 -25.140625 17.945312 -24.703125 19.59375 -23.828125 C 21.25 -22.953125 22.523438 -21.679688 23.421875 -20.015625 C 24.316406 -18.359375 24.765625 -16.328125 24.765625 -13.921875 L 24.765625 -10.65625 L 8.84375 -10.65625 C 8.925781 -8.757812 9.5 -7.269531 10.5625 -6.1875 C 11.625 -5.101562 13.109375 -4.5625 15.015625 -4.5625 C 16.585938 -4.5625 18.023438 -4.722656 19.328125 -5.046875 C 20.640625 -5.378906 21.988281 -5.867188 23.375 -6.515625 L 23.375 -1.296875 C 22.15625 -0.691406 20.878906 -0.253906 19.546875 0.015625 C 18.210938 0.296875 16.597656 0.4375 14.703125 0.4375 C 12.222656 0.4375 10.03125 -0.015625 8.125 -0.921875 C 6.226562 -1.835938 4.738281 -3.226562 3.65625 -5.09375 C 2.570312 -6.96875 2.03125 -9.320312 2.03125 -12.15625 C 2.03125 -15.039062 2.519531 -17.441406 3.5 -19.359375 C 4.476562 -21.285156 5.84375 -22.726562 7.59375 -23.6875 C 9.34375 -24.65625 11.378906 -25.140625 13.703125 -25.140625 Z M 13.75 -20.34375 C 12.4375 -20.34375 11.347656 -19.921875 10.484375 -19.078125 C 9.628906 -18.242188 9.132812 -16.929688 9 -15.140625 L 18.453125 -15.140625 C 18.441406 -16.140625 18.257812 -17.03125 17.90625 -17.8125 C 17.5625 -18.59375 17.046875 -19.207031 16.359375 -19.65625 C 15.679688 -20.113281 14.8125 -20.34375 13.75 -20.34375 Z M 13.75 -20.34375 "/></g></g></g><g fill="#9e651e" fill-opacity="1"><g transform="translate(386.328463, 625.124053)"><g/></g></g><g fill="#9e651e" fill-opacity="1"><g transform="translate(398.069655, 625.124053)"><g><path d="M 22.640625 0 L 4.0625 0 L 4.0625 -32.265625 L 22.640625 -32.265625 L 22.640625 -26.65625 L 10.90625 -26.65625 L 10.90625 -19.578125 L 21.828125 -19.578125 L 21.828125 -13.96875 L 10.90625 -13.96875 L 10.90625 -5.65625 L 22.640625 -5.65625 Z M 22.640625 0 "/></g></g></g><g fill="#9e651e" fill-opacity="1"><g transform="translate(423.38387, 625.124053)"><g><path d="M 8.59375 -12.609375 L 0.640625 -24.671875 L 8.28125 -24.671875 L 13.0625 -16.8125 L 17.90625 -24.671875 L 25.53125 -24.671875 L 17.5 -12.609375 L 25.90625 0 L 18.25 0 L 13.0625 -8.453125 L 7.859375 0 L 0.21875 0 Z M 8.59375 -12.609375 "/></g></g></g><g fill="#9e651e" fill-opacity="1"><g transform="translate(449.514667, 625.124053)"><g><path d="M 13.546875 0.4375 C 11.109375 0.4375 9.023438 -0.00390625 7.296875 -0.890625 C 5.578125 -1.785156 4.269531 -3.164062 3.375 -5.03125 C 2.476562 -6.894531 2.03125 -9.285156 2.03125 -12.203125 C 2.03125 -15.222656 2.539062 -17.6875 3.5625 -19.59375 C 4.582031 -21.5 6 -22.898438 7.8125 -23.796875 C 9.632812 -24.691406 11.742188 -25.140625 14.140625 -25.140625 C 15.847656 -25.140625 17.320312 -24.972656 18.5625 -24.640625 C 19.8125 -24.304688 20.898438 -23.914062 21.828125 -23.46875 L 19.84375 -18.25 C 18.78125 -18.675781 17.789062 -19.023438 16.875 -19.296875 C 15.96875 -19.566406 15.054688 -19.703125 14.140625 -19.703125 C 12.960938 -19.703125 11.984375 -19.425781 11.203125 -18.875 C 10.429688 -18.332031 9.851562 -17.507812 9.46875 -16.40625 C 9.082031 -15.300781 8.890625 -13.914062 8.890625 -12.25 C 8.890625 -10.613281 9.09375 -9.257812 9.5 -8.1875 C 9.914062 -7.113281 10.515625 -6.316406 11.296875 -5.796875 C 12.078125 -5.273438 13.023438 -5.015625 14.140625 -5.015625 C 15.546875 -5.015625 16.789062 -5.203125 17.875 -5.578125 C 18.96875 -5.953125 20.03125 -6.476562 21.0625 -7.15625 L 21.0625 -1.390625 C 20.03125 -0.742188 18.953125 -0.28125 17.828125 0 C 16.703125 0.289062 15.273438 0.4375 13.546875 0.4375 Z M 13.546875 0.4375 "/></g></g></g><g fill="#9e651e" fill-opacity="1"><g transform="translate(472.754298, 625.124053)"><g><path d="M 10.265625 -34.34375 L 10.265625 -27.34375 C 10.265625 -26.125 10.222656 -24.960938 10.140625 -23.859375 C 10.054688 -22.753906 9.992188 -21.972656 9.953125 -21.515625 L 10.3125 -21.515625 C 10.84375 -22.367188 11.46875 -23.0625 12.1875 -23.59375 C 12.914062 -24.125 13.722656 -24.515625 14.609375 -24.765625 C 15.492188 -25.015625 16.441406 -25.140625 17.453125 -25.140625 C 19.234375 -25.140625 20.785156 -24.828125 22.109375 -24.203125 C 23.441406 -23.578125 24.472656 -22.597656 25.203125 -21.265625 C 25.941406 -19.929688 26.3125 -18.207031 26.3125 -16.09375 L 26.3125 0 L 19.578125 0 L 19.578125 -14.40625 C 19.578125 -16.175781 19.253906 -17.507812 18.609375 -18.40625 C 17.960938 -19.300781 16.960938 -19.75 15.609375 -19.75 C 14.253906 -19.75 13.1875 -19.4375 12.40625 -18.8125 C 11.625 -18.1875 11.070312 -17.265625 10.75 -16.046875 C 10.425781 -14.835938 10.265625 -13.359375 10.265625 -11.609375 L 10.265625 0 L 3.53125 0 L 3.53125 -34.34375 Z M 10.265625 -34.34375 "/></g></g></g><g fill="#9e651e" fill-opacity="1"><g transform="translate(502.460412, 625.124053)"><g><path d="M 13.640625 -25.1875 C 16.953125 -25.1875 19.488281 -24.460938 21.25 -23.015625 C 23.019531 -21.578125 23.90625 -19.382812 23.90625 -16.4375 L 23.90625 0 L 19.203125 0 L 17.90625 -3.359375 L 17.71875 -3.359375 C 17.019531 -2.472656 16.300781 -1.75 15.5625 -1.1875 C 14.820312 -0.632812 13.972656 -0.226562 13.015625 0.03125 C 12.066406 0.300781 10.90625 0.4375 9.53125 0.4375 C 8.070312 0.4375 6.765625 0.160156 5.609375 -0.390625 C 4.460938 -0.953125 3.554688 -1.8125 2.890625 -2.96875 C 2.222656 -4.125 1.890625 -5.59375 1.890625 -7.375 C 1.890625 -9.988281 2.8125 -11.914062 4.65625 -13.15625 C 6.5 -14.40625 9.257812 -15.097656 12.9375 -15.234375 L 17.21875 -15.359375 L 17.21875 -16.4375 C 17.21875 -17.738281 16.878906 -18.691406 16.203125 -19.296875 C 15.523438 -19.898438 14.582031 -20.203125 13.375 -20.203125 C 12.1875 -20.203125 11.015625 -20.03125 9.859375 -19.6875 C 8.710938 -19.351562 7.566406 -18.925781 6.421875 -18.40625 L 4.1875 -22.953125 C 5.5 -23.640625 6.96875 -24.179688 8.59375 -24.578125 C 10.21875 -24.984375 11.898438 -25.1875 13.640625 -25.1875 Z M 17.21875 -11.4375 L 14.609375 -11.34375 C 12.429688 -11.28125 10.921875 -10.890625 10.078125 -10.171875 C 9.234375 -9.453125 8.8125 -8.503906 8.8125 -7.328125 C 8.8125 -6.296875 9.109375 -5.5625 9.703125 -5.125 C 10.304688 -4.695312 11.097656 -4.484375 12.078125 -4.484375 C 13.515625 -4.484375 14.726562 -4.910156 15.71875 -5.765625 C 16.71875 -6.617188 17.21875 -7.832031 17.21875 -9.40625 Z M 17.21875 -11.4375 "/></g></g></g><g fill="#9e651e" fill-opacity="1"><g transform="translate(529.760932, 625.124053)"><g><path d="M 17.546875 -25.140625 C 20.179688 -25.140625 22.300781 -24.421875 23.90625 -22.984375 C 25.507812 -21.546875 26.3125 -19.25 26.3125 -16.09375 L 26.3125 0 L 19.578125 0 L 19.578125 -14.40625 C 19.578125 -16.175781 19.253906 -17.507812 18.609375 -18.40625 C 17.972656 -19.300781 16.972656 -19.75 15.609375 -19.75 C 13.546875 -19.75 12.140625 -19.050781 11.390625 -17.65625 C 10.640625 -16.257812 10.265625 -14.242188 10.265625 -11.609375 L 10.265625 0 L 3.53125 0 L 3.53125 -24.671875 L 8.671875 -24.671875 L 9.578125 -21.515625 L 9.953125 -21.515625 C 10.484375 -22.367188 11.140625 -23.0625 11.921875 -23.59375 C 12.710938 -24.125 13.585938 -24.515625 14.546875 -24.765625 C 15.515625 -25.015625 16.515625 -25.140625 17.546875 -25.140625 Z M 17.546875 -25.140625 "/></g></g></g><g fill="#9e651e" fill-opacity="1"><g transform="translate(559.467046, 625.124053)"><g><path d="M 10.75 10.859375 C 7.300781 10.859375 4.664062 10.257812 2.84375 9.0625 C 1.03125 7.863281 0.125 6.179688 0.125 4.015625 C 0.125 2.523438 0.585938 1.28125 1.515625 0.28125 C 2.441406 -0.71875 3.804688 -1.429688 5.609375 -1.859375 C 4.910156 -2.148438 4.304688 -2.628906 3.796875 -3.296875 C 3.285156 -3.960938 3.03125 -4.671875 3.03125 -5.421875 C 3.03125 -6.367188 3.300781 -7.15625 3.84375 -7.78125 C 4.382812 -8.40625 5.171875 -9.019531 6.203125 -9.625 C 4.910156 -10.1875 3.882812 -11.082031 3.125 -12.3125 C 2.363281 -13.550781 1.984375 -15.007812 1.984375 -16.6875 C 1.984375 -18.476562 2.375 -20.003906 3.15625 -21.265625 C 3.945312 -22.523438 5.097656 -23.484375 6.609375 -24.140625 C 8.117188 -24.804688 9.957031 -25.140625 12.125 -25.140625 C 12.570312 -25.140625 13.097656 -25.109375 13.703125 -25.046875 C 14.304688 -24.992188 14.863281 -24.929688 15.375 -24.859375 C 15.882812 -24.785156 16.226562 -24.722656 16.40625 -24.671875 L 25 -24.671875 L 25 -21.25 L 21.140625 -20.265625 C 21.492188 -19.710938 21.757812 -19.128906 21.9375 -18.515625 C 22.113281 -17.898438 22.203125 -17.242188 22.203125 -16.546875 C 22.203125 -13.898438 21.28125 -11.835938 19.4375 -10.359375 C 17.59375 -8.878906 15.03125 -8.140625 11.75 -8.140625 C 10.96875 -8.179688 10.226562 -8.242188 9.53125 -8.328125 C 9.195312 -8.054688 8.941406 -7.773438 8.765625 -7.484375 C 8.585938 -7.191406 8.5 -6.882812 8.5 -6.5625 C 8.5 -6.226562 8.632812 -5.953125 8.90625 -5.734375 C 9.175781 -5.523438 9.585938 -5.363281 10.140625 -5.25 C 10.691406 -5.144531 11.378906 -5.09375 12.203125 -5.09375 L 16.40625 -5.09375 C 19.101562 -5.09375 21.160156 -4.507812 22.578125 -3.34375 C 24.003906 -2.1875 24.71875 -0.484375 24.71875 1.765625 C 24.71875 4.648438 23.515625 6.882812 21.109375 8.46875 C 18.703125 10.0625 15.25 10.859375 10.75 10.859375 Z M 11.03125 6.46875 C 12.632812 6.46875 14.015625 6.316406 15.171875 6.015625 C 16.328125 5.710938 17.210938 5.285156 17.828125 4.734375 C 18.453125 4.179688 18.765625 3.523438 18.765625 2.765625 C 18.765625 2.140625 18.582031 1.644531 18.21875 1.28125 C 17.851562 0.925781 17.304688 0.675781 16.578125 0.53125 C 15.859375 0.382812 14.929688 0.3125 13.796875 0.3125 L 10.3125 0.3125 C 9.488281 0.3125 8.75 0.441406 8.09375 0.703125 C 7.4375 0.972656 6.914062 1.34375 6.53125 1.8125 C 6.144531 2.289062 5.953125 2.847656 5.953125 3.484375 C 5.953125 4.410156 6.394531 5.140625 7.28125 5.671875 C 8.175781 6.203125 9.425781 6.46875 11.03125 6.46875 Z M 12.125 -12.25 C 13.382812 -12.25 14.304688 -12.640625 14.890625 -13.421875 C 15.484375 -14.203125 15.78125 -15.257812 15.78125 -16.59375 C 15.78125 -18.082031 15.472656 -19.195312 14.859375 -19.9375 C 14.253906 -20.6875 13.34375 -21.0625 12.125 -21.0625 C 10.882812 -21.0625 9.953125 -20.6875 9.328125 -19.9375 C 8.710938 -19.195312 8.40625 -18.082031 8.40625 -16.59375 C 8.40625 -15.257812 8.707031 -14.203125 9.3125 -13.421875 C 9.925781 -12.640625 10.863281 -12.25 12.125 -12.25 Z M 12.125 -12.25 "/></g></g></g><g fill="#9e651e" fill-opacity="1"><g transform="translate(585.001973, 625.124053)"><g><path d="M 13.703125 -25.140625 C 15.984375 -25.140625 17.945312 -24.703125 19.59375 -23.828125 C 21.25 -22.953125 22.523438 -21.679688 23.421875 -20.015625 C 24.316406 -18.359375 24.765625 -16.328125 24.765625 -13.921875 L 24.765625 -10.65625 L 8.84375 -10.65625 C 8.925781 -8.757812 9.5 -7.269531 10.5625 -6.1875 C 11.625 -5.101562 13.109375 -4.5625 15.015625 -4.5625 C 16.585938 -4.5625 18.023438 -4.722656 19.328125 -5.046875 C 20.640625 -5.378906 21.988281 -5.867188 23.375 -6.515625 L 23.375 -1.296875 C 22.15625 -0.691406 20.878906 -0.253906 19.546875 0.015625 C 18.210938 0.296875 16.597656 0.4375 14.703125 0.4375 C 12.222656 0.4375 10.03125 -0.015625 8.125 -0.921875 C 6.226562 -1.835938 4.738281 -3.226562 3.65625 -5.09375 C 2.570312 -6.96875 2.03125 -9.320312 2.03125 -12.15625 C 2.03125 -15.039062 2.519531 -17.441406 3.5 -19.359375 C 4.476562 -21.285156 5.84375 -22.726562 7.59375 -23.6875 C 9.34375 -24.65625 11.378906 -25.140625 13.703125 -25.140625 Z M 13.75 -20.34375 C 12.4375 -20.34375 11.347656 -19.921875 10.484375 -19.078125 C 9.628906 -18.242188 9.132812 -16.929688 9 -15.140625 L 18.453125 -15.140625 C 18.441406 -16.140625 18.257812 -17.03125 17.90625 -17.8125 C 17.5625 -18.59375 17.046875 -19.207031 16.359375 -19.65625 C 15.679688 -20.113281 14.8125 -20.34375 13.75 -20.34375 Z M 13.75 -20.34375 "/></g></g></g><g fill="#9e651e" fill-opacity="1"><g transform="translate(251.683249, 681.37405)"><g><path d="M 13.640625 -25.1875 C 16.953125 -25.1875 19.488281 -24.460938 21.25 -23.015625 C 23.019531 -21.578125 23.90625 -19.382812 23.90625 -16.4375 L 23.90625 0 L 19.203125 0 L 17.90625 -3.359375 L 17.71875 -3.359375 C 17.019531 -2.472656 16.300781 -1.75 15.5625 -1.1875 C 14.820312 -0.632812 13.972656 -0.226562 13.015625 0.03125 C 12.066406 0.300781 10.90625 0.4375 9.53125 0.4375 C 8.070312 0.4375 6.765625 0.160156 5.609375 -0.390625 C 4.460938 -0.953125 3.554688 -1.8125 2.890625 -2.96875 C 2.222656 -4.125 1.890625 -5.59375 1.890625 -7.375 C 1.890625 -9.988281 2.8125 -11.914062 4.65625 -13.15625 C 6.5 -14.40625 9.257812 -15.097656 12.9375 -15.234375 L 17.21875 -15.359375 L 17.21875 -16.4375 C 17.21875 -17.738281 16.878906 -18.691406 16.203125 -19.296875 C 15.523438 -19.898438 14.582031 -20.203125 13.375 -20.203125 C 12.1875 -20.203125 11.015625 -20.03125 9.859375 -19.6875 C 8.710938 -19.351562 7.566406 -18.925781 6.421875 -18.40625 L 4.1875 -22.953125 C 5.5 -23.640625 6.96875 -24.179688 8.59375 -24.578125 C 10.21875 -24.984375 11.898438 -25.1875 13.640625 -25.1875 Z M 17.21875 -11.4375 L 14.609375 -11.34375 C 12.429688 -11.28125 10.921875 -10.890625 10.078125 -10.171875 C 9.234375 -9.453125 8.8125 -8.503906 8.8125 -7.328125 C 8.8125 -6.296875 9.109375 -5.5625 9.703125 -5.125 C 10.304688 -4.695312 11.097656 -4.484375 12.078125 -4.484375 C 13.515625 -4.484375 14.726562 -4.910156 15.71875 -5.765625 C 16.71875 -6.617188 17.21875 -7.832031 17.21875 -9.40625 Z M 17.21875 -11.4375 "/></g></g></g><g fill="#9e651e" fill-opacity="1"><g transform="translate(278.983758, 681.37405)"><g><path d="M 17.546875 -25.140625 C 20.179688 -25.140625 22.300781 -24.421875 23.90625 -22.984375 C 25.507812 -21.546875 26.3125 -19.25 26.3125 -16.09375 L 26.3125 0 L 19.578125 0 L 19.578125 -14.40625 C 19.578125 -16.175781 19.253906 -17.507812 18.609375 -18.40625 C 17.972656 -19.300781 16.972656 -19.75 15.609375 -19.75 C 13.546875 -19.75 12.140625 -19.050781 11.390625 -17.65625 C 10.640625 -16.257812 10.265625 -14.242188 10.265625 -11.609375 L 10.265625 0 L 3.53125 0 L 3.53125 -24.671875 L 8.671875 -24.671875 L 9.578125 -21.515625 L 9.953125 -21.515625 C 10.484375 -22.367188 11.140625 -23.0625 11.921875 -23.59375 C 12.710938 -24.125 13.585938 -24.515625 14.546875 -24.765625 C 15.515625 -25.015625 16.515625 -25.140625 17.546875 -25.140625 Z M 17.546875 -25.140625 "/></g></g></g><g fill="#9e651e" fill-opacity="1"><g transform="translate(308.689884, 681.37405)"><g><path d="M 11.34375 0.4375 C 8.59375 0.4375 6.351562 -0.640625 4.625 -2.796875 C 2.894531 -4.953125 2.03125 -8.117188 2.03125 -12.296875 C 2.03125 -16.515625 2.90625 -19.707031 4.65625 -21.875 C 6.40625 -24.050781 8.691406 -25.140625 11.515625 -25.140625 C 12.691406 -25.140625 13.726562 -24.976562 14.625 -24.65625 C 15.53125 -24.332031 16.304688 -23.894531 16.953125 -23.34375 C 17.609375 -22.800781 18.164062 -22.191406 18.625 -21.515625 L 18.84375 -21.515625 C 18.757812 -21.984375 18.65625 -22.675781 18.53125 -23.59375 C 18.40625 -24.519531 18.34375 -25.46875 18.34375 -26.4375 L 18.34375 -34.34375 L 25.09375 -34.34375 L 25.09375 0 L 19.9375 0 L 18.625 -3.203125 L 18.34375 -3.203125 C 17.914062 -2.523438 17.378906 -1.910156 16.734375 -1.359375 C 16.097656 -0.804688 15.335938 -0.367188 14.453125 -0.046875 C 13.566406 0.273438 12.53125 0.4375 11.34375 0.4375 Z M 13.703125 -4.921875 C 15.546875 -4.921875 16.84375 -5.46875 17.59375 -6.5625 C 18.351562 -7.65625 18.757812 -9.304688 18.8125 -11.515625 L 18.8125 -12.25 C 18.8125 -14.644531 18.441406 -16.476562 17.703125 -17.75 C 16.960938 -19.03125 15.59375 -19.671875 13.59375 -19.671875 C 12.101562 -19.671875 10.9375 -19.03125 10.09375 -17.75 C 9.257812 -16.46875 8.84375 -14.617188 8.84375 -12.203125 C 8.84375 -9.796875 9.265625 -7.976562 10.109375 -6.75 C 10.960938 -5.53125 12.160156 -4.921875 13.703125 -4.921875 Z M 13.703125 -4.921875 "/></g></g></g><g fill="#9e651e" fill-opacity="1"><g transform="translate(337.292513, 681.37405)"><g/></g></g><g fill="#9e651e" fill-opacity="1"><g transform="translate(349.033716, 681.37405)"><g><path d="M 4.0625 -32.265625 L 14.109375 -32.265625 C 18.398438 -32.265625 21.648438 -31.660156 23.859375 -30.453125 C 26.066406 -29.253906 27.171875 -27.140625 27.171875 -24.109375 C 27.171875 -22.878906 26.972656 -21.769531 26.578125 -20.78125 C 26.191406 -19.800781 25.628906 -18.992188 24.890625 -18.359375 C 24.160156 -17.734375 23.265625 -17.320312 22.203125 -17.125 L 22.203125 -16.90625 C 23.273438 -16.6875 24.242188 -16.304688 25.109375 -15.765625 C 25.984375 -15.234375 26.679688 -14.453125 27.203125 -13.421875 C 27.722656 -12.398438 27.984375 -11.046875 27.984375 -9.359375 C 27.984375 -7.398438 27.503906 -5.722656 26.546875 -4.328125 C 25.597656 -2.929688 24.234375 -1.859375 22.453125 -1.109375 C 20.679688 -0.367188 18.578125 0 16.140625 0 L 4.0625 0 Z M 10.90625 -19.484375 L 14.875 -19.484375 C 16.863281 -19.484375 18.238281 -19.796875 19 -20.421875 C 19.769531 -21.046875 20.15625 -21.972656 20.15625 -23.203125 C 20.15625 -24.429688 19.703125 -25.3125 18.796875 -25.84375 C 17.890625 -26.382812 16.457031 -26.65625 14.5 -26.65625 L 10.90625 -26.65625 Z M 10.90625 -14.0625 L 10.90625 -5.65625 L 15.359375 -5.65625 C 17.421875 -5.65625 18.851562 -6.050781 19.65625 -6.84375 C 20.46875 -7.632812 20.875 -8.703125 20.875 -10.046875 C 20.875 -10.835938 20.695312 -11.535156 20.34375 -12.140625 C 20 -12.742188 19.410156 -13.210938 18.578125 -13.546875 C 17.742188 -13.890625 16.597656 -14.0625 15.140625 -14.0625 Z M 10.90625 -14.0625 "/></g></g></g><g fill="#9e651e" fill-opacity="1"><g transform="translate(379.40194, 681.37405)"><g><path d="M 26.171875 -24.671875 L 26.171875 0 L 21.015625 0 L 20.109375 -3.15625 L 19.75 -3.15625 C 19.21875 -2.3125 18.554688 -1.625 17.765625 -1.09375 C 16.972656 -0.570312 16.097656 -0.1875 15.140625 0.0625 C 14.179688 0.3125 13.1875 0.4375 12.15625 0.4375 C 10.394531 0.4375 8.859375 0.125 7.546875 -0.5 C 6.234375 -1.125 5.210938 -2.097656 4.484375 -3.421875 C 3.765625 -4.742188 3.40625 -6.46875 3.40625 -8.59375 L 3.40625 -24.671875 L 10.125 -24.671875 L 10.125 -10.265625 C 10.125 -8.492188 10.441406 -7.160156 11.078125 -6.265625 C 11.710938 -5.367188 12.722656 -4.921875 14.109375 -4.921875 C 15.472656 -4.921875 16.546875 -5.234375 17.328125 -5.859375 C 18.109375 -6.484375 18.65625 -7.398438 18.96875 -8.609375 C 19.28125 -9.828125 19.4375 -11.3125 19.4375 -13.0625 L 19.4375 -24.671875 Z M 26.171875 -24.671875 "/></g></g></g><g fill="#9e651e" fill-opacity="1"><g transform="translate(409.108066, 681.37405)"><g><path d="M 0 -24.671875 L 7.375 -24.671875 L 12.03125 -10.796875 C 12.175781 -10.347656 12.300781 -9.894531 12.40625 -9.4375 C 12.507812 -8.988281 12.597656 -8.519531 12.671875 -8.03125 C 12.742188 -7.550781 12.800781 -7.046875 12.84375 -6.515625 L 12.984375 -6.515625 C 13.066406 -7.304688 13.1875 -8.046875 13.34375 -8.734375 C 13.5 -9.429688 13.691406 -10.117188 13.921875 -10.796875 L 18.5 -24.671875 L 25.71875 -24.671875 L 15.28125 3.15625 C 14.644531 4.863281 13.816406 6.285156 12.796875 7.421875 C 11.785156 8.566406 10.617188 9.425781 9.296875 10 C 7.984375 10.570312 6.539062 10.859375 4.96875 10.859375 C 4.195312 10.859375 3.53125 10.816406 2.96875 10.734375 C 2.414062 10.648438 1.941406 10.566406 1.546875 10.484375 L 1.546875 5.140625 C 1.859375 5.210938 2.25 5.273438 2.71875 5.328125 C 3.1875 5.390625 3.675781 5.421875 4.1875 5.421875 C 5.132812 5.421875 5.945312 5.222656 6.625 4.828125 C 7.300781 4.429688 7.863281 3.898438 8.3125 3.234375 C 8.769531 2.566406 9.132812 1.832031 9.40625 1.03125 L 9.796875 -0.171875 Z M 0 -24.671875 "/></g></g></g><g fill="#9e651e" fill-opacity="1"><g transform="translate(434.81954, 681.37405)"><g><path d="M 1.34375 -9.359375 L 1.34375 -14.875 L 13.203125 -14.875 L 13.203125 -9.359375 Z M 1.34375 -9.359375 "/></g></g></g><g fill="#9e651e" fill-opacity="1"><g transform="translate(449.363629, 681.37405)"><g><path d="M 4.0625 -32.265625 L 14.109375 -32.265625 C 18.398438 -32.265625 21.648438 -31.660156 23.859375 -30.453125 C 26.066406 -29.253906 27.171875 -27.140625 27.171875 -24.109375 C 27.171875 -22.878906 26.972656 -21.769531 26.578125 -20.78125 C 26.191406 -19.800781 25.628906 -18.992188 24.890625 -18.359375 C 24.160156 -17.734375 23.265625 -17.320312 22.203125 -17.125 L 22.203125 -16.90625 C 23.273438 -16.6875 24.242188 -16.304688 25.109375 -15.765625 C 25.984375 -15.234375 26.679688 -14.453125 27.203125 -13.421875 C 27.722656 -12.398438 27.984375 -11.046875 27.984375 -9.359375 C 27.984375 -7.398438 27.503906 -5.722656 26.546875 -4.328125 C 25.597656 -2.929688 24.234375 -1.859375 22.453125 -1.109375 C 20.679688 -0.367188 18.578125 0 16.140625 0 L 4.0625 0 Z M 10.90625 -19.484375 L 14.875 -19.484375 C 16.863281 -19.484375 18.238281 -19.796875 19 -20.421875 C 19.769531 -21.046875 20.15625 -21.972656 20.15625 -23.203125 C 20.15625 -24.429688 19.703125 -25.3125 18.796875 -25.84375 C 17.890625 -26.382812 16.457031 -26.65625 14.5 -26.65625 L 10.90625 -26.65625 Z M 10.90625 -14.0625 L 10.90625 -5.65625 L 15.359375 -5.65625 C 17.421875 -5.65625 18.851562 -6.050781 19.65625 -6.84375 C 20.46875 -7.632812 20.875 -8.703125 20.875 -10.046875 C 20.875 -10.835938 20.695312 -11.535156 20.34375 -12.140625 C 20 -12.742188 19.410156 -13.210938 18.578125 -13.546875 C 17.742188 -13.890625 16.597656 -14.0625 15.140625 -14.0625 Z M 10.90625 -14.0625 "/></g></g></g><g fill="#9e651e" fill-opacity="1"><g transform="translate(479.731853, 681.37405)"><g><path d="M 13.640625 -25.1875 C 16.953125 -25.1875 19.488281 -24.460938 21.25 -23.015625 C 23.019531 -21.578125 23.90625 -19.382812 23.90625 -16.4375 L 23.90625 0 L 19.203125 0 L 17.90625 -3.359375 L 17.71875 -3.359375 C 17.019531 -2.472656 16.300781 -1.75 15.5625 -1.1875 C 14.820312 -0.632812 13.972656 -0.226562 13.015625 0.03125 C 12.066406 0.300781 10.90625 0.4375 9.53125 0.4375 C 8.070312 0.4375 6.765625 0.160156 5.609375 -0.390625 C 4.460938 -0.953125 3.554688 -1.8125 2.890625 -2.96875 C 2.222656 -4.125 1.890625 -5.59375 1.890625 -7.375 C 1.890625 -9.988281 2.8125 -11.914062 4.65625 -13.15625 C 6.5 -14.40625 9.257812 -15.097656 12.9375 -15.234375 L 17.21875 -15.359375 L 17.21875 -16.4375 C 17.21875 -17.738281 16.878906 -18.691406 16.203125 -19.296875 C 15.523438 -19.898438 14.582031 -20.203125 13.375 -20.203125 C 12.1875 -20.203125 11.015625 -20.03125 9.859375 -19.6875 C 8.710938 -19.351562 7.566406 -18.925781 6.421875 -18.40625 L 4.1875 -22.953125 C 5.5 -23.640625 6.96875 -24.179688 8.59375 -24.578125 C 10.21875 -24.984375 11.898438 -25.1875 13.640625 -25.1875 Z M 17.21875 -11.4375 L 14.609375 -11.34375 C 12.429688 -11.28125 10.921875 -10.890625 10.078125 -10.171875 C 9.234375 -9.453125 8.8125 -8.503906 8.8125 -7.328125 C 8.8125 -6.296875 9.109375 -5.5625 9.703125 -5.125 C 10.304688 -4.695312 11.097656 -4.484375 12.078125 -4.484375 C 13.515625 -4.484375 14.726562 -4.910156 15.71875 -5.765625 C 16.71875 -6.617188 17.21875 -7.832031 17.21875 -9.40625 Z M 17.21875 -11.4375 "/></g></g></g><g fill="#9e651e" fill-opacity="1"><g transform="translate(507.032373, 681.37405)"><g><path d="M 13.546875 0.4375 C 11.109375 0.4375 9.023438 -0.00390625 7.296875 -0.890625 C 5.578125 -1.785156 4.269531 -3.164062 3.375 -5.03125 C 2.476562 -6.894531 2.03125 -9.285156 2.03125 -12.203125 C 2.03125 -15.222656 2.539062 -17.6875 3.5625 -19.59375 C 4.582031 -21.5 6 -22.898438 7.8125 -23.796875 C 9.632812 -24.691406 11.742188 -25.140625 14.140625 -25.140625 C 15.847656 -25.140625 17.320312 -24.972656 18.5625 -24.640625 C 19.8125 -24.304688 20.898438 -23.914062 21.828125 -23.46875 L 19.84375 -18.25 C 18.78125 -18.675781 17.789062 -19.023438 16.875 -19.296875 C 15.96875 -19.566406 15.054688 -19.703125 14.140625 -19.703125 C 12.960938 -19.703125 11.984375 -19.425781 11.203125 -18.875 C 10.429688 -18.332031 9.851562 -17.507812 9.46875 -16.40625 C 9.082031 -15.300781 8.890625 -13.914062 8.890625 -12.25 C 8.890625 -10.613281 9.09375 -9.257812 9.5 -8.1875 C 9.914062 -7.113281 10.515625 -6.316406 11.296875 -5.796875 C 12.078125 -5.273438 13.023438 -5.015625 14.140625 -5.015625 C 15.546875 -5.015625 16.789062 -5.203125 17.875 -5.578125 C 18.96875 -5.953125 20.03125 -6.476562 21.0625 -7.15625 L 21.0625 -1.390625 C 20.03125 -0.742188 18.953125 -0.28125 17.828125 0 C 16.703125 0.289062 15.273438 0.4375 13.546875 0.4375 Z M 13.546875 0.4375 "/></g></g></g><g fill="#9e651e" fill-opacity="1"><g transform="translate(530.272027, 681.37405)"><g><path d="M 10.265625 -34.34375 L 10.265625 -18.984375 C 10.265625 -18.054688 10.226562 -17.128906 10.15625 -16.203125 C 10.082031 -15.273438 10 -14.347656 9.90625 -13.421875 L 10 -13.421875 C 10.457031 -14.066406 10.925781 -14.703125 11.40625 -15.328125 C 11.882812 -15.960938 12.394531 -16.578125 12.9375 -17.171875 L 19.84375 -24.671875 L 27.4375 -24.671875 L 17.640625 -13.96875 L 28.03125 0 L 20.265625 0 L 13.15625 -10 L 10.265625 -7.6875 L 10.265625 0 L 3.53125 0 L 3.53125 -34.34375 Z M 10.265625 -34.34375 "/></g></g></g><g clip-path="url(#4412888b28)"><path fill="#9e651e" d="M 465.898438 217.917969 C 465.898438 214.78125 468.457031 212.230469 471.585938 212.230469 C 474.738281 212.230469 477.273438 214.789062 477.273438 217.917969 L 477.273438 231.601562 C 477.273438 234.730469 474.738281 237.289062 471.585938 237.289062 C 468.449219 237.289062 465.898438 234.730469 465.898438 231.601562 Z M 394.773438 248.664062 C 392.539062 246.457031 392.539062 242.839844 394.773438 240.628906 C 396.984375 238.417969 400.578125 238.417969 402.8125 240.628906 L 410.78125 248.601562 C 412.992188 250.835938 412.992188 254.425781 410.78125 256.636719 C 408.574219 258.871094 404.957031 258.871094 402.746094 256.636719 Z M 540.394531 240.628906 C 542.605469 238.417969 546.195312 238.417969 548.429688 240.628906 C 550.640625 242.839844 550.640625 246.457031 548.429688 248.664062 L 540.460938 256.636719 C 538.226562 258.871094 534.632812 258.871094 532.421875 256.636719 C 530.1875 254.425781 530.1875 250.835938 532.421875 248.601562 Z M 429.488281 226.230469 C 428.660156 223.191406 430.480469 220.078125 433.492188 219.273438 C 436.53125 218.472656 439.644531 220.265625 440.449219 223.28125 L 443.652344 235.191406 C 444.457031 238.207031 442.636719 241.34375 439.621094 242.148438 C 436.582031 242.953125 433.46875 241.15625 432.664062 238.117188 Z M 502.730469 223.28125 C 503.5625 220.265625 506.671875 218.472656 509.6875 219.273438 C 512.726562 220.078125 514.523438 223.191406 513.71875 226.230469 L 510.539062 238.117188 C 509.710938 241.15625 506.601562 242.953125 503.585938 242.148438 C 500.546875 241.34375 498.75 238.207031 499.554688 235.191406 Z M 339.285156 174.40625 C 339.472656 171.269531 342.160156 168.90625 345.296875 169.082031 C 348.433594 169.292969 350.800781 171.984375 350.621094 175.121094 L 349.996094 184.863281 C 399.472656 151.808594 463.199219 150.125 514.15625 179.566406 C 548.632812 199.488281 575.539062 232.570312 586.644531 274.027344 C 602.328125 332.53125 582.613281 394.144531 537.144531 432.816406 C 534.769531 434.839844 531.203125 434.5625 529.171875 432.191406 C 527.148438 429.792969 527.441406 426.226562 529.816406 424.195312 C 571.871094 388.402344 590.203125 331.253906 575.675781 276.941406 C 555.0625 200.015625 475.992188 154.367188 399.03125 174.984375 C 384.382812 178.921875 370.632812 185.027344 358.078125 193.109375 L 364.484375 195.273438 C 367.457031 196.261719 369.042969 199.464844 368.050781 202.4375 C 367.058594 205.414062 363.832031 207.023438 360.882812 206.007812 L 342.152344 199.71875 C 339.644531 199 337.871094 196.605469 338.035156 193.890625 Z M 456.019531 299.273438 L 471.585938 355.769531 L 487.179688 299.273438 Z M 459.316406 353.859375 L 444.253906 299.273438 L 414.511719 299.273438 Z M 498.929688 299.273438 L 483.890625 353.859375 L 528.683594 299.273438 Z M 517.660156 268.539062 L 505.082031 287.886719 L 530.230469 287.886719 Z M 522.65625 255.433594 L 543.320312 287.246094 C 545.367188 290.375 548.269531 293.625 544.75 297.542969 L 476.039062 381.292969 C 473.804688 384.078125 469.546875 384.191406 467.214844 381.382812 L 398.441406 297.542969 C 396.277344 295.003906 396.367188 292.65625 398.089844 289.984375 L 420.339844 255.070312 C 421.417969 253.386719 423.238281 252.46875 425.109375 252.46875 L 425.109375 252.445312 L 517.660156 252.445312 C 519.820312 252.445312 521.714844 253.636719 522.65625 255.433594 Z M 494.621094 283.167969 L 507.203125 263.820312 L 482.050781 263.820312 Z M 438.125 287.886719 L 425.546875 268.539062 L 412.96875 287.886719 Z M 436.003906 263.820312 L 448.558594 283.167969 L 461.136719 263.820312 Z M 471.585938 268.539062 L 459.007812 287.886719 L 484.15625 287.886719 Z M 362.183594 375.78125 C 363.566406 368.714844 367.179688 362.449219 372.292969 357.769531 C 372.105469 345.238281 371.601562 328.792969 370.40625 317.992188 C 367.253906 318.105469 364.09375 317.945312 361.003906 317.53125 C 359.785156 328.863281 357.941406 335.570312 354.300781 345.464844 C 354.253906 345.605469 354.1875 345.742188 354.140625 345.878906 C 351.375 352.535156 348.011719 358.222656 344.210938 362.902344 C 344.210938 369.355469 344.28125 374.238281 344.535156 378.058594 C 344.609375 378.886719 344.648438 379.625 344.722656 380.292969 C 347.09375 377.503906 350.523438 375.773438 354.324219 375.773438 L 362.183594 375.773438 Z M 383.511719 351 C 402.535156 344.207031 423.132812 356.070312 426.976562 375.78125 L 434.835938 375.78125 C 441.652344 375.78125 447.023438 381.265625 447.664062 388.058594 L 457.59375 491.6875 C 458.332031 499.40625 452.460938 506.378906 444.738281 506.378906 L 220.644531 506.378906 C 217.507812 506.378906 214.957031 503.84375 214.957031 500.6875 L 214.957031 443.957031 C 214.957031 425.664062 222.925781 409.105469 235.683594 397.617188 C 235.132812 373.636719 234.921875 326.785156 239.023438 307.007812 C 244.550781 280.378906 257.933594 261.261719 274.402344 250.160156 C 295.269531 236.085938 321.433594 234.707031 343.015625 247.789062 C 363.769531 260.34375 376.019531 283.054688 380.90625 310.964844 C 382.472656 319.976562 383.210938 338.03125 383.511719 351 Z M 415.300781 375.78125 C 411.246094 362.472656 395.742188 356.386719 383.699219 363.390625 C 383.75 367.46875 383.773438 371.613281 383.75 375.78125 Z M 361.582031 426.753906 C 361.507812 423.625 364.003906 421.019531 367.132812 420.953125 C 370.242188 420.878906 372.84375 423.375 372.910156 426.476562 C 373.371094 445.386719 396.238281 454.625 409.71875 441.46875 C 413.636719 437.644531 416.097656 432.371094 416.234375 426.476562 C 416.308594 423.367188 418.910156 420.878906 422.035156 420.953125 C 425.148438 421.027344 427.636719 423.625 427.5625 426.753906 C 427.148438 444.671875 412.472656 459.003906 394.582031 459.003906 C 376.671875 459.003906 362.019531 444.679688 361.582031 426.753906 Z M 331.640625 495.027344 C 331.5 493.945312 331.476562 492.839844 331.566406 491.6875 L 340.828125 395.128906 C 323.554688 410.285156 300.453125 410.054688 284.558594 392.917969 L 277.394531 392.917969 C 249.320312 392.917969 226.332031 415.90625 226.332031 443.964844 L 226.332031 495.027344 L 260.929688 495.027344 L 260.929688 454 C 260.929688 450.871094 263.488281 448.3125 266.617188 448.3125 C 269.746094 448.3125 272.304688 450.871094 272.304688 454 L 272.304688 495.027344 Z M 434.828125 387.167969 L 354.324219 387.167969 C 353.382812 387.167969 352.855469 388.296875 352.78125 389.148438 L 342.878906 492.75 C 342.761719 493.765625 343.429688 495.035156 344.398438 495.035156 L 444.730469 495.035156 C 445.8125 495.035156 446.390625 493.703125 446.300781 492.75 L 436.371094 389.148438 C 436.304688 388.246094 435.753906 387.167969 434.828125 387.167969 Z M 349.855469 314.953125 C 337.164062 310.648438 326.179688 302.058594 318.945312 290.511719 C 306.230469 301.824219 290.777344 309.46875 274.214844 312.734375 C 274.882812 324.664062 278.179688 341.898438 284.972656 350.210938 C 285.136719 350.398438 285.273438 350.601562 285.386719 350.8125 C 294.945312 366.105469 310.976562 373.546875 326.292969 363.96875 C 341.910156 354.199219 348.160156 332.441406 349.855469 314.953125 Z M 262.953125 314.261719 C 258.417969 314.613281 253.828125 314.628906 249.230469 314.3125 C 246.765625 331.515625 246.554688 369.015625 246.882812 389.5625 C 255.910156 384.453125 266.316406 381.550781 277.402344 381.550781 L 282.511719 381.550781 C 282.675781 380.699219 282.8125 379.667969 282.925781 378.464844 C 283.226562 375.488281 283.339844 371.621094 283.390625 366.601562 C 280.742188 363.886719 278.253906 360.75 275.996094 357.183594 C 272.03125 352.25 268.714844 344.816406 266.414062 336.105469 C 264.660156 329.464844 263.441406 321.984375 262.953125 314.261719 Z M 269.746094 269.09375 C 261.019531 278.511719 254.894531 290.746094 251.617188 303.089844 C 262.652344 303.644531 273.566406 301.984375 283.796875 298.371094 C 295.910156 294.0625 307.011719 286.992188 316.136719 277.503906 C 318.875 274.503906 323.832031 275.042969 325.578125 278.910156 C 333.25 295.90625 350.132812 306.640625 368.488281 306.691406 C 363.929688 286.027344 353.976562 267.671875 337.164062 257.464844 C 316.324219 244.847656 291.816406 249.175781 274.441406 264.46875 Z M 332.980469 373.183594 C 321.09375 380.941406 306.976562 381.707031 294.511719 375.066406 C 294.351562 378.683594 294.050781 382.414062 293.195312 385.550781 C 305.359375 398.242188 321.710938 397.460938 334.148438 385.875 C 333.296875 382.183594 333.070312 377.539062 332.980469 373.183594 Z M 332.980469 373.183594 " fill-opacity="1" fill-rule="nonzero"/></g></svg>