<svg width="913" height="894" viewBox="0 0 913 894" fill="none" xmlns="http://www.w3.org/2000/svg">
<rect width="913" height="894" rx="24" fill="#FFFCF2"/>
<path d="M177.719 737H168.062V710.562C168.062 709.833 168.073 708.938 168.094 707.875C168.115 706.792 168.146 705.688 168.188 704.562C168.229 703.417 168.271 702.385 168.312 701.469C168.083 701.74 167.615 702.208 166.906 702.875C166.219 703.521 165.573 704.104 164.969 704.625L159.719 708.844L155.062 703.031L169.781 691.312H177.719V737ZM207.094 707.812C209.885 707.812 212.365 708.344 214.531 709.406C216.719 710.469 218.438 712.031 219.688 714.094C220.938 716.156 221.562 718.698 221.562 721.719C221.562 725.01 220.875 727.854 219.5 730.25C218.146 732.625 216.115 734.448 213.406 735.719C210.719 736.99 207.365 737.625 203.344 737.625C200.948 737.625 198.688 737.417 196.562 737C194.458 736.604 192.615 735.99 191.031 735.156V726.812C192.615 727.646 194.51 728.354 196.719 728.938C198.948 729.5 201.042 729.781 203 729.781C204.917 729.781 206.531 729.531 207.844 729.031C209.156 728.51 210.146 727.719 210.812 726.656C211.5 725.573 211.844 724.198 211.844 722.531C211.844 720.302 211.094 718.594 209.594 717.406C208.094 716.219 205.792 715.625 202.688 715.625C201.5 715.625 200.26 715.74 198.969 715.969C197.698 716.198 196.635 716.427 195.781 716.656L191.938 714.594L193.656 691.312H218.438V699.5H202.125L201.281 708.469C201.99 708.323 202.76 708.177 203.594 708.031C204.427 707.885 205.594 707.812 207.094 707.812ZM284.812 713.719C284.812 718.865 283.823 723.167 281.844 726.625C279.885 730.062 277.042 732.656 273.312 734.406C269.583 736.135 265.094 737 259.844 737H246.906V691.312H261.25C266.042 691.312 270.198 692.167 273.719 693.875C277.24 695.562 279.969 698.073 281.906 701.406C283.844 704.719 284.812 708.823 284.812 713.719ZM274.75 713.969C274.75 710.594 274.25 707.823 273.25 705.656C272.271 703.469 270.812 701.854 268.875 700.812C266.958 699.771 264.583 699.25 261.75 699.25H256.594V729H260.75C265.479 729 268.99 727.74 271.281 725.219C273.594 722.698 274.75 718.948 274.75 713.969ZM307.844 701.344C312.531 701.344 316.125 702.365 318.625 704.406C321.125 706.448 322.375 709.552 322.375 713.719V737H315.719L313.875 732.25H313.625C312.625 733.5 311.604 734.521 310.562 735.312C309.521 736.104 308.323 736.688 306.969 737.062C305.615 737.438 303.969 737.625 302.031 737.625C299.969 737.625 298.115 737.229 296.469 736.438C294.844 735.646 293.562 734.438 292.625 732.812C291.688 731.167 291.219 729.083 291.219 726.562C291.219 722.854 292.521 720.125 295.125 718.375C297.729 716.604 301.635 715.625 306.844 715.438L312.906 715.25V713.719C312.906 711.885 312.427 710.542 311.469 709.688C310.51 708.833 309.177 708.406 307.469 708.406C305.781 708.406 304.125 708.646 302.5 709.125C300.875 709.604 299.25 710.208 297.625 710.938L294.469 704.5C296.323 703.521 298.396 702.75 300.688 702.188C303 701.625 305.385 701.344 307.844 701.344ZM312.906 720.812L309.219 720.938C306.135 721.021 303.99 721.573 302.781 722.594C301.594 723.615 301 724.958 301 726.625C301 728.083 301.427 729.125 302.281 729.75C303.135 730.354 304.25 730.656 305.625 730.656C307.667 730.656 309.385 730.052 310.781 728.844C312.198 727.635 312.906 725.917 312.906 723.688V720.812ZM327.219 702.062H337.656L344.25 721.719C344.458 722.344 344.635 722.979 344.781 723.625C344.927 724.271 345.052 724.938 345.156 725.625C345.26 726.312 345.344 727.031 345.406 727.781H345.594C345.719 726.656 345.885 725.604 346.094 724.625C346.323 723.646 346.604 722.677 346.938 721.719L353.406 702.062H363.625L348.844 741.469C347.948 743.885 346.781 745.896 345.344 747.5C343.906 749.125 342.25 750.344 340.375 751.156C338.521 751.969 336.479 752.375 334.25 752.375C333.167 752.375 332.229 752.312 331.438 752.188C330.646 752.083 329.969 751.969 329.406 751.844V744.281C329.844 744.385 330.396 744.479 331.062 744.562C331.729 744.646 332.427 744.688 333.156 744.688C334.49 744.688 335.635 744.406 336.594 743.844C337.552 743.281 338.354 742.521 339 741.562C339.646 740.625 340.156 739.594 340.531 738.469L341.094 736.75L327.219 702.062ZM393.031 726.625C393.031 729 392.469 731.01 391.344 732.656C390.24 734.281 388.583 735.521 386.375 736.375C384.167 737.208 381.417 737.625 378.125 737.625C375.688 737.625 373.594 737.469 371.844 737.156C370.115 736.844 368.365 736.323 366.594 735.594V727.719C368.49 728.573 370.521 729.281 372.688 729.844C374.875 730.385 376.792 730.656 378.438 730.656C380.292 730.656 381.615 730.385 382.406 729.844C383.219 729.281 383.625 728.552 383.625 727.656C383.625 727.073 383.458 726.552 383.125 726.094C382.812 725.615 382.125 725.083 381.062 724.5C380 723.896 378.333 723.115 376.062 722.156C373.875 721.24 372.073 720.312 370.656 719.375C369.26 718.438 368.219 717.333 367.531 716.062C366.865 714.771 366.531 713.135 366.531 711.156C366.531 707.927 367.781 705.5 370.281 703.875C372.802 702.229 376.167 701.406 380.375 701.406C382.542 701.406 384.604 701.625 386.562 702.062C388.542 702.5 390.573 703.198 392.656 704.156L389.781 711.031C388.052 710.281 386.417 709.667 384.875 709.188C383.354 708.708 381.802 708.469 380.219 708.469C378.823 708.469 377.771 708.656 377.062 709.031C376.354 709.406 376 709.979 376 710.75C376 711.312 376.177 711.812 376.531 712.25C376.906 712.688 377.615 713.177 378.656 713.719C379.719 714.24 381.271 714.917 383.312 715.75C385.292 716.562 387.01 717.417 388.469 718.312C389.927 719.188 391.052 720.281 391.844 721.594C392.635 722.885 393.031 724.562 393.031 726.625ZM431.156 691.312C435.302 691.312 438.719 691.812 441.406 692.812C444.115 693.812 446.125 695.323 447.438 697.344C448.75 699.365 449.406 701.917 449.406 705C449.406 707.083 449.01 708.906 448.219 710.469C447.427 712.031 446.385 713.354 445.094 714.438C443.802 715.521 442.406 716.406 440.906 717.094L454.344 737H443.594L432.688 719.469H427.531V737H417.844V691.312H431.156ZM430.469 699.25H427.531V711.594H430.656C433.865 711.594 436.156 711.062 437.531 710C438.927 708.917 439.625 707.333 439.625 705.25C439.625 703.083 438.875 701.542 437.375 700.625C435.896 699.708 433.594 699.25 430.469 699.25ZM473.75 701.406C476.979 701.406 479.76 702.031 482.094 703.281C484.427 704.51 486.229 706.302 487.5 708.656C488.771 711.01 489.406 713.885 489.406 717.281V721.906H466.875C466.979 724.594 467.781 726.708 469.281 728.25C470.802 729.771 472.906 730.531 475.594 730.531C477.823 730.531 479.865 730.302 481.719 729.844C483.573 729.385 485.479 728.698 487.438 727.781V735.156C485.708 736.01 483.896 736.635 482 737.031C480.125 737.427 477.844 737.625 475.156 737.625C471.656 737.625 468.552 736.979 465.844 735.688C463.156 734.396 461.042 732.427 459.5 729.781C457.979 727.135 457.219 723.802 457.219 719.781C457.219 715.698 457.906 712.302 459.281 709.594C460.677 706.865 462.615 704.823 465.094 703.469C467.573 702.094 470.458 701.406 473.75 701.406ZM473.812 708.188C471.958 708.188 470.417 708.781 469.188 709.969C467.979 711.156 467.281 713.021 467.094 715.562H480.469C480.448 714.146 480.188 712.885 479.688 711.781C479.208 710.677 478.479 709.802 477.5 709.156C476.542 708.51 475.312 708.188 473.812 708.188ZM511.875 730.031C512.917 730.031 513.927 729.927 514.906 729.719C515.906 729.51 516.896 729.25 517.875 728.938V736.031C516.854 736.49 515.583 736.865 514.062 737.156C512.562 737.469 510.917 737.625 509.125 737.625C507.042 737.625 505.167 737.292 503.5 736.625C501.854 735.938 500.552 734.76 499.594 733.094C498.656 731.406 498.188 729.062 498.188 726.062V709.219H493.625V705.188L498.875 702L501.625 694.625H507.719V702.062H517.5V709.219H507.719V726.062C507.719 727.396 508.094 728.396 508.844 729.062C509.615 729.708 510.625 730.031 511.875 730.031ZM557.031 702.062V737H549.719L548.438 732.531H547.938C547.188 733.719 546.25 734.688 545.125 735.438C544 736.188 542.76 736.74 541.406 737.094C540.052 737.448 538.646 737.625 537.188 737.625C534.688 737.625 532.51 737.188 530.656 736.312C528.802 735.417 527.354 734.031 526.312 732.156C525.292 730.281 524.781 727.844 524.781 724.844V702.062H534.312V722.469C534.312 724.969 534.76 726.854 535.656 728.125C536.552 729.396 537.979 730.031 539.938 730.031C541.875 730.031 543.396 729.594 544.5 728.719C545.604 727.823 546.375 726.521 546.812 724.812C547.271 723.083 547.5 720.979 547.5 718.5V702.062H557.031ZM586.531 701.406C587.01 701.406 587.562 701.438 588.188 701.5C588.833 701.542 589.354 701.604 589.75 701.688L589.031 710.625C588.719 710.521 588.271 710.448 587.688 710.406C587.125 710.344 586.635 710.312 586.219 710.312C584.99 710.312 583.792 710.469 582.625 710.781C581.479 711.094 580.448 711.604 579.531 712.312C578.615 713 577.885 713.917 577.344 715.062C576.823 716.188 576.562 717.573 576.562 719.219V737H567.031V702.062H574.25L575.656 707.938H576.125C576.812 706.75 577.667 705.667 578.688 704.688C579.729 703.688 580.906 702.896 582.219 702.312C583.552 701.708 584.99 701.406 586.531 701.406ZM615.938 701.406C619.667 701.406 622.667 702.427 624.938 704.469C627.208 706.49 628.344 709.74 628.344 714.219V737H618.812V716.594C618.812 714.094 618.354 712.208 617.438 710.938C616.542 709.667 615.125 709.031 613.188 709.031C610.271 709.031 608.281 710.021 607.219 712C606.156 713.979 605.625 716.833 605.625 720.562V737H596.094V702.062H603.375L604.656 706.531H605.188C605.938 705.323 606.865 704.344 607.969 703.594C609.094 702.844 610.333 702.292 611.688 701.938C613.062 701.583 614.479 701.406 615.938 701.406ZM652.469 701.344C657.156 701.344 660.75 702.365 663.25 704.406C665.75 706.448 667 709.552 667 713.719V737H660.344L658.5 732.25H658.25C657.25 733.5 656.229 734.521 655.188 735.312C654.146 736.104 652.948 736.688 651.594 737.062C650.24 737.438 648.594 737.625 646.656 737.625C644.594 737.625 642.74 737.229 641.094 736.438C639.469 735.646 638.188 734.438 637.25 732.812C636.312 731.167 635.844 729.083 635.844 726.562C635.844 722.854 637.146 720.125 639.75 718.375C642.354 716.604 646.26 715.625 651.469 715.438L657.531 715.25V713.719C657.531 711.885 657.052 710.542 656.094 709.688C655.135 708.833 653.802 708.406 652.094 708.406C650.406 708.406 648.75 708.646 647.125 709.125C645.5 709.604 643.875 710.208 642.25 710.938L639.094 704.5C640.948 703.521 643.021 702.75 645.312 702.188C647.625 701.625 650.01 701.344 652.469 701.344ZM657.531 720.812L653.844 720.938C650.76 721.021 648.615 721.573 647.406 722.594C646.219 723.615 645.625 724.958 645.625 726.625C645.625 728.083 646.052 729.125 646.906 729.75C647.76 730.354 648.875 730.656 650.25 730.656C652.292 730.656 654.01 730.052 655.406 728.844C656.823 727.635 657.531 725.917 657.531 723.688V720.812ZM686.375 688.375V699.688C686.375 701 686.333 702.302 686.25 703.594C686.188 704.885 686.104 705.885 686 706.594H686.375C687.292 705.156 688.542 703.938 690.125 702.938C691.708 701.917 693.76 701.406 696.281 701.406C700.198 701.406 703.375 702.938 705.812 706C708.25 709.062 709.469 713.552 709.469 719.469C709.469 723.448 708.906 726.792 707.781 729.5C706.656 732.188 705.083 734.219 703.062 735.594C701.042 736.948 698.698 737.625 696.031 737.625C693.469 737.625 691.448 737.167 689.969 736.25C688.49 735.333 687.292 734.302 686.375 733.156H685.719L684.125 737H676.844V688.375H686.375ZM693.219 709.031C691.552 709.031 690.229 709.375 689.25 710.062C688.271 710.75 687.552 711.781 687.094 713.156C686.656 714.531 686.417 716.271 686.375 718.375V719.406C686.375 722.802 686.875 725.406 687.875 727.219C688.875 729.01 690.698 729.906 693.344 729.906C695.302 729.906 696.854 729 698 727.188C699.167 725.375 699.75 722.76 699.75 719.344C699.75 715.927 699.167 713.354 698 711.625C696.833 709.896 695.24 709.031 693.219 709.031ZM726.875 737H717.344V688.375H726.875V737ZM751.312 701.406C754.542 701.406 757.323 702.031 759.656 703.281C761.99 704.51 763.792 706.302 765.062 708.656C766.333 711.01 766.969 713.885 766.969 717.281V721.906H744.438C744.542 724.594 745.344 726.708 746.844 728.25C748.365 729.771 750.469 730.531 753.156 730.531C755.385 730.531 757.427 730.302 759.281 729.844C761.135 729.385 763.042 728.698 765 727.781V735.156C763.271 736.01 761.458 736.635 759.562 737.031C757.688 737.427 755.406 737.625 752.719 737.625C749.219 737.625 746.115 736.979 743.406 735.688C740.719 734.396 738.604 732.427 737.062 729.781C735.542 727.135 734.781 723.802 734.781 719.781C734.781 715.698 735.469 712.302 736.844 709.594C738.24 706.865 740.177 704.823 742.656 703.469C745.135 702.094 748.021 701.406 751.312 701.406ZM751.375 708.188C749.521 708.188 747.979 708.781 746.75 709.969C745.542 711.156 744.844 713.021 744.656 715.562H758.031C758.01 714.146 757.75 712.885 757.25 711.781C756.771 710.677 756.042 709.802 755.062 709.156C754.104 708.51 752.875 708.188 751.375 708.188Z" fill="#9E651E"/>
<path d="M499.209 256.724L459.146 237.443C457.99 236.88 456.625 236.88 455.459 237.443L341.61 292.141C340.141 292.849 339.198 294.333 339.198 295.974C339.198 297.604 340.136 299.094 341.604 299.802L381.667 319.099C382.256 319.38 382.886 319.521 383.521 319.521C384.146 319.521 384.782 319.375 385.365 319.099L499.209 264.396C500.688 263.688 501.62 262.193 501.62 260.563C501.615 258.917 500.688 257.432 499.209 256.724Z" fill="#9E651E"/>
<path d="M322.073 315.724C320.833 316.5 320.083 317.864 320.083 319.323V445.672C320.083 447.307 321.015 448.797 322.494 449.505L440.781 506.463C441.364 506.745 442 506.87 442.63 506.87C443.422 506.87 444.203 506.656 444.896 506.229C446.135 505.458 446.885 504.088 446.885 502.63V376.281C446.885 374.646 445.953 373.151 444.479 372.443L326.182 315.495C324.869 314.859 323.317 314.937 322.073 315.724ZM350.333 375.687C352.041 372.125 355.703 369.818 359.656 369.818C361.218 369.818 362.724 370.172 364.166 370.87L407.755 391.828C410.244 393.026 412.119 395.125 413.026 397.745C413.942 400.354 413.786 403.167 412.583 405.672C410.218 410.609 403.869 412.984 398.76 410.489L355.172 389.526C352.682 388.338 350.812 386.245 349.896 383.635C348.968 381.021 349.125 378.203 350.333 375.687Z" fill="#9E651E"/>
<path d="M467.636 376.286V502.635C467.636 504.094 468.381 505.463 469.625 506.234C470.313 506.661 471.099 506.875 471.891 506.875C472.516 506.875 473.151 506.75 473.735 506.469L592.032 449.51C593.511 448.802 594.443 447.312 594.443 445.677V319.401C594.443 317.932 593.698 316.573 592.453 315.792C591.219 315.016 589.657 314.927 588.344 315.557L470.042 372.443C468.563 373.156 467.636 374.651 467.636 376.286Z" fill="#9E651E"/>
<path d="M572.938 292.239L532.948 272.979C531.787 272.417 530.427 272.417 529.261 272.979L415.391 327.672C413.922 328.375 412.979 329.864 412.979 331.505C412.979 333.135 413.917 334.63 415.391 335.333L455.417 354.599C456 354.875 456.625 355.021 457.266 355.021C457.896 355.021 458.526 354.875 459.11 354.599L572.938 299.906C574.412 299.198 575.354 297.713 575.354 296.068C575.349 294.443 574.412 292.958 572.938 292.239Z" fill="#9E651E"/>
<path d="M257.432 466.901C258.755 466.901 260.099 466.651 261.401 466.136C266.849 463.932 269.49 457.74 267.297 452.287C233.427 368.172 258.172 273.396 328.865 216.464C402.318 157.281 504.542 157.313 577.49 210.208L557.391 226.386C554.031 229.089 552.646 233.542 553.854 237.672C555.062 241.792 558.646 244.797 562.922 245.255L624.375 251.86C624.76 251.901 625.141 251.927 625.531 251.927C630.891 251.927 635.505 247.886 636.089 242.427L642.719 181C643.182 176.724 641.016 172.589 637.245 170.531C633.464 168.458 628.828 168.865 625.469 171.578L594.615 196.422C513.812 134.604 398.167 133.302 315.516 199.886C237.479 262.745 210.172 367.37 247.557 460.229C249.229 464.38 253.219 466.901 257.432 466.901Z" fill="#9E651E"/>
<mask id="mask0_1771_17" style="mask-type:luminance" maskUnits="userSpaceOnUse" x="270" y="282" width="414" height="321">
<path d="M270.552 282.234H683.885V602.115H270.552V282.234Z" fill="white"/>
</mask>
<g mask="url(#mask0_1771_17)">
<path d="M666.145 289.349C663.895 283.932 657.677 281.359 652.234 283.609C646.807 285.859 644.234 292.083 646.484 297.505C681.067 380.844 656.078 478.635 585.723 535.323C512.27 594.495 410.041 594.458 337.088 541.557L357.171 525.38C360.526 522.687 361.911 518.229 360.703 514.109C359.489 509.979 355.911 506.984 351.635 506.521L290.197 499.891C287.343 499.573 284.583 500.411 282.38 502.182C280.182 503.953 278.781 506.521 278.479 509.333L271.864 570.771C271.395 575.042 273.562 579.182 277.333 581.234C278.937 582.104 280.687 582.547 282.437 582.547C284.817 582.547 287.182 581.745 289.114 580.187L319.968 555.344C360.02 585.984 408.609 601.797 457.531 601.781C507.296 601.781 557.385 585.469 599.072 551.896C676.744 489.323 704.322 381.359 666.145 289.349Z" fill="#9E651E"/>
</g>
</svg>
