<svg xmlns="http://www.w3.org/2000/svg" xmlns:xlink="http://www.w3.org/1999/xlink" width="1080" zoomAndPan="magnify" viewBox="0 0 810 809.999993" height="1080" preserveAspectRatio="xMidYMid meet" version="1.0"><metadata><ContainsAiGeneratedContent>Yes</ContainsAiGeneratedContent></metadata><defs><g/><clipPath id="7981cf465d"><path d="M 61.015625 66.820312 L 755.867188 66.820312 L 755.867188 743.179688 L 61.015625 743.179688 Z M 61.015625 66.820312 " clip-rule="nonzero"/></clipPath><clipPath id="01d0dfd01c"><path d="M 85.90625 66.820312 L 731.289062 66.820312 C 737.890625 66.820312 744.21875 69.441406 748.886719 74.109375 C 753.554688 78.777344 756.179688 85.109375 756.179688 91.710938 L 756.179688 718.289062 C 756.179688 724.890625 753.554688 731.222656 748.886719 735.890625 C 744.21875 740.558594 737.890625 743.179688 731.289062 743.179688 L 85.90625 743.179688 C 79.304688 743.179688 72.972656 740.558594 68.304688 735.890625 C 63.636719 731.222656 61.015625 724.890625 61.015625 718.289062 L 61.015625 91.710938 C 61.015625 85.109375 63.636719 78.777344 68.304688 74.109375 C 72.972656 69.441406 79.304688 66.820312 85.90625 66.820312 Z M 85.90625 66.820312 " clip-rule="nonzero"/></clipPath><radialGradient gradientTransform="matrix(1, 0, 0, 1, 61.005855, 66.820569)" gradientUnits="userSpaceOnUse" r="484.951896" cx="347.579743" id="a990e8c5ef" cy="338.179415" fx="347.579743" fy="338.179415"><stop stop-opacity="1" stop-color="rgb(100%, 99.957275%, 99.833679%)" offset="0"/><stop stop-opacity="1" stop-color="rgb(100%, 99.87793%, 99.5224%)" offset="0.03125"/><stop stop-opacity="1" stop-color="rgb(100%, 99.803162%, 99.232483%)" offset="0.0585938"/><stop stop-opacity="1" stop-color="rgb(100%, 99.729919%, 98.944092%)" offset="0.0859375"/><stop stop-opacity="1" stop-color="rgb(100%, 99.656677%, 98.654175%)" offset="0.113281"/><stop stop-opacity="1" stop-color="rgb(100%, 99.588013%, 98.384094%)" offset="0.140625"/><stop stop-opacity="1" stop-color="rgb(100%, 99.523926%, 98.135376%)" offset="0.164062"/><stop stop-opacity="1" stop-color="rgb(100%, 99.461365%, 97.886658%)" offset="0.1875"/><stop stop-opacity="1" stop-color="rgb(100%, 99.397278%, 97.637939%)" offset="0.210938"/><stop stop-opacity="1" stop-color="rgb(100%, 99.334717%, 97.390747%)" offset="0.234375"/><stop stop-opacity="1" stop-color="rgb(100%, 99.276733%, 97.163391%)" offset="0.257812"/><stop stop-opacity="1" stop-color="rgb(100%, 99.223328%, 96.955872%)" offset="0.277344"/><stop stop-opacity="1" stop-color="rgb(100%, 99.171448%, 96.748352%)" offset="0.296875"/><stop stop-opacity="1" stop-color="rgb(100%, 99.118042%, 96.540833%)" offset="0.316406"/><stop stop-opacity="1" stop-color="rgb(100%, 99.066162%, 96.334839%)" offset="0.335938"/><stop stop-opacity="1" stop-color="rgb(100%, 99.012756%, 96.127319%)" offset="0.355469"/><stop stop-opacity="1" stop-color="rgb(100%, 98.959351%, 95.9198%)" offset="0.375"/><stop stop-opacity="1" stop-color="rgb(100%, 98.886108%, 95.631409%)" offset="0.394531"/><stop stop-opacity="1" stop-color="rgb(100%, 98.791504%, 95.257568%)" offset="0.429688"/><stop stop-opacity="1" stop-color="rgb(100%, 98.701477%, 94.90509%)" offset="0.464844"/><stop stop-opacity="1" stop-color="rgb(100%, 98.617554%, 94.573975%)" offset="0.496094"/><stop stop-opacity="1" stop-color="rgb(100%, 98.538208%, 94.264221%)" offset="0.527344"/><stop stop-opacity="1" stop-color="rgb(100%, 98.464966%, 93.974304%)" offset="0.554688"/><stop stop-opacity="1" stop-color="rgb(100%, 98.396301%, 93.704224%)" offset="0.582031"/><stop stop-opacity="1" stop-color="rgb(100%, 98.332214%, 93.457031%)" offset="0.605469"/><stop stop-opacity="1" stop-color="rgb(100%, 98.274231%, 93.229675%)" offset="0.628906"/><stop stop-opacity="1" stop-color="rgb(100%, 98.222351%, 93.022156%)" offset="0.648438"/><stop stop-opacity="1" stop-color="rgb(100%, 98.168945%, 92.814636%)" offset="0.667969"/><stop stop-opacity="1" stop-color="rgb(100%, 98.11554%, 92.608643%)" offset="0.6875"/><stop stop-opacity="1" stop-color="rgb(100%, 98.042297%, 92.318726%)" offset="0.707031"/><stop stop-opacity="1" stop-color="rgb(100%, 97.952271%, 91.966248%)" offset="0.742188"/><stop stop-opacity="1" stop-color="rgb(100%, 97.874451%, 91.656494%)" offset="0.773438"/><stop stop-opacity="1" stop-color="rgb(100%, 97.805786%, 91.386414%)" offset="0.800781"/><stop stop-opacity="1" stop-color="rgb(100%, 97.747803%, 91.159058%)" offset="0.824219"/><stop stop-opacity="1" stop-color="rgb(100%, 97.694397%, 90.951538%)" offset="0.84375"/><stop stop-opacity="1" stop-color="rgb(100%, 97.625732%, 90.681458%)" offset="0.863281"/><stop stop-opacity="1" stop-color="rgb(100%, 97.55249%, 90.393066%)" offset="0.894531"/><stop stop-opacity="1" stop-color="rgb(100%, 97.494507%, 90.16571%)" offset="0.917969"/><stop stop-opacity="1" stop-color="rgb(100%, 97.425842%, 89.89563%)" offset="0.9375"/><stop stop-opacity="1" stop-color="rgb(100%, 97.340393%, 89.564514%)" offset="0.96875"/><stop stop-opacity="1" stop-color="rgb(100%, 97.299194%, 89.399719%)" offset="1"/></radialGradient><clipPath id="df1d6bc73a"><path d="M 61.019531 66.820312 L 756.265625 66.820312 L 756.265625 743.320312 L 61.019531 743.320312 Z M 61.019531 66.820312 " clip-rule="nonzero"/></clipPath><clipPath id="75f5c887a1"><path d="M 85.910156 66.820312 L 731.277344 66.820312 C 737.878906 66.820312 744.210938 69.441406 748.878906 74.109375 C 753.546875 78.777344 756.167969 85.109375 756.167969 91.710938 L 756.167969 718.277344 C 756.167969 724.878906 753.546875 731.210938 748.878906 735.878906 C 744.210938 740.546875 737.878906 743.167969 731.277344 743.167969 L 85.910156 743.167969 C 79.308594 743.167969 72.976562 740.546875 68.308594 735.878906 C 63.640625 731.210938 61.019531 724.878906 61.019531 718.277344 L 61.019531 91.710938 C 61.019531 85.109375 63.640625 78.777344 68.308594 74.109375 C 72.976562 69.441406 79.308594 66.820312 85.910156 66.820312 Z M 85.910156 66.820312 " clip-rule="nonzero"/></clipPath><clipPath id="8f2d034be1"><path d="M 238 146 L 579 146 L 579 552.601562 L 238 552.601562 Z M 238 146 " clip-rule="nonzero"/></clipPath></defs><g clip-path="url(#7981cf465d)"><g clip-path="url(#01d0dfd01c)"><path fill="url(#a990e8c5ef)" d="M 61.015625 66.820312 L 61.015625 743.179688 L 755.867188 743.179688 L 755.867188 66.820312 Z M 61.015625 66.820312 " fill-rule="nonzero"/></g></g><g clip-path="url(#df1d6bc73a)"><g clip-path="url(#75f5c887a1)"><path stroke-linecap="butt" transform="matrix(0.75, 0, 0, 0.75, 61.018784, 66.820565)" fill="none" stroke-linejoin="miter" d="M 33.188496 -0.000336184 L 893.678068 -0.000336184 C 902.480151 -0.000336184 910.922859 3.494455 917.146818 9.718414 C 923.370776 15.942372 926.865567 24.38508 926.865567 33.187163 L 926.865567 868.609027 C 926.865567 877.41111 923.370776 885.853818 917.146818 892.077777 C 910.922859 898.301735 902.480151 901.796526 893.678068 901.796526 L 33.188496 901.796526 C 24.386413 901.796526 15.943705 898.301735 9.719747 892.077777 C 3.495788 885.853818 0.000996826 877.41111 0.000996826 868.609027 L 0.000996826 33.187163 C 0.000996826 24.38508 3.495788 15.942372 9.719747 9.718414 C 15.943705 3.494455 24.386413 -0.000336184 33.188496 -0.000336184 Z M 33.188496 -0.000336184 " stroke="#e4b974" stroke-width="8" stroke-opacity="1" stroke-miterlimit="4"/></g></g><g clip-path="url(#8f2d034be1)"><path fill="#9e651e" d="M 430.078125 153.84375 L 451.679688 170.011719 C 457.585938 174.433594 463.804688 176.699219 471.171875 177.109375 L 498.109375 178.605469 C 514.242188 179.503906 527.339844 190.496094 531.027344 206.226562 L 537.179688 232.496094 C 538.863281 239.679688 542.171875 245.410156 547.550781 250.460938 L 567.226562 268.925781 C 579.003906 279.980469 581.976562 296.824219 574.6875 311.242188 L 562.515625 335.320312 C 559.1875 341.90625 558.035156 348.421875 558.914062 355.75 L 562.113281 382.539062 C 564.03125 398.582031 555.480469 413.390625 540.628906 419.753906 L 515.828125 430.375 C 509.042969 433.28125 503.976562 437.53125 499.9375 443.707031 L 485.167969 466.289062 C 476.328125 479.808594 460.257812 485.660156 444.792969 480.984375 L 418.964844 473.179688 C 411.902344 471.042969 405.285156 471.042969 398.222656 473.179688 L 372.394531 480.984375 C 356.929688 485.660156 340.859375 479.808594 332.015625 466.289062 L 317.25 443.707031 C 313.210938 437.53125 308.140625 433.28125 301.355469 430.375 L 276.554688 419.75 C 261.707031 413.390625 253.152344 398.582031 255.070312 382.539062 L 258.273438 355.75 C 259.148438 348.421875 258 341.90625 254.671875 335.320312 L 242.5 311.242188 C 235.210938 296.824219 238.179688 279.980469 249.960938 268.925781 L 269.632812 250.460938 C 275.015625 245.410156 278.324219 239.679688 280.003906 232.496094 L 286.160156 206.226562 C 289.84375 190.496094 302.945312 179.503906 319.074219 178.605469 L 346.015625 177.105469 C 353.382812 176.695312 359.601562 174.433594 365.507812 170.011719 L 387.109375 153.84375 C 400.042969 144.164062 417.144531 144.164062 430.078125 153.84375 Z M 394.816406 323.832031 L 371.375 300.390625 C 365.296875 294.316406 355.445312 294.316406 349.367188 300.390625 C 343.292969 306.46875 343.292969 316.320312 349.367188 322.398438 L 383.847656 356.875 C 389.921875 362.949219 399.777344 362.949219 405.851562 356.875 C 426.632812 336.089844 447.179688 315.078125 467.863281 294.199219 C 473.894531 288.113281 473.875 278.289062 467.792969 272.242188 C 461.714844 266.195312 451.863281 266.214844 445.824219 272.3125 Z M 408.59375 197.785156 C 376.34375 197.785156 347.144531 210.859375 326.007812 231.992188 C 304.871094 253.128906 291.800781 282.328125 291.800781 314.578125 C 291.800781 346.828125 304.871094 376.027344 326.007812 397.164062 C 347.144531 418.296875 376.34375 431.371094 408.59375 431.371094 C 440.84375 431.371094 470.042969 418.296875 491.179688 397.164062 C 512.3125 376.027344 525.386719 346.828125 525.386719 314.578125 C 525.386719 282.328125 512.3125 253.128906 491.179688 231.992188 C 470.042969 210.859375 440.84375 197.785156 408.59375 197.785156 Z M 481.863281 241.308594 C 463.113281 222.554688 437.207031 210.957031 408.59375 210.957031 C 379.976562 210.957031 354.074219 222.554688 335.320312 241.308594 C 316.570312 260.058594 304.972656 285.964844 304.972656 314.578125 C 304.972656 343.195312 316.570312 369.097656 335.320312 387.851562 C 354.074219 406.601562 379.976562 418.199219 408.59375 418.199219 C 437.207031 418.199219 463.113281 406.601562 481.863281 387.851562 C 500.617188 369.097656 512.214844 343.195312 512.214844 314.578125 C 512.214844 285.964844 500.617188 260.058594 481.863281 241.308594 Z M 452.480469 495.648438 L 478.078125 550.632812 C 478.476562 551.488281 479.261719 552.011719 480.207031 552.054688 C 481.148438 552.097656 481.980469 551.644531 482.453125 550.828125 L 501.546875 517.972656 L 538.980469 524.515625 C 539.910156 524.675781 540.789062 524.332031 541.363281 523.582031 C 541.9375 522.835938 542.042969 521.894531 541.644531 521.039062 L 509.8125 452.671875 L 496.195312 473.496094 C 486.363281 488.527344 469.714844 496.667969 452.480469 495.648438 Z M 365.695312 495.578125 C 348.109375 496.972656 331.011719 488.816406 320.992188 473.496094 L 307.929688 453.523438 L 276.5 521.039062 C 276.101562 521.894531 276.203125 522.835938 276.777344 523.582031 C 277.351562 524.332031 278.234375 524.675781 279.164062 524.515625 L 316.597656 517.972656 L 335.691406 550.828125 C 336.164062 551.644531 336.996094 552.097656 337.9375 552.054688 C 338.882812 552.011719 339.667969 551.488281 340.066406 550.628906 Z M 365.695312 495.578125 " fill-opacity="1" fill-rule="evenodd"/></g><g fill="#9e651e" fill-opacity="1"><g transform="translate(145.575333, 649.938275)"><g><path d="M 4.0625 0 L 4.0625 -32.265625 L 10.90625 -32.265625 L 10.90625 0 Z M 4.0625 0 "/></g></g></g><g fill="#9e651e" fill-opacity="1"><g transform="translate(160.538746, 649.938275)"><g><path d="M 17.546875 -25.140625 C 20.179688 -25.140625 22.300781 -24.421875 23.90625 -22.984375 C 25.507812 -21.546875 26.3125 -19.25 26.3125 -16.09375 L 26.3125 0 L 19.578125 0 L 19.578125 -14.40625 C 19.578125 -16.175781 19.253906 -17.507812 18.609375 -18.40625 C 17.972656 -19.300781 16.972656 -19.75 15.609375 -19.75 C 13.546875 -19.75 12.140625 -19.050781 11.390625 -17.65625 C 10.640625 -16.257812 10.265625 -14.242188 10.265625 -11.609375 L 10.265625 0 L 3.53125 0 L 3.53125 -24.671875 L 8.671875 -24.671875 L 9.578125 -21.515625 L 9.953125 -21.515625 C 10.484375 -22.367188 11.140625 -23.0625 11.921875 -23.59375 C 12.710938 -24.125 13.585938 -24.515625 14.546875 -24.765625 C 15.515625 -25.015625 16.515625 -25.140625 17.546875 -25.140625 Z M 17.546875 -25.140625 "/></g></g></g><g fill="#9e651e" fill-opacity="1"><g transform="translate(190.244872, 649.938275)"><g><path d="M 11.34375 0.4375 C 8.59375 0.4375 6.351562 -0.640625 4.625 -2.796875 C 2.894531 -4.953125 2.03125 -8.117188 2.03125 -12.296875 C 2.03125 -16.515625 2.90625 -19.707031 4.65625 -21.875 C 6.40625 -24.050781 8.691406 -25.140625 11.515625 -25.140625 C 12.691406 -25.140625 13.726562 -24.976562 14.625 -24.65625 C 15.53125 -24.332031 16.304688 -23.894531 16.953125 -23.34375 C 17.609375 -22.800781 18.164062 -22.191406 18.625 -21.515625 L 18.84375 -21.515625 C 18.757812 -21.984375 18.65625 -22.675781 18.53125 -23.59375 C 18.40625 -24.519531 18.34375 -25.46875 18.34375 -26.4375 L 18.34375 -34.34375 L 25.09375 -34.34375 L 25.09375 0 L 19.9375 0 L 18.625 -3.203125 L 18.34375 -3.203125 C 17.914062 -2.523438 17.378906 -1.910156 16.734375 -1.359375 C 16.097656 -0.804688 15.335938 -0.367188 14.453125 -0.046875 C 13.566406 0.273438 12.53125 0.4375 11.34375 0.4375 Z M 13.703125 -4.921875 C 15.546875 -4.921875 16.84375 -5.46875 17.59375 -6.5625 C 18.351562 -7.65625 18.757812 -9.304688 18.8125 -11.515625 L 18.8125 -12.25 C 18.8125 -14.644531 18.441406 -16.476562 17.703125 -17.75 C 16.960938 -19.03125 15.59375 -19.671875 13.59375 -19.671875 C 12.101562 -19.671875 10.9375 -19.03125 10.09375 -17.75 C 9.257812 -16.46875 8.84375 -14.617188 8.84375 -12.203125 C 8.84375 -9.796875 9.265625 -7.976562 10.109375 -6.75 C 10.960938 -5.53125 12.160156 -4.921875 13.703125 -4.921875 Z M 13.703125 -4.921875 "/></g></g></g><g fill="#9e651e" fill-opacity="1"><g transform="translate(218.847501, 649.938275)"><g><path d="M 10.265625 -24.671875 L 10.265625 0 L 3.53125 0 L 3.53125 -24.671875 Z M 6.90625 -34.34375 C 7.90625 -34.34375 8.765625 -34.109375 9.484375 -33.640625 C 10.210938 -33.179688 10.578125 -32.320312 10.578125 -31.0625 C 10.578125 -29.800781 10.210938 -28.929688 9.484375 -28.453125 C 8.765625 -27.984375 7.90625 -27.75 6.90625 -27.75 C 5.894531 -27.75 5.03125 -27.984375 4.3125 -28.453125 C 3.601562 -28.929688 3.25 -29.800781 3.25 -31.0625 C 3.25 -32.320312 3.601562 -33.179688 4.3125 -33.640625 C 5.03125 -34.109375 5.894531 -34.34375 6.90625 -34.34375 Z M 6.90625 -34.34375 "/></g></g></g><g fill="#9e651e" fill-opacity="1"><g transform="translate(232.641213, 649.938275)"><g><path d="M 13.640625 -25.1875 C 16.953125 -25.1875 19.488281 -24.460938 21.25 -23.015625 C 23.019531 -21.578125 23.90625 -19.382812 23.90625 -16.4375 L 23.90625 0 L 19.203125 0 L 17.90625 -3.359375 L 17.71875 -3.359375 C 17.019531 -2.472656 16.300781 -1.75 15.5625 -1.1875 C 14.820312 -0.632812 13.972656 -0.226562 13.015625 0.03125 C 12.066406 0.300781 10.90625 0.4375 9.53125 0.4375 C 8.070312 0.4375 6.765625 0.160156 5.609375 -0.390625 C 4.460938 -0.953125 3.554688 -1.8125 2.890625 -2.96875 C 2.222656 -4.125 1.890625 -5.59375 1.890625 -7.375 C 1.890625 -9.988281 2.8125 -11.914062 4.65625 -13.15625 C 6.5 -14.40625 9.257812 -15.097656 12.9375 -15.234375 L 17.21875 -15.359375 L 17.21875 -16.4375 C 17.21875 -17.738281 16.878906 -18.691406 16.203125 -19.296875 C 15.523438 -19.898438 14.582031 -20.203125 13.375 -20.203125 C 12.1875 -20.203125 11.015625 -20.03125 9.859375 -19.6875 C 8.710938 -19.351562 7.566406 -18.925781 6.421875 -18.40625 L 4.1875 -22.953125 C 5.5 -23.640625 6.96875 -24.179688 8.59375 -24.578125 C 10.21875 -24.984375 11.898438 -25.1875 13.640625 -25.1875 Z M 17.21875 -11.4375 L 14.609375 -11.34375 C 12.429688 -11.28125 10.921875 -10.890625 10.078125 -10.171875 C 9.234375 -9.453125 8.8125 -8.503906 8.8125 -7.328125 C 8.8125 -6.296875 9.109375 -5.5625 9.703125 -5.125 C 10.304688 -4.695312 11.097656 -4.484375 12.078125 -4.484375 C 13.515625 -4.484375 14.726562 -4.910156 15.71875 -5.765625 C 16.71875 -6.617188 17.21875 -7.832031 17.21875 -9.40625 Z M 17.21875 -11.4375 "/></g></g></g><g fill="#9e651e" fill-opacity="1"><g transform="translate(259.941723, 649.938275)"><g><path d="M 9.09375 -32.265625 L 8.1875 -20.609375 L 3.84375 -20.609375 L 2.9375 -32.265625 Z M 9.09375 -32.265625 "/></g></g></g><g fill="#9e651e" fill-opacity="1"><g transform="translate(271.96984, 649.938275)"><g><path d="M 20.75 -7.328125 C 20.75 -5.648438 20.351562 -4.234375 19.5625 -3.078125 C 18.78125 -1.921875 17.609375 -1.046875 16.046875 -0.453125 C 14.484375 0.140625 12.539062 0.4375 10.21875 0.4375 C 8.5 0.4375 7.023438 0.328125 5.796875 0.109375 C 4.566406 -0.109375 3.328125 -0.476562 2.078125 -1 L 2.078125 -6.5625 C 3.410156 -5.957031 4.847656 -5.457031 6.390625 -5.0625 C 7.929688 -4.675781 9.28125 -4.484375 10.4375 -4.484375 C 11.75 -4.484375 12.6875 -4.675781 13.25 -5.0625 C 13.820312 -5.457031 14.109375 -5.96875 14.109375 -6.59375 C 14.109375 -7.007812 13.992188 -7.378906 13.765625 -7.703125 C 13.535156 -8.035156 13.046875 -8.410156 12.296875 -8.828125 C 11.546875 -9.253906 10.367188 -9.804688 8.765625 -10.484375 C 7.210938 -11.128906 5.941406 -11.78125 4.953125 -12.4375 C 3.960938 -13.101562 3.226562 -13.890625 2.75 -14.796875 C 2.269531 -15.703125 2.03125 -16.851562 2.03125 -18.25 C 2.03125 -20.53125 2.914062 -22.25 4.6875 -23.40625 C 6.457031 -24.5625 8.832031 -25.140625 11.8125 -25.140625 C 13.34375 -25.140625 14.800781 -24.984375 16.1875 -24.671875 C 17.582031 -24.367188 19.015625 -23.878906 20.484375 -23.203125 L 18.453125 -18.34375 C 17.234375 -18.875 16.082031 -19.304688 15 -19.640625 C 13.914062 -19.984375 12.816406 -20.15625 11.703125 -20.15625 C 10.710938 -20.15625 9.96875 -20.019531 9.46875 -19.75 C 8.96875 -19.488281 8.71875 -19.085938 8.71875 -18.546875 C 8.71875 -18.140625 8.84375 -17.78125 9.09375 -17.46875 C 9.351562 -17.164062 9.851562 -16.828125 10.59375 -16.453125 C 11.34375 -16.078125 12.441406 -15.597656 13.890625 -15.015625 C 15.285156 -14.429688 16.492188 -13.828125 17.515625 -13.203125 C 18.546875 -12.578125 19.34375 -11.804688 19.90625 -10.890625 C 20.46875 -9.972656 20.75 -8.785156 20.75 -7.328125 Z M 20.75 -7.328125 "/></g></g></g><g fill="#9e651e" fill-opacity="1"><g transform="translate(294.437029, 649.938275)"><g/></g></g><g fill="#9e651e" fill-opacity="1"><g transform="translate(306.178231, 649.938275)"><g><path d="M 13.921875 -4.921875 C 14.660156 -4.921875 15.378906 -4.992188 16.078125 -5.140625 C 16.773438 -5.285156 17.472656 -5.46875 18.171875 -5.6875 L 18.171875 -0.6875 C 17.441406 -0.363281 16.546875 -0.0976562 15.484375 0.109375 C 14.421875 0.328125 13.253906 0.4375 11.984375 0.4375 C 10.515625 0.4375 9.191406 0.195312 8.015625 -0.28125 C 6.847656 -0.757812 5.929688 -1.585938 5.265625 -2.765625 C 4.597656 -3.953125 4.265625 -5.601562 4.265625 -7.71875 L 4.265625 -19.625 L 1.03125 -19.625 L 1.03125 -22.46875 L 4.75 -24.71875 L 6.6875 -29.921875 L 10.984375 -29.921875 L 10.984375 -24.671875 L 17.90625 -24.671875 L 17.90625 -19.625 L 10.984375 -19.625 L 10.984375 -7.71875 C 10.984375 -6.78125 11.253906 -6.078125 11.796875 -5.609375 C 12.335938 -5.148438 13.046875 -4.921875 13.921875 -4.921875 Z M 13.921875 -4.921875 "/></g></g></g><g fill="#9e651e" fill-opacity="1"><g transform="translate(325.798405, 649.938275)"><g><path d="M 25.953125 -12.375 C 25.953125 -10.320312 25.675781 -8.5 25.125 -6.90625 C 24.570312 -5.320312 23.769531 -3.976562 22.71875 -2.875 C 21.664062 -1.78125 20.398438 -0.953125 18.921875 -0.390625 C 17.441406 0.160156 15.773438 0.4375 13.921875 0.4375 C 12.191406 0.4375 10.597656 0.160156 9.140625 -0.390625 C 7.691406 -0.953125 6.4375 -1.78125 5.375 -2.875 C 4.3125 -3.976562 3.488281 -5.320312 2.90625 -6.90625 C 2.320312 -8.5 2.03125 -10.320312 2.03125 -12.375 C 2.03125 -15.113281 2.515625 -17.429688 3.484375 -19.328125 C 4.453125 -21.234375 5.832031 -22.675781 7.625 -23.65625 C 9.425781 -24.644531 11.570312 -25.140625 14.0625 -25.140625 C 16.375 -25.140625 18.421875 -24.644531 20.203125 -23.65625 C 21.992188 -22.675781 23.398438 -21.234375 24.421875 -19.328125 C 25.441406 -17.429688 25.953125 -15.113281 25.953125 -12.375 Z M 8.890625 -12.375 C 8.890625 -10.757812 9.066406 -9.398438 9.421875 -8.296875 C 9.773438 -7.191406 10.328125 -6.359375 11.078125 -5.796875 C 11.828125 -5.242188 12.804688 -4.96875 14.015625 -4.96875 C 15.203125 -4.96875 16.164062 -5.242188 16.90625 -5.796875 C 17.65625 -6.359375 18.203125 -7.191406 18.546875 -8.296875 C 18.890625 -9.398438 19.0625 -10.757812 19.0625 -12.375 C 19.0625 -14.007812 18.890625 -15.367188 18.546875 -16.453125 C 18.203125 -17.535156 17.65625 -18.347656 16.90625 -18.890625 C 16.15625 -19.429688 15.175781 -19.703125 13.96875 -19.703125 C 12.1875 -19.703125 10.894531 -19.09375 10.09375 -17.875 C 9.289062 -16.65625 8.890625 -14.820312 8.890625 -12.375 Z M 8.890625 -12.375 "/></g></g></g><g fill="#9e651e" fill-opacity="1"><g transform="translate(353.783088, 649.938275)"><g><path d="M 17.265625 -25.140625 C 20.046875 -25.140625 22.289062 -24.054688 24 -21.890625 C 25.71875 -19.734375 26.578125 -16.5625 26.578125 -12.375 C 26.578125 -9.582031 26.171875 -7.234375 25.359375 -5.328125 C 24.546875 -3.421875 23.425781 -1.984375 22 -1.015625 C 20.570312 -0.046875 18.929688 0.4375 17.078125 0.4375 C 15.890625 0.4375 14.867188 0.285156 14.015625 -0.015625 C 13.160156 -0.316406 12.429688 -0.703125 11.828125 -1.171875 C 11.222656 -1.648438 10.703125 -2.164062 10.265625 -2.71875 L 9.90625 -2.71875 C 10.03125 -2.125 10.117188 -1.519531 10.171875 -0.90625 C 10.234375 -0.289062 10.265625 0.3125 10.265625 0.90625 L 10.265625 10.859375 L 3.53125 10.859375 L 3.53125 -24.671875 L 9 -24.671875 L 9.953125 -21.46875 L 10.265625 -21.46875 C 10.703125 -22.132812 11.238281 -22.742188 11.875 -23.296875 C 12.507812 -23.859375 13.269531 -24.304688 14.15625 -24.640625 C 15.050781 -24.972656 16.085938 -25.140625 17.265625 -25.140625 Z M 15.09375 -19.75 C 13.914062 -19.75 12.976562 -19.503906 12.28125 -19.015625 C 11.59375 -18.535156 11.09375 -17.8125 10.78125 -16.84375 C 10.46875 -15.875 10.296875 -14.644531 10.265625 -13.15625 L 10.265625 -12.421875 C 10.265625 -10.835938 10.414062 -9.492188 10.71875 -8.390625 C 11.019531 -7.285156 11.523438 -6.445312 12.234375 -5.875 C 12.953125 -5.300781 13.9375 -5.015625 15.1875 -5.015625 C 16.21875 -5.015625 17.0625 -5.300781 17.71875 -5.875 C 18.382812 -6.445312 18.878906 -7.285156 19.203125 -8.390625 C 19.535156 -9.503906 19.703125 -10.863281 19.703125 -12.46875 C 19.703125 -14.882812 19.328125 -16.703125 18.578125 -17.921875 C 17.828125 -19.140625 16.664062 -19.75 15.09375 -19.75 Z M 15.09375 -19.75 "/></g></g></g><g fill="#9e651e" fill-opacity="1"><g transform="translate(382.385717, 649.938275)"><g/></g></g><g fill="#9e651e" fill-opacity="1"><g transform="translate(394.12692, 649.938275)"><g><path d="M 10.265625 0 L 3.53125 0 L 3.53125 -34.34375 L 10.265625 -34.34375 Z M 10.265625 0 "/></g></g></g><g fill="#9e651e" fill-opacity="1"><g transform="translate(407.920643, 649.938275)"><g><path d="M 13.640625 -25.1875 C 16.953125 -25.1875 19.488281 -24.460938 21.25 -23.015625 C 23.019531 -21.578125 23.90625 -19.382812 23.90625 -16.4375 L 23.90625 0 L 19.203125 0 L 17.90625 -3.359375 L 17.71875 -3.359375 C 17.019531 -2.472656 16.300781 -1.75 15.5625 -1.1875 C 14.820312 -0.632812 13.972656 -0.226562 13.015625 0.03125 C 12.066406 0.300781 10.90625 0.4375 9.53125 0.4375 C 8.070312 0.4375 6.765625 0.160156 5.609375 -0.390625 C 4.460938 -0.953125 3.554688 -1.8125 2.890625 -2.96875 C 2.222656 -4.125 1.890625 -5.59375 1.890625 -7.375 C 1.890625 -9.988281 2.8125 -11.914062 4.65625 -13.15625 C 6.5 -14.40625 9.257812 -15.097656 12.9375 -15.234375 L 17.21875 -15.359375 L 17.21875 -16.4375 C 17.21875 -17.738281 16.878906 -18.691406 16.203125 -19.296875 C 15.523438 -19.898438 14.582031 -20.203125 13.375 -20.203125 C 12.1875 -20.203125 11.015625 -20.03125 9.859375 -19.6875 C 8.710938 -19.351562 7.566406 -18.925781 6.421875 -18.40625 L 4.1875 -22.953125 C 5.5 -23.640625 6.96875 -24.179688 8.59375 -24.578125 C 10.21875 -24.984375 11.898438 -25.1875 13.640625 -25.1875 Z M 17.21875 -11.4375 L 14.609375 -11.34375 C 12.429688 -11.28125 10.921875 -10.890625 10.078125 -10.171875 C 9.234375 -9.453125 8.8125 -8.503906 8.8125 -7.328125 C 8.8125 -6.296875 9.109375 -5.5625 9.703125 -5.125 C 10.304688 -4.695312 11.097656 -4.484375 12.078125 -4.484375 C 13.515625 -4.484375 14.726562 -4.910156 15.71875 -5.765625 C 16.71875 -6.617188 17.21875 -7.832031 17.21875 -9.40625 Z M 17.21875 -11.4375 "/></g></g></g><g fill="#9e651e" fill-opacity="1"><g transform="translate(435.221164, 649.938275)"><g><path d="M 10.265625 -34.34375 L 10.265625 -26.359375 C 10.265625 -25.429688 10.238281 -24.507812 10.1875 -23.59375 C 10.132812 -22.675781 10.070312 -21.96875 10 -21.46875 L 10.265625 -21.46875 C 10.910156 -22.488281 11.789062 -23.351562 12.90625 -24.0625 C 14.03125 -24.78125 15.484375 -25.140625 17.265625 -25.140625 C 20.023438 -25.140625 22.265625 -24.054688 23.984375 -21.890625 C 25.710938 -19.734375 26.578125 -16.5625 26.578125 -12.375 C 26.578125 -9.570312 26.175781 -7.21875 25.375 -5.3125 C 24.582031 -3.40625 23.472656 -1.96875 22.046875 -1 C 20.617188 -0.0390625 18.960938 0.4375 17.078125 0.4375 C 15.273438 0.4375 13.847656 0.113281 12.796875 -0.53125 C 11.753906 -1.175781 10.910156 -1.90625 10.265625 -2.71875 L 9.796875 -2.71875 L 8.671875 0 L 3.53125 0 L 3.53125 -34.34375 Z M 15.09375 -19.75 C 13.914062 -19.75 12.976562 -19.503906 12.28125 -19.015625 C 11.59375 -18.535156 11.09375 -17.8125 10.78125 -16.84375 C 10.46875 -15.875 10.296875 -14.644531 10.265625 -13.15625 L 10.265625 -12.421875 C 10.265625 -10.023438 10.613281 -8.191406 11.3125 -6.921875 C 12.019531 -5.648438 13.3125 -5.015625 15.1875 -5.015625 C 16.570312 -5.015625 17.671875 -5.648438 18.484375 -6.921875 C 19.296875 -8.203125 19.703125 -10.050781 19.703125 -12.46875 C 19.703125 -14.882812 19.289062 -16.703125 18.46875 -17.921875 C 17.644531 -19.140625 16.519531 -19.75 15.09375 -19.75 Z M 15.09375 -19.75 "/></g></g></g><g fill="#9e651e" fill-opacity="1"><g transform="translate(463.823793, 649.938275)"><g/></g></g><g fill="#9e651e" fill-opacity="1"><g transform="translate(475.564996, 649.938275)"><g><path d="M 17.765625 -27.03125 C 16.453125 -27.03125 15.289062 -26.773438 14.28125 -26.265625 C 13.28125 -25.765625 12.4375 -25.035156 11.75 -24.078125 C 11.070312 -23.117188 10.554688 -21.960938 10.203125 -20.609375 C 9.847656 -19.253906 9.671875 -17.734375 9.671875 -16.046875 C 9.671875 -13.765625 9.953125 -11.816406 10.515625 -10.203125 C 11.078125 -8.597656 11.953125 -7.367188 13.140625 -6.515625 C 14.335938 -5.671875 15.878906 -5.25 17.765625 -5.25 C 19.078125 -5.25 20.390625 -5.394531 21.703125 -5.6875 C 23.023438 -5.988281 24.457031 -6.410156 26 -6.953125 L 26 -1.21875 C 24.570312 -0.625 23.164062 -0.203125 21.78125 0.046875 C 20.394531 0.304688 18.84375 0.4375 17.125 0.4375 C 13.800781 0.4375 11.066406 -0.25 8.921875 -1.625 C 6.785156 -3 5.203125 -4.925781 4.171875 -7.40625 C 3.140625 -9.882812 2.625 -12.78125 2.625 -16.09375 C 2.625 -18.53125 2.953125 -20.765625 3.609375 -22.796875 C 4.273438 -24.828125 5.25 -26.582031 6.53125 -28.0625 C 7.8125 -29.550781 9.394531 -30.703125 11.28125 -31.515625 C 13.164062 -32.328125 15.328125 -32.734375 17.765625 -32.734375 C 19.367188 -32.734375 20.972656 -32.53125 22.578125 -32.125 C 24.191406 -31.71875 25.738281 -31.160156 27.21875 -30.453125 L 25 -24.890625 C 23.800781 -25.472656 22.585938 -25.972656 21.359375 -26.390625 C 20.140625 -26.816406 18.941406 -27.03125 17.765625 -27.03125 Z M 17.765625 -27.03125 "/></g></g></g><g fill="#9e651e" fill-opacity="1"><g transform="translate(504.366271, 649.938275)"><g><path d="M 13.703125 -25.140625 C 15.984375 -25.140625 17.945312 -24.703125 19.59375 -23.828125 C 21.25 -22.953125 22.523438 -21.679688 23.421875 -20.015625 C 24.316406 -18.359375 24.765625 -16.328125 24.765625 -13.921875 L 24.765625 -10.65625 L 8.84375 -10.65625 C 8.925781 -8.757812 9.5 -7.269531 10.5625 -6.1875 C 11.625 -5.101562 13.109375 -4.5625 15.015625 -4.5625 C 16.585938 -4.5625 18.023438 -4.722656 19.328125 -5.046875 C 20.640625 -5.378906 21.988281 -5.867188 23.375 -6.515625 L 23.375 -1.296875 C 22.15625 -0.691406 20.878906 -0.253906 19.546875 0.015625 C 18.210938 0.296875 16.597656 0.4375 14.703125 0.4375 C 12.222656 0.4375 10.03125 -0.015625 8.125 -0.921875 C 6.226562 -1.835938 4.738281 -3.226562 3.65625 -5.09375 C 2.570312 -6.96875 2.03125 -9.320312 2.03125 -12.15625 C 2.03125 -15.039062 2.519531 -17.441406 3.5 -19.359375 C 4.476562 -21.285156 5.84375 -22.726562 7.59375 -23.6875 C 9.34375 -24.65625 11.378906 -25.140625 13.703125 -25.140625 Z M 13.75 -20.34375 C 12.4375 -20.34375 11.347656 -19.921875 10.484375 -19.078125 C 9.628906 -18.242188 9.132812 -16.929688 9 -15.140625 L 18.453125 -15.140625 C 18.441406 -16.140625 18.257812 -17.03125 17.90625 -17.8125 C 17.5625 -18.59375 17.046875 -19.207031 16.359375 -19.65625 C 15.679688 -20.113281 14.8125 -20.34375 13.75 -20.34375 Z M 13.75 -20.34375 "/></g></g></g><g fill="#9e651e" fill-opacity="1"><g transform="translate(531.070875, 649.938275)"><g><path d="M 17.296875 -25.140625 C 17.640625 -25.140625 18.035156 -25.117188 18.484375 -25.078125 C 18.929688 -25.046875 19.296875 -25 19.578125 -24.9375 L 19.0625 -18.625 C 18.84375 -18.695312 18.53125 -18.75 18.125 -18.78125 C 17.726562 -18.820312 17.378906 -18.84375 17.078125 -18.84375 C 16.210938 -18.84375 15.367188 -18.734375 14.546875 -18.515625 C 13.734375 -18.296875 13.003906 -17.9375 12.359375 -17.4375 C 11.710938 -16.945312 11.203125 -16.300781 10.828125 -15.5 C 10.453125 -14.695312 10.265625 -13.71875 10.265625 -12.5625 L 10.265625 0 L 3.53125 0 L 3.53125 -24.671875 L 8.625 -24.671875 L 9.625 -20.53125 L 9.953125 -20.53125 C 10.441406 -21.363281 11.050781 -22.128906 11.78125 -22.828125 C 12.507812 -23.523438 13.335938 -24.082031 14.265625 -24.5 C 15.203125 -24.925781 16.210938 -25.140625 17.296875 -25.140625 Z M 17.296875 -25.140625 "/></g></g></g><g fill="#9e651e" fill-opacity="1"><g transform="translate(551.595898, 649.938275)"><g><path d="M 13.921875 -4.921875 C 14.660156 -4.921875 15.378906 -4.992188 16.078125 -5.140625 C 16.773438 -5.285156 17.472656 -5.46875 18.171875 -5.6875 L 18.171875 -0.6875 C 17.441406 -0.363281 16.546875 -0.0976562 15.484375 0.109375 C 14.421875 0.328125 13.253906 0.4375 11.984375 0.4375 C 10.515625 0.4375 9.191406 0.195312 8.015625 -0.28125 C 6.847656 -0.757812 5.929688 -1.585938 5.265625 -2.765625 C 4.597656 -3.953125 4.265625 -5.601562 4.265625 -7.71875 L 4.265625 -19.625 L 1.03125 -19.625 L 1.03125 -22.46875 L 4.75 -24.71875 L 6.6875 -29.921875 L 10.984375 -29.921875 L 10.984375 -24.671875 L 17.90625 -24.671875 L 17.90625 -19.625 L 10.984375 -19.625 L 10.984375 -7.71875 C 10.984375 -6.78125 11.253906 -6.078125 11.796875 -5.609375 C 12.335938 -5.148438 13.046875 -4.921875 13.921875 -4.921875 Z M 13.921875 -4.921875 "/></g></g></g><g fill="#9e651e" fill-opacity="1"><g transform="translate(571.21606, 649.938275)"><g><path d="M 10.265625 -24.671875 L 10.265625 0 L 3.53125 0 L 3.53125 -24.671875 Z M 6.90625 -34.34375 C 7.90625 -34.34375 8.765625 -34.109375 9.484375 -33.640625 C 10.210938 -33.179688 10.578125 -32.320312 10.578125 -31.0625 C 10.578125 -29.800781 10.210938 -28.929688 9.484375 -28.453125 C 8.765625 -27.984375 7.90625 -27.75 6.90625 -27.75 C 5.894531 -27.75 5.03125 -27.984375 4.3125 -28.453125 C 3.601562 -28.929688 3.25 -29.800781 3.25 -31.0625 C 3.25 -32.320312 3.601562 -33.179688 4.3125 -33.640625 C 5.03125 -34.109375 5.894531 -34.34375 6.90625 -34.34375 Z M 6.90625 -34.34375 "/></g></g></g><g fill="#9e651e" fill-opacity="1"><g transform="translate(585.009761, 649.938275)"><g><path d="M 17.171875 -19.625 L 11.34375 -19.625 L 11.34375 0 L 4.609375 0 L 4.609375 -19.625 L 0.90625 -19.625 L 0.90625 -22.859375 L 4.609375 -24.671875 L 4.609375 -26.484375 C 4.609375 -28.585938 4.960938 -30.222656 5.671875 -31.390625 C 6.390625 -32.566406 7.398438 -33.394531 8.703125 -33.875 C 10.003906 -34.351562 11.546875 -34.59375 13.328125 -34.59375 C 14.640625 -34.59375 15.832031 -34.484375 16.90625 -34.265625 C 17.976562 -34.054688 18.851562 -33.816406 19.53125 -33.546875 L 17.8125 -28.609375 C 17.300781 -28.765625 16.742188 -28.910156 16.140625 -29.046875 C 15.535156 -29.179688 14.84375 -29.25 14.0625 -29.25 C 13.113281 -29.25 12.421875 -28.960938 11.984375 -28.390625 C 11.554688 -27.828125 11.34375 -27.101562 11.34375 -26.21875 L 11.34375 -24.671875 L 17.171875 -24.671875 Z M 17.171875 -19.625 "/></g></g></g><g fill="#9e651e" fill-opacity="1"><g transform="translate(602.51121, 649.938275)"><g><path d="M 10.265625 -24.671875 L 10.265625 0 L 3.53125 0 L 3.53125 -24.671875 Z M 6.90625 -34.34375 C 7.90625 -34.34375 8.765625 -34.109375 9.484375 -33.640625 C 10.210938 -33.179688 10.578125 -32.320312 10.578125 -31.0625 C 10.578125 -29.800781 10.210938 -28.929688 9.484375 -28.453125 C 8.765625 -27.984375 7.90625 -27.75 6.90625 -27.75 C 5.894531 -27.75 5.03125 -27.984375 4.3125 -28.453125 C 3.601562 -28.929688 3.25 -29.800781 3.25 -31.0625 C 3.25 -32.320312 3.601562 -33.179688 4.3125 -33.640625 C 5.03125 -34.109375 5.894531 -34.34375 6.90625 -34.34375 Z M 6.90625 -34.34375 "/></g></g></g><g fill="#9e651e" fill-opacity="1"><g transform="translate(616.30491, 649.938275)"><g><path d="M 13.703125 -25.140625 C 15.984375 -25.140625 17.945312 -24.703125 19.59375 -23.828125 C 21.25 -22.953125 22.523438 -21.679688 23.421875 -20.015625 C 24.316406 -18.359375 24.765625 -16.328125 24.765625 -13.921875 L 24.765625 -10.65625 L 8.84375 -10.65625 C 8.925781 -8.757812 9.5 -7.269531 10.5625 -6.1875 C 11.625 -5.101562 13.109375 -4.5625 15.015625 -4.5625 C 16.585938 -4.5625 18.023438 -4.722656 19.328125 -5.046875 C 20.640625 -5.378906 21.988281 -5.867188 23.375 -6.515625 L 23.375 -1.296875 C 22.15625 -0.691406 20.878906 -0.253906 19.546875 0.015625 C 18.210938 0.296875 16.597656 0.4375 14.703125 0.4375 C 12.222656 0.4375 10.03125 -0.015625 8.125 -0.921875 C 6.226562 -1.835938 4.738281 -3.226562 3.65625 -5.09375 C 2.570312 -6.96875 2.03125 -9.320312 2.03125 -12.15625 C 2.03125 -15.039062 2.519531 -17.441406 3.5 -19.359375 C 4.476562 -21.285156 5.84375 -22.726562 7.59375 -23.6875 C 9.34375 -24.65625 11.378906 -25.140625 13.703125 -25.140625 Z M 13.75 -20.34375 C 12.4375 -20.34375 11.347656 -19.921875 10.484375 -19.078125 C 9.628906 -18.242188 9.132812 -16.929688 9 -15.140625 L 18.453125 -15.140625 C 18.441406 -16.140625 18.257812 -17.03125 17.90625 -17.8125 C 17.5625 -18.59375 17.046875 -19.207031 16.359375 -19.65625 C 15.679688 -20.113281 14.8125 -20.34375 13.75 -20.34375 Z M 13.75 -20.34375 "/></g></g></g><g fill="#9e651e" fill-opacity="1"><g transform="translate(643.009514, 649.938275)"><g><path d="M 11.34375 0.4375 C 8.59375 0.4375 6.351562 -0.640625 4.625 -2.796875 C 2.894531 -4.953125 2.03125 -8.117188 2.03125 -12.296875 C 2.03125 -16.515625 2.90625 -19.707031 4.65625 -21.875 C 6.40625 -24.050781 8.691406 -25.140625 11.515625 -25.140625 C 12.691406 -25.140625 13.726562 -24.976562 14.625 -24.65625 C 15.53125 -24.332031 16.304688 -23.894531 16.953125 -23.34375 C 17.609375 -22.800781 18.164062 -22.191406 18.625 -21.515625 L 18.84375 -21.515625 C 18.757812 -21.984375 18.65625 -22.675781 18.53125 -23.59375 C 18.40625 -24.519531 18.34375 -25.46875 18.34375 -26.4375 L 18.34375 -34.34375 L 25.09375 -34.34375 L 25.09375 0 L 19.9375 0 L 18.625 -3.203125 L 18.34375 -3.203125 C 17.914062 -2.523438 17.378906 -1.910156 16.734375 -1.359375 C 16.097656 -0.804688 15.335938 -0.367188 14.453125 -0.046875 C 13.566406 0.273438 12.53125 0.4375 11.34375 0.4375 Z M 13.703125 -4.921875 C 15.546875 -4.921875 16.84375 -5.46875 17.59375 -6.5625 C 18.351562 -7.65625 18.757812 -9.304688 18.8125 -11.515625 L 18.8125 -12.25 C 18.8125 -14.644531 18.441406 -16.476562 17.703125 -17.75 C 16.960938 -19.03125 15.59375 -19.671875 13.59375 -19.671875 C 12.101562 -19.671875 10.9375 -19.03125 10.09375 -17.75 C 9.257812 -16.46875 8.84375 -14.617188 8.84375 -12.203125 C 8.84375 -9.796875 9.265625 -7.976562 10.109375 -6.75 C 10.960938 -5.53125 12.160156 -4.921875 13.703125 -4.921875 Z M 13.703125 -4.921875 "/></g></g></g><g fill="#9e651e" fill-opacity="1"><g transform="translate(139.669083, 706.188272)"><g><path d="M 30.828125 -16.4375 C 30.828125 -12.800781 30.128906 -9.765625 28.734375 -7.328125 C 27.347656 -4.898438 25.335938 -3.070312 22.703125 -1.84375 C 20.078125 -0.613281 16.910156 0 13.203125 0 L 4.0625 0 L 4.0625 -32.265625 L 14.1875 -32.265625 C 17.570312 -32.265625 20.507812 -31.664062 23 -30.46875 C 25.488281 -29.269531 27.414062 -27.492188 28.78125 -25.140625 C 30.144531 -22.796875 30.828125 -19.894531 30.828125 -16.4375 Z M 23.734375 -16.265625 C 23.734375 -18.648438 23.378906 -20.609375 22.671875 -22.140625 C 21.972656 -23.679688 20.941406 -24.816406 19.578125 -25.546875 C 18.222656 -26.285156 16.546875 -26.65625 14.546875 -26.65625 L 10.90625 -26.65625 L 10.90625 -5.65625 L 13.84375 -5.65625 C 17.175781 -5.65625 19.65625 -6.539062 21.28125 -8.3125 C 22.914062 -10.09375 23.734375 -12.742188 23.734375 -16.265625 Z M 23.734375 -16.265625 "/></g></g></g><g fill="#9e651e" fill-opacity="1"><g transform="translate(173.127097, 706.188272)"><g><path d="M 10.265625 -24.671875 L 10.265625 0 L 3.53125 0 L 3.53125 -24.671875 Z M 6.90625 -34.34375 C 7.90625 -34.34375 8.765625 -34.109375 9.484375 -33.640625 C 10.210938 -33.179688 10.578125 -32.320312 10.578125 -31.0625 C 10.578125 -29.800781 10.210938 -28.929688 9.484375 -28.453125 C 8.765625 -27.984375 7.90625 -27.75 6.90625 -27.75 C 5.894531 -27.75 5.03125 -27.984375 4.3125 -28.453125 C 3.601562 -28.929688 3.25 -29.800781 3.25 -31.0625 C 3.25 -32.320312 3.601562 -33.179688 4.3125 -33.640625 C 5.03125 -34.109375 5.894531 -34.34375 6.90625 -34.34375 Z M 6.90625 -34.34375 "/></g></g></g><g fill="#9e651e" fill-opacity="1"><g transform="translate(186.920809, 706.188272)"><g><path d="M 13.640625 -25.1875 C 16.953125 -25.1875 19.488281 -24.460938 21.25 -23.015625 C 23.019531 -21.578125 23.90625 -19.382812 23.90625 -16.4375 L 23.90625 0 L 19.203125 0 L 17.90625 -3.359375 L 17.71875 -3.359375 C 17.019531 -2.472656 16.300781 -1.75 15.5625 -1.1875 C 14.820312 -0.632812 13.972656 -0.226562 13.015625 0.03125 C 12.066406 0.300781 10.90625 0.4375 9.53125 0.4375 C 8.070312 0.4375 6.765625 0.160156 5.609375 -0.390625 C 4.460938 -0.953125 3.554688 -1.8125 2.890625 -2.96875 C 2.222656 -4.125 1.890625 -5.59375 1.890625 -7.375 C 1.890625 -9.988281 2.8125 -11.914062 4.65625 -13.15625 C 6.5 -14.40625 9.257812 -15.097656 12.9375 -15.234375 L 17.21875 -15.359375 L 17.21875 -16.4375 C 17.21875 -17.738281 16.878906 -18.691406 16.203125 -19.296875 C 15.523438 -19.898438 14.582031 -20.203125 13.375 -20.203125 C 12.1875 -20.203125 11.015625 -20.03125 9.859375 -19.6875 C 8.710938 -19.351562 7.566406 -18.925781 6.421875 -18.40625 L 4.1875 -22.953125 C 5.5 -23.640625 6.96875 -24.179688 8.59375 -24.578125 C 10.21875 -24.984375 11.898438 -25.1875 13.640625 -25.1875 Z M 17.21875 -11.4375 L 14.609375 -11.34375 C 12.429688 -11.28125 10.921875 -10.890625 10.078125 -10.171875 C 9.234375 -9.453125 8.8125 -8.503906 8.8125 -7.328125 C 8.8125 -6.296875 9.109375 -5.5625 9.703125 -5.125 C 10.304688 -4.695312 11.097656 -4.484375 12.078125 -4.484375 C 13.515625 -4.484375 14.726562 -4.910156 15.71875 -5.765625 C 16.71875 -6.617188 17.21875 -7.832031 17.21875 -9.40625 Z M 17.21875 -11.4375 "/></g></g></g><g fill="#9e651e" fill-opacity="1"><g transform="translate(214.221318, 706.188272)"><g><path d="M 32.515625 -25.140625 C 35.304688 -25.140625 37.421875 -24.421875 38.859375 -22.984375 C 40.296875 -21.546875 41.015625 -19.25 41.015625 -16.09375 L 41.015625 0 L 34.25 0 L 34.25 -14.40625 C 34.25 -16.175781 33.945312 -17.507812 33.34375 -18.40625 C 32.75 -19.300781 31.816406 -19.75 30.546875 -19.75 C 28.765625 -19.75 27.5 -19.113281 26.75 -17.84375 C 26 -16.570312 25.625 -14.75 25.625 -12.375 L 25.625 0 L 18.890625 0 L 18.890625 -14.40625 C 18.890625 -15.582031 18.753906 -16.566406 18.484375 -17.359375 C 18.222656 -18.160156 17.820312 -18.757812 17.28125 -19.15625 C 16.738281 -19.550781 16.039062 -19.75 15.1875 -19.75 C 13.9375 -19.75 12.953125 -19.4375 12.234375 -18.8125 C 11.523438 -18.1875 11.019531 -17.265625 10.71875 -16.046875 C 10.414062 -14.835938 10.265625 -13.359375 10.265625 -11.609375 L 10.265625 0 L 3.53125 0 L 3.53125 -24.671875 L 8.671875 -24.671875 L 9.578125 -21.515625 L 9.953125 -21.515625 C 10.453125 -22.367188 11.082031 -23.0625 11.84375 -23.59375 C 12.601562 -24.125 13.4375 -24.515625 14.34375 -24.765625 C 15.257812 -25.015625 16.1875 -25.140625 17.125 -25.140625 C 18.9375 -25.140625 20.46875 -24.84375 21.71875 -24.25 C 22.976562 -23.664062 23.945312 -22.753906 24.625 -21.515625 L 25.234375 -21.515625 C 25.960938 -22.785156 27 -23.707031 28.34375 -24.28125 C 29.695312 -24.851562 31.085938 -25.140625 32.515625 -25.140625 Z M 32.515625 -25.140625 "/></g></g></g><g fill="#9e651e" fill-opacity="1"><g transform="translate(258.603953, 706.188272)"><g><path d="M 25.953125 -12.375 C 25.953125 -10.320312 25.675781 -8.5 25.125 -6.90625 C 24.570312 -5.320312 23.769531 -3.976562 22.71875 -2.875 C 21.664062 -1.78125 20.398438 -0.953125 18.921875 -0.390625 C 17.441406 0.160156 15.773438 0.4375 13.921875 0.4375 C 12.191406 0.4375 10.597656 0.160156 9.140625 -0.390625 C 7.691406 -0.953125 6.4375 -1.78125 5.375 -2.875 C 4.3125 -3.976562 3.488281 -5.320312 2.90625 -6.90625 C 2.320312 -8.5 2.03125 -10.320312 2.03125 -12.375 C 2.03125 -15.113281 2.515625 -17.429688 3.484375 -19.328125 C 4.453125 -21.234375 5.832031 -22.675781 7.625 -23.65625 C 9.425781 -24.644531 11.570312 -25.140625 14.0625 -25.140625 C 16.375 -25.140625 18.421875 -24.644531 20.203125 -23.65625 C 21.992188 -22.675781 23.398438 -21.234375 24.421875 -19.328125 C 25.441406 -17.429688 25.953125 -15.113281 25.953125 -12.375 Z M 8.890625 -12.375 C 8.890625 -10.757812 9.066406 -9.398438 9.421875 -8.296875 C 9.773438 -7.191406 10.328125 -6.359375 11.078125 -5.796875 C 11.828125 -5.242188 12.804688 -4.96875 14.015625 -4.96875 C 15.203125 -4.96875 16.164062 -5.242188 16.90625 -5.796875 C 17.65625 -6.359375 18.203125 -7.191406 18.546875 -8.296875 C 18.890625 -9.398438 19.0625 -10.757812 19.0625 -12.375 C 19.0625 -14.007812 18.890625 -15.367188 18.546875 -16.453125 C 18.203125 -17.535156 17.65625 -18.347656 16.90625 -18.890625 C 16.15625 -19.429688 15.175781 -19.703125 13.96875 -19.703125 C 12.1875 -19.703125 10.894531 -19.09375 10.09375 -17.875 C 9.289062 -16.65625 8.890625 -14.820312 8.890625 -12.375 Z M 8.890625 -12.375 "/></g></g></g><g fill="#9e651e" fill-opacity="1"><g transform="translate(286.588624, 706.188272)"><g><path d="M 17.546875 -25.140625 C 20.179688 -25.140625 22.300781 -24.421875 23.90625 -22.984375 C 25.507812 -21.546875 26.3125 -19.25 26.3125 -16.09375 L 26.3125 0 L 19.578125 0 L 19.578125 -14.40625 C 19.578125 -16.175781 19.253906 -17.507812 18.609375 -18.40625 C 17.972656 -19.300781 16.972656 -19.75 15.609375 -19.75 C 13.546875 -19.75 12.140625 -19.050781 11.390625 -17.65625 C 10.640625 -16.257812 10.265625 -14.242188 10.265625 -11.609375 L 10.265625 0 L 3.53125 0 L 3.53125 -24.671875 L 8.671875 -24.671875 L 9.578125 -21.515625 L 9.953125 -21.515625 C 10.484375 -22.367188 11.140625 -23.0625 11.921875 -23.59375 C 12.710938 -24.125 13.585938 -24.515625 14.546875 -24.765625 C 15.515625 -25.015625 16.515625 -25.140625 17.546875 -25.140625 Z M 17.546875 -25.140625 "/></g></g></g><g fill="#9e651e" fill-opacity="1"><g transform="translate(316.29475, 706.188272)"><g><path d="M 11.34375 0.4375 C 8.59375 0.4375 6.351562 -0.640625 4.625 -2.796875 C 2.894531 -4.953125 2.03125 -8.117188 2.03125 -12.296875 C 2.03125 -16.515625 2.90625 -19.707031 4.65625 -21.875 C 6.40625 -24.050781 8.691406 -25.140625 11.515625 -25.140625 C 12.691406 -25.140625 13.726562 -24.976562 14.625 -24.65625 C 15.53125 -24.332031 16.304688 -23.894531 16.953125 -23.34375 C 17.609375 -22.800781 18.164062 -22.191406 18.625 -21.515625 L 18.84375 -21.515625 C 18.757812 -21.984375 18.65625 -22.675781 18.53125 -23.59375 C 18.40625 -24.519531 18.34375 -25.46875 18.34375 -26.4375 L 18.34375 -34.34375 L 25.09375 -34.34375 L 25.09375 0 L 19.9375 0 L 18.625 -3.203125 L 18.34375 -3.203125 C 17.914062 -2.523438 17.378906 -1.910156 16.734375 -1.359375 C 16.097656 -0.804688 15.335938 -0.367188 14.453125 -0.046875 C 13.566406 0.273438 12.53125 0.4375 11.34375 0.4375 Z M 13.703125 -4.921875 C 15.546875 -4.921875 16.84375 -5.46875 17.59375 -6.5625 C 18.351562 -7.65625 18.757812 -9.304688 18.8125 -11.515625 L 18.8125 -12.25 C 18.8125 -14.644531 18.441406 -16.476562 17.703125 -17.75 C 16.960938 -19.03125 15.59375 -19.671875 13.59375 -19.671875 C 12.101562 -19.671875 10.9375 -19.03125 10.09375 -17.75 C 9.257812 -16.46875 8.84375 -14.617188 8.84375 -12.203125 C 8.84375 -9.796875 9.265625 -7.976562 10.109375 -6.75 C 10.960938 -5.53125 12.160156 -4.921875 13.703125 -4.921875 Z M 13.703125 -4.921875 "/></g></g></g><g fill="#9e651e" fill-opacity="1"><g transform="translate(344.897391, 706.188272)"><g><path d="M 20.75 -7.328125 C 20.75 -5.648438 20.351562 -4.234375 19.5625 -3.078125 C 18.78125 -1.921875 17.609375 -1.046875 16.046875 -0.453125 C 14.484375 0.140625 12.539062 0.4375 10.21875 0.4375 C 8.5 0.4375 7.023438 0.328125 5.796875 0.109375 C 4.566406 -0.109375 3.328125 -0.476562 2.078125 -1 L 2.078125 -6.5625 C 3.410156 -5.957031 4.847656 -5.457031 6.390625 -5.0625 C 7.929688 -4.675781 9.28125 -4.484375 10.4375 -4.484375 C 11.75 -4.484375 12.6875 -4.675781 13.25 -5.0625 C 13.820312 -5.457031 14.109375 -5.96875 14.109375 -6.59375 C 14.109375 -7.007812 13.992188 -7.378906 13.765625 -7.703125 C 13.535156 -8.035156 13.046875 -8.410156 12.296875 -8.828125 C 11.546875 -9.253906 10.367188 -9.804688 8.765625 -10.484375 C 7.210938 -11.128906 5.941406 -11.78125 4.953125 -12.4375 C 3.960938 -13.101562 3.226562 -13.890625 2.75 -14.796875 C 2.269531 -15.703125 2.03125 -16.851562 2.03125 -18.25 C 2.03125 -20.53125 2.914062 -22.25 4.6875 -23.40625 C 6.457031 -24.5625 8.832031 -25.140625 11.8125 -25.140625 C 13.34375 -25.140625 14.800781 -24.984375 16.1875 -24.671875 C 17.582031 -24.367188 19.015625 -23.878906 20.484375 -23.203125 L 18.453125 -18.34375 C 17.234375 -18.875 16.082031 -19.304688 15 -19.640625 C 13.914062 -19.984375 12.816406 -20.15625 11.703125 -20.15625 C 10.710938 -20.15625 9.96875 -20.019531 9.46875 -19.75 C 8.96875 -19.488281 8.71875 -19.085938 8.71875 -18.546875 C 8.71875 -18.140625 8.84375 -17.78125 9.09375 -17.46875 C 9.351562 -17.164062 9.851562 -16.828125 10.59375 -16.453125 C 11.34375 -16.078125 12.441406 -15.597656 13.890625 -15.015625 C 15.285156 -14.429688 16.492188 -13.828125 17.515625 -13.203125 C 18.546875 -12.578125 19.34375 -11.804688 19.90625 -10.890625 C 20.46875 -9.972656 20.75 -8.785156 20.75 -7.328125 Z M 20.75 -7.328125 "/></g></g></g><g fill="#9e651e" fill-opacity="1"><g transform="translate(367.364568, 706.188272)"><g/></g></g><g fill="#9e651e" fill-opacity="1"><g transform="translate(379.105771, 706.188272)"><g><path d="M 14.015625 -32.734375 C 15.753906 -32.734375 17.300781 -32.457031 18.65625 -31.90625 C 20.007812 -31.363281 21.078125 -30.570312 21.859375 -29.53125 C 22.648438 -28.488281 23.046875 -27.21875 23.046875 -25.71875 C 23.046875 -23.644531 22.429688 -21.898438 21.203125 -20.484375 C 19.972656 -19.066406 18.4375 -17.832031 16.59375 -16.78125 L 22.859375 -10.65625 C 23.484375 -11.675781 24.007812 -12.75 24.4375 -13.875 C 24.875 -15.007812 25.253906 -16.148438 25.578125 -17.296875 L 32.59375 -17.296875 C 32.144531 -15.609375 31.484375 -13.800781 30.609375 -11.875 C 29.734375 -9.957031 28.617188 -8.15625 27.265625 -6.46875 L 33.90625 0 L 25.578125 0 L 23.046875 -2.5 C 22.171875 -1.894531 21.238281 -1.367188 20.25 -0.921875 C 19.257812 -0.484375 18.203125 -0.148438 17.078125 0.078125 C 15.953125 0.316406 14.765625 0.4375 13.515625 0.4375 C 11.066406 0.4375 8.96875 0.0546875 7.21875 -0.703125 C 5.46875 -1.472656 4.128906 -2.546875 3.203125 -3.921875 C 2.273438 -5.296875 1.8125 -6.894531 1.8125 -8.71875 C 1.8125 -10.25 2.046875 -11.5625 2.515625 -12.65625 C 2.984375 -13.75 3.660156 -14.710938 4.546875 -15.546875 C 5.429688 -16.378906 6.488281 -17.148438 7.71875 -17.859375 C 6.945312 -18.765625 6.328125 -19.613281 5.859375 -20.40625 C 5.398438 -21.207031 5.066406 -22 4.859375 -22.78125 C 4.660156 -23.570312 4.5625 -24.398438 4.5625 -25.265625 C 4.5625 -26.796875 4.960938 -28.117188 5.765625 -29.234375 C 6.566406 -30.347656 7.675781 -31.207031 9.09375 -31.8125 C 10.519531 -32.425781 12.160156 -32.734375 14.015625 -32.734375 Z M 11.65625 -13.84375 C 11.09375 -13.414062 10.601562 -12.972656 10.1875 -12.515625 C 9.769531 -12.054688 9.445312 -11.566406 9.21875 -11.046875 C 9 -10.535156 8.890625 -9.972656 8.890625 -9.359375 C 8.890625 -8.066406 9.375 -7.050781 10.34375 -6.3125 C 11.320312 -5.570312 12.53125 -5.203125 13.96875 -5.203125 C 14.9375 -5.203125 15.835938 -5.320312 16.671875 -5.5625 C 17.515625 -5.800781 18.285156 -6.132812 18.984375 -6.5625 Z M 13.96875 -27.53125 C 13.21875 -27.53125 12.5 -27.335938 11.8125 -26.953125 C 11.132812 -26.566406 10.796875 -25.851562 10.796875 -24.8125 C 10.796875 -24.070312 10.984375 -23.351562 11.359375 -22.65625 C 11.742188 -21.957031 12.253906 -21.25 12.890625 -20.53125 C 14.148438 -21.21875 15.117188 -21.910156 15.796875 -22.609375 C 16.472656 -23.304688 16.8125 -24.101562 16.8125 -25 C 16.8125 -25.90625 16.503906 -26.550781 15.890625 -26.9375 C 15.285156 -27.332031 14.644531 -27.53125 13.96875 -27.53125 Z M 13.96875 -27.53125 "/></g></g></g><g fill="#9e651e" fill-opacity="1"><g transform="translate(413.005183, 706.188272)"><g/></g></g><g fill="#9e651e" fill-opacity="1"><g transform="translate(424.746386, 706.188272)"><g><path d="M 16.3125 -18.125 L 29.109375 -18.125 L 29.109375 -1.390625 C 27.421875 -0.828125 25.660156 -0.378906 23.828125 -0.046875 C 22.003906 0.273438 19.941406 0.4375 17.640625 0.4375 C 14.429688 0.4375 11.707031 -0.191406 9.46875 -1.453125 C 7.226562 -2.722656 5.523438 -4.59375 4.359375 -7.0625 C 3.203125 -9.53125 2.625 -12.566406 2.625 -16.171875 C 2.625 -19.554688 3.273438 -22.484375 4.578125 -24.953125 C 5.878906 -27.429688 7.785156 -29.347656 10.296875 -30.703125 C 12.804688 -32.054688 15.867188 -32.734375 19.484375 -32.734375 C 21.191406 -32.734375 22.875 -32.546875 24.53125 -32.171875 C 26.195312 -31.804688 27.707031 -31.332031 29.0625 -30.75 L 26.796875 -25.265625 C 25.804688 -25.765625 24.675781 -26.179688 23.40625 -26.515625 C 22.144531 -26.859375 20.820312 -27.03125 19.4375 -27.03125 C 17.457031 -27.03125 15.734375 -26.570312 14.265625 -25.65625 C 12.804688 -24.75 11.675781 -23.472656 10.875 -21.828125 C 10.070312 -20.191406 9.671875 -18.265625 9.671875 -16.046875 C 9.671875 -13.941406 9.957031 -12.078125 10.53125 -10.453125 C 11.101562 -8.828125 12.003906 -7.550781 13.234375 -6.625 C 14.472656 -5.707031 16.085938 -5.25 18.078125 -5.25 C 19.046875 -5.25 19.863281 -5.296875 20.53125 -5.390625 C 21.207031 -5.492188 21.835938 -5.59375 22.421875 -5.6875 L 22.421875 -12.421875 L 16.3125 -12.421875 Z M 16.3125 -18.125 "/></g></g></g><g fill="#9e651e" fill-opacity="1"><g transform="translate(457.476098, 706.188272)"><g><path d="M 13.703125 -25.140625 C 15.984375 -25.140625 17.945312 -24.703125 19.59375 -23.828125 C 21.25 -22.953125 22.523438 -21.679688 23.421875 -20.015625 C 24.316406 -18.359375 24.765625 -16.328125 24.765625 -13.921875 L 24.765625 -10.65625 L 8.84375 -10.65625 C 8.925781 -8.757812 9.5 -7.269531 10.5625 -6.1875 C 11.625 -5.101562 13.109375 -4.5625 15.015625 -4.5625 C 16.585938 -4.5625 18.023438 -4.722656 19.328125 -5.046875 C 20.640625 -5.378906 21.988281 -5.867188 23.375 -6.515625 L 23.375 -1.296875 C 22.15625 -0.691406 20.878906 -0.253906 19.546875 0.015625 C 18.210938 0.296875 16.597656 0.4375 14.703125 0.4375 C 12.222656 0.4375 10.03125 -0.015625 8.125 -0.921875 C 6.226562 -1.835938 4.738281 -3.226562 3.65625 -5.09375 C 2.570312 -6.96875 2.03125 -9.320312 2.03125 -12.15625 C 2.03125 -15.039062 2.519531 -17.441406 3.5 -19.359375 C 4.476562 -21.285156 5.84375 -22.726562 7.59375 -23.6875 C 9.34375 -24.65625 11.378906 -25.140625 13.703125 -25.140625 Z M 13.75 -20.34375 C 12.4375 -20.34375 11.347656 -19.921875 10.484375 -19.078125 C 9.628906 -18.242188 9.132812 -16.929688 9 -15.140625 L 18.453125 -15.140625 C 18.441406 -16.140625 18.257812 -17.03125 17.90625 -17.8125 C 17.5625 -18.59375 17.046875 -19.207031 16.359375 -19.65625 C 15.679688 -20.113281 14.8125 -20.34375 13.75 -20.34375 Z M 13.75 -20.34375 "/></g></g></g><g fill="#9e651e" fill-opacity="1"><g transform="translate(484.180725, 706.188272)"><g><path d="M 32.515625 -25.140625 C 35.304688 -25.140625 37.421875 -24.421875 38.859375 -22.984375 C 40.296875 -21.546875 41.015625 -19.25 41.015625 -16.09375 L 41.015625 0 L 34.25 0 L 34.25 -14.40625 C 34.25 -16.175781 33.945312 -17.507812 33.34375 -18.40625 C 32.75 -19.300781 31.816406 -19.75 30.546875 -19.75 C 28.765625 -19.75 27.5 -19.113281 26.75 -17.84375 C 26 -16.570312 25.625 -14.75 25.625 -12.375 L 25.625 0 L 18.890625 0 L 18.890625 -14.40625 C 18.890625 -15.582031 18.753906 -16.566406 18.484375 -17.359375 C 18.222656 -18.160156 17.820312 -18.757812 17.28125 -19.15625 C 16.738281 -19.550781 16.039062 -19.75 15.1875 -19.75 C 13.9375 -19.75 12.953125 -19.4375 12.234375 -18.8125 C 11.523438 -18.1875 11.019531 -17.265625 10.71875 -16.046875 C 10.414062 -14.835938 10.265625 -13.359375 10.265625 -11.609375 L 10.265625 0 L 3.53125 0 L 3.53125 -24.671875 L 8.671875 -24.671875 L 9.578125 -21.515625 L 9.953125 -21.515625 C 10.453125 -22.367188 11.082031 -23.0625 11.84375 -23.59375 C 12.601562 -24.125 13.4375 -24.515625 14.34375 -24.765625 C 15.257812 -25.015625 16.1875 -25.140625 17.125 -25.140625 C 18.9375 -25.140625 20.46875 -24.84375 21.71875 -24.25 C 22.976562 -23.664062 23.945312 -22.753906 24.625 -21.515625 L 25.234375 -21.515625 C 25.960938 -22.785156 27 -23.707031 28.34375 -24.28125 C 29.695312 -24.851562 31.085938 -25.140625 32.515625 -25.140625 Z M 32.515625 -25.140625 "/></g></g></g><g fill="#9e651e" fill-opacity="1"><g transform="translate(528.563383, 706.188272)"><g><path d="M 20.75 -7.328125 C 20.75 -5.648438 20.351562 -4.234375 19.5625 -3.078125 C 18.78125 -1.921875 17.609375 -1.046875 16.046875 -0.453125 C 14.484375 0.140625 12.539062 0.4375 10.21875 0.4375 C 8.5 0.4375 7.023438 0.328125 5.796875 0.109375 C 4.566406 -0.109375 3.328125 -0.476562 2.078125 -1 L 2.078125 -6.5625 C 3.410156 -5.957031 4.847656 -5.457031 6.390625 -5.0625 C 7.929688 -4.675781 9.28125 -4.484375 10.4375 -4.484375 C 11.75 -4.484375 12.6875 -4.675781 13.25 -5.0625 C 13.820312 -5.457031 14.109375 -5.96875 14.109375 -6.59375 C 14.109375 -7.007812 13.992188 -7.378906 13.765625 -7.703125 C 13.535156 -8.035156 13.046875 -8.410156 12.296875 -8.828125 C 11.546875 -9.253906 10.367188 -9.804688 8.765625 -10.484375 C 7.210938 -11.128906 5.941406 -11.78125 4.953125 -12.4375 C 3.960938 -13.101562 3.226562 -13.890625 2.75 -14.796875 C 2.269531 -15.703125 2.03125 -16.851562 2.03125 -18.25 C 2.03125 -20.53125 2.914062 -22.25 4.6875 -23.40625 C 6.457031 -24.5625 8.832031 -25.140625 11.8125 -25.140625 C 13.34375 -25.140625 14.800781 -24.984375 16.1875 -24.671875 C 17.582031 -24.367188 19.015625 -23.878906 20.484375 -23.203125 L 18.453125 -18.34375 C 17.234375 -18.875 16.082031 -19.304688 15 -19.640625 C 13.914062 -19.984375 12.816406 -20.15625 11.703125 -20.15625 C 10.710938 -20.15625 9.96875 -20.019531 9.46875 -19.75 C 8.96875 -19.488281 8.71875 -19.085938 8.71875 -18.546875 C 8.71875 -18.140625 8.84375 -17.78125 9.09375 -17.46875 C 9.351562 -17.164062 9.851562 -16.828125 10.59375 -16.453125 C 11.34375 -16.078125 12.441406 -15.597656 13.890625 -15.015625 C 15.285156 -14.429688 16.492188 -13.828125 17.515625 -13.203125 C 18.546875 -12.578125 19.34375 -11.804688 19.90625 -10.890625 C 20.46875 -9.972656 20.75 -8.785156 20.75 -7.328125 Z M 20.75 -7.328125 "/></g></g></g><g fill="#9e651e" fill-opacity="1"><g transform="translate(551.03056, 706.188272)"><g><path d="M 13.921875 -4.921875 C 14.660156 -4.921875 15.378906 -4.992188 16.078125 -5.140625 C 16.773438 -5.285156 17.472656 -5.46875 18.171875 -5.6875 L 18.171875 -0.6875 C 17.441406 -0.363281 16.546875 -0.0976562 15.484375 0.109375 C 14.421875 0.328125 13.253906 0.4375 11.984375 0.4375 C 10.515625 0.4375 9.191406 0.195312 8.015625 -0.28125 C 6.847656 -0.757812 5.929688 -1.585938 5.265625 -2.765625 C 4.597656 -3.953125 4.265625 -5.601562 4.265625 -7.71875 L 4.265625 -19.625 L 1.03125 -19.625 L 1.03125 -22.46875 L 4.75 -24.71875 L 6.6875 -29.921875 L 10.984375 -29.921875 L 10.984375 -24.671875 L 17.90625 -24.671875 L 17.90625 -19.625 L 10.984375 -19.625 L 10.984375 -7.71875 C 10.984375 -6.78125 11.253906 -6.078125 11.796875 -5.609375 C 12.335938 -5.148438 13.046875 -4.921875 13.921875 -4.921875 Z M 13.921875 -4.921875 "/></g></g></g><g fill="#9e651e" fill-opacity="1"><g transform="translate(570.650722, 706.188272)"><g><path d="M 25.953125 -12.375 C 25.953125 -10.320312 25.675781 -8.5 25.125 -6.90625 C 24.570312 -5.320312 23.769531 -3.976562 22.71875 -2.875 C 21.664062 -1.78125 20.398438 -0.953125 18.921875 -0.390625 C 17.441406 0.160156 15.773438 0.4375 13.921875 0.4375 C 12.191406 0.4375 10.597656 0.160156 9.140625 -0.390625 C 7.691406 -0.953125 6.4375 -1.78125 5.375 -2.875 C 4.3125 -3.976562 3.488281 -5.320312 2.90625 -6.90625 C 2.320312 -8.5 2.03125 -10.320312 2.03125 -12.375 C 2.03125 -15.113281 2.515625 -17.429688 3.484375 -19.328125 C 4.453125 -21.234375 5.832031 -22.675781 7.625 -23.65625 C 9.425781 -24.644531 11.570312 -25.140625 14.0625 -25.140625 C 16.375 -25.140625 18.421875 -24.644531 20.203125 -23.65625 C 21.992188 -22.675781 23.398438 -21.234375 24.421875 -19.328125 C 25.441406 -17.429688 25.953125 -15.113281 25.953125 -12.375 Z M 8.890625 -12.375 C 8.890625 -10.757812 9.066406 -9.398438 9.421875 -8.296875 C 9.773438 -7.191406 10.328125 -6.359375 11.078125 -5.796875 C 11.828125 -5.242188 12.804688 -4.96875 14.015625 -4.96875 C 15.203125 -4.96875 16.164062 -5.242188 16.90625 -5.796875 C 17.65625 -6.359375 18.203125 -7.191406 18.546875 -8.296875 C 18.890625 -9.398438 19.0625 -10.757812 19.0625 -12.375 C 19.0625 -14.007812 18.890625 -15.367188 18.546875 -16.453125 C 18.203125 -17.535156 17.65625 -18.347656 16.90625 -18.890625 C 16.15625 -19.429688 15.175781 -19.703125 13.96875 -19.703125 C 12.1875 -19.703125 10.894531 -19.09375 10.09375 -17.875 C 9.289062 -16.65625 8.890625 -14.820312 8.890625 -12.375 Z M 8.890625 -12.375 "/></g></g></g><g fill="#9e651e" fill-opacity="1"><g transform="translate(598.63537, 706.188272)"><g><path d="M 17.546875 -25.140625 C 20.179688 -25.140625 22.300781 -24.421875 23.90625 -22.984375 C 25.507812 -21.546875 26.3125 -19.25 26.3125 -16.09375 L 26.3125 0 L 19.578125 0 L 19.578125 -14.40625 C 19.578125 -16.175781 19.253906 -17.507812 18.609375 -18.40625 C 17.972656 -19.300781 16.972656 -19.75 15.609375 -19.75 C 13.546875 -19.75 12.140625 -19.050781 11.390625 -17.65625 C 10.640625 -16.257812 10.265625 -14.242188 10.265625 -11.609375 L 10.265625 0 L 3.53125 0 L 3.53125 -24.671875 L 8.671875 -24.671875 L 9.578125 -21.515625 L 9.953125 -21.515625 C 10.484375 -22.367188 11.140625 -23.0625 11.921875 -23.59375 C 12.710938 -24.125 13.585938 -24.515625 14.546875 -24.765625 C 15.515625 -25.015625 16.515625 -25.140625 17.546875 -25.140625 Z M 17.546875 -25.140625 "/></g></g></g><g fill="#9e651e" fill-opacity="1"><g transform="translate(628.341484, 706.188272)"><g><path d="M 13.703125 -25.140625 C 15.984375 -25.140625 17.945312 -24.703125 19.59375 -23.828125 C 21.25 -22.953125 22.523438 -21.679688 23.421875 -20.015625 C 24.316406 -18.359375 24.765625 -16.328125 24.765625 -13.921875 L 24.765625 -10.65625 L 8.84375 -10.65625 C 8.925781 -8.757812 9.5 -7.269531 10.5625 -6.1875 C 11.625 -5.101562 13.109375 -4.5625 15.015625 -4.5625 C 16.585938 -4.5625 18.023438 -4.722656 19.328125 -5.046875 C 20.640625 -5.378906 21.988281 -5.867188 23.375 -6.515625 L 23.375 -1.296875 C 22.15625 -0.691406 20.878906 -0.253906 19.546875 0.015625 C 18.210938 0.296875 16.597656 0.4375 14.703125 0.4375 C 12.222656 0.4375 10.03125 -0.015625 8.125 -0.921875 C 6.226562 -1.835938 4.738281 -3.226562 3.65625 -5.09375 C 2.570312 -6.96875 2.03125 -9.320312 2.03125 -12.15625 C 2.03125 -15.039062 2.519531 -17.441406 3.5 -19.359375 C 4.476562 -21.285156 5.84375 -22.726562 7.59375 -23.6875 C 9.34375 -24.65625 11.378906 -25.140625 13.703125 -25.140625 Z M 13.75 -20.34375 C 12.4375 -20.34375 11.347656 -19.921875 10.484375 -19.078125 C 9.628906 -18.242188 9.132812 -16.929688 9 -15.140625 L 18.453125 -15.140625 C 18.441406 -16.140625 18.257812 -17.03125 17.90625 -17.8125 C 17.5625 -18.59375 17.046875 -19.207031 16.359375 -19.65625 C 15.679688 -20.113281 14.8125 -20.34375 13.75 -20.34375 Z M 13.75 -20.34375 "/></g></g></g><g fill="#9e651e" fill-opacity="1"><g transform="translate(655.046087, 706.188272)"><g><path d="M 20.75 -7.328125 C 20.75 -5.648438 20.351562 -4.234375 19.5625 -3.078125 C 18.78125 -1.921875 17.609375 -1.046875 16.046875 -0.453125 C 14.484375 0.140625 12.539062 0.4375 10.21875 0.4375 C 8.5 0.4375 7.023438 0.328125 5.796875 0.109375 C 4.566406 -0.109375 3.328125 -0.476562 2.078125 -1 L 2.078125 -6.5625 C 3.410156 -5.957031 4.847656 -5.457031 6.390625 -5.0625 C 7.929688 -4.675781 9.28125 -4.484375 10.4375 -4.484375 C 11.75 -4.484375 12.6875 -4.675781 13.25 -5.0625 C 13.820312 -5.457031 14.109375 -5.96875 14.109375 -6.59375 C 14.109375 -7.007812 13.992188 -7.378906 13.765625 -7.703125 C 13.535156 -8.035156 13.046875 -8.410156 12.296875 -8.828125 C 11.546875 -9.253906 10.367188 -9.804688 8.765625 -10.484375 C 7.210938 -11.128906 5.941406 -11.78125 4.953125 -12.4375 C 3.960938 -13.101562 3.226562 -13.890625 2.75 -14.796875 C 2.269531 -15.703125 2.03125 -16.851562 2.03125 -18.25 C 2.03125 -20.53125 2.914062 -22.25 4.6875 -23.40625 C 6.457031 -24.5625 8.832031 -25.140625 11.8125 -25.140625 C 13.34375 -25.140625 14.800781 -24.984375 16.1875 -24.671875 C 17.582031 -24.367188 19.015625 -23.878906 20.484375 -23.203125 L 18.453125 -18.34375 C 17.234375 -18.875 16.082031 -19.304688 15 -19.640625 C 13.914062 -19.984375 12.816406 -20.15625 11.703125 -20.15625 C 10.710938 -20.15625 9.96875 -20.019531 9.46875 -19.75 C 8.96875 -19.488281 8.71875 -19.085938 8.71875 -18.546875 C 8.71875 -18.140625 8.84375 -17.78125 9.09375 -17.46875 C 9.351562 -17.164062 9.851562 -16.828125 10.59375 -16.453125 C 11.34375 -16.078125 12.441406 -15.597656 13.890625 -15.015625 C 15.285156 -14.429688 16.492188 -13.828125 17.515625 -13.203125 C 18.546875 -12.578125 19.34375 -11.804688 19.90625 -10.890625 C 20.46875 -9.972656 20.75 -8.785156 20.75 -7.328125 Z M 20.75 -7.328125 "/></g></g></g></svg>